Lobster.ufo
<glyph name="exclam" format="1">
  <advance width="526"/>
  <unicode hex="0021"/>
  <outline>
    <contour>
      <point x="375" y="473" type="line"/>
      <point x="672" y="1540" type="line"/>
      <point x="357" y="1497" type="line"/>
      <point x="201" y="473" type="line"/>
    </contour>
    <contour>
      <point x="392" y="152" type="curve" smooth="yes"/>
      <point x="392" y="242"/>
      <point x="320" y="313"/>
      <point x="230" y="313" type="curve" smooth="yes"/>
      <point x="140" y="313"/>
      <point x="66" y="242"/>
      <point x="66" y="152" type="curve" smooth="yes"/>
      <point x="66" y="61"/>
      <point x="140" y="-12"/>
      <point x="230" y="-12" type="curve" smooth="yes"/>
      <point x="320" y="-12"/>
      <point x="392" y="61"/>
    </contour>
  </outline>
</glyph>
<glyph name="quotedbl" format="1">
  <advance width="723"/>
  <unicode hex="0022"/>
  <outline>
    <contour>
      <point x="164" y="1065" type="line"/>
      <point x="307" y="1065" type="line"/>
      <point x="532" y="1540" type="line"/>
      <point x="317" y="1540" type="line"/>
    </contour>
    <contour>
      <point x="485" y="1065" type="line"/>
      <point x="629" y="1065" type="line"/>
      <point x="854" y="1540" type="line"/>
      <point x="639" y="1540" type="line"/>
    </contour>
  </outline>
</glyph>
<glyph name="numbersign" format="1">
  <advance width="1350"/>
  <unicode hex="0023"/>
  <outline>
    <contour>
      <point x="677" y="1379" type="line"/>
      <point x="527" y="1379" type="line"/>
      <point x="260" y="58" type="line"/>
      <point x="409" y="58" type="line"/>
    </contour>
    <contour>
      <point x="1091" y="1379" type="line"/>
      <point x="941" y="1379" type="line"/>
      <point x="674" y="58" type="line"/>
      <point x="823" y="58" type="line"/>
    </contour>
    <contour>
      <point x="210" y="850" type="line"/>
      <point x="1183" y="850" type="line"/>
      <point x="1214" y="1008" type="line"/>
      <point x="241" y="1008" type="line"/>
    </contour>
    <contour>
      <point x="122" y="440" type="line"/>
      <point x="1095" y="440" type="line"/>
      <point x="1126" y="598" type="line"/>
      <point x="153" y="598" type="line"/>
    </contour>
  </outline>
</glyph>
<glyph name="dollar" format="1">
  <advance width="1122"/>
  <unicode hex="0024"/>
  <outline>
    <contour>
      <point x="1092" y="1276" type="curve"/>
      <point x="1092" y="1450"/>
      <point x="948" y="1563"/>
      <point x="727" y="1563" type="curve" smooth="yes"/>
      <point x="469" y="1563"/>
      <point x="279" y="1403"/>
      <point x="279" y="1188" type="curve" smooth="yes"/>
      <point x="279" y="864"/>
      <point x="715" y="666"/>
      <point x="715" y="362" type="curve" smooth="yes"/>
      <point x="715" y="211"/>
      <point x="604" y="106"/>
      <point x="449" y="106" type="curve" smooth="yes"/>
      <point x="322" y="106"/>
      <point x="240" y="178"/>
      <point x="240" y="287" type="curve" smooth="yes"/>
      <point x="240" y="395"/>
      <point x="317" y="469"/>
      <point x="432" y="469" type="curve"/>
      <point x="418" y="549"/>
      <point x="346" y="604"/>
      <point x="256" y="604" type="curve" smooth="yes"/>
      <point x="123" y="604"/>
      <point x="29" y="489"/>
      <point x="29" y="328" type="curve" smooth="yes"/>
      <point x="29" y="109"/>
      <point x="203" y="-37"/>
      <point x="465" y="-37" type="curve" smooth="yes"/>
      <point x="760" y="-37"/>
      <point x="991" y="172"/>
      <point x="991" y="438" type="curve" smooth="yes"/>
      <point x="991" y="807"/>
      <point x="541" y="969"/>
      <point x="541" y="1257" type="curve" smooth="yes"/>
      <point x="541" y="1378"/>
      <point x="627" y="1464"/>
      <point x="750" y="1464" type="curve" smooth="yes"/>
      <point x="840" y="1464"/>
      <point x="895" y="1409"/>
      <point x="895" y="1321" type="curve" smooth="yes"/>
      <point x="895" y="1251"/>
      <point x="862" y="1184"/>
      <point x="811" y="1147" type="curve"/>
      <point x="842" y="1106"/>
      <point x="885" y="1083"/>
      <point x="936" y="1083" type="curve" smooth="yes"/>
      <point x="1028" y="1083"/>
      <point x="1092" y="1161"/>
    </contour>
    <contour>
      <point x="412" y="-293" type="line"/>
      <point x="883" y="1767" type="line"/>
      <point x="778" y="1767" type="line"/>
      <point x="309" y="-293" type="line"/>
    </contour>
  </outline>
</glyph>
<glyph name="ampersand" format="1">
  <advance width="1397"/>
  <unicode hex="0026"/>
  <outline>
    <contour>
      <point x="995" y="598" type="line"/>
      <point x="975" y="342"/>
      <point x="778" y="160"/>
      <point x="586" y="160" type="curve" smooth="yes"/>
      <point x="461" y="160"/>
      <point x="385" y="244"/>
      <point x="385" y="385" type="curve" smooth="yes"/>
      <point x="385" y="598"/>
      <point x="555" y="815"/>
      <point x="752" y="852" type="curve"/>
      <point x="752" y="860" type="line"/>
      <point x="623" y="893"/>
      <point x="545" y="991"/>
      <point x="545" y="1128" type="curve" smooth="yes"/>
      <point x="545" y="1284"/>
      <point x="645" y="1423"/>
      <point x="756" y="1423" type="curve" smooth="yes"/>
      <point x="821" y="1423"/>
      <point x="862" y="1376"/>
      <point x="862" y="1300" type="curve" smooth="yes"/>
      <point x="862" y="1229"/>
      <point x="827" y="1161"/>
      <point x="778" y="1130" type="curve"/>
      <point x="809" y="1090"/>
      <point x="852" y="1067"/>
      <point x="903" y="1067" type="curve" smooth="yes"/>
      <point x="995" y="1067"/>
      <point x="1059" y="1145"/>
      <point x="1059" y="1257" type="curve" smooth="yes"/>
      <point x="1059" y="1421"/>
      <point x="926" y="1540"/>
      <point x="739" y="1540" type="curve" smooth="yes"/>
      <point x="494" y="1540"/>
      <point x="291" y="1343"/>
      <point x="291" y="1118" type="curve" smooth="yes"/>
      <point x="291" y="1001"/>
      <point x="321" y="930"/>
      <point x="408" y="858" type="curve"/>
      <point x="408" y="850" type="line"/>
      <point x="197" y="788"/>
      <point x="29" y="557"/>
      <point x="29" y="328" type="curve" smooth="yes"/>
      <point x="29" y="102"/>
      <point x="188" y="-37"/>
      <point x="446" y="-37" type="curve" smooth="yes"/>
      <point x="805" y="-37"/>
      <point x="1061" y="215"/>
      <point x="1083" y="592" type="curve"/>
    </contour>
    <contour>
      <point x="1162" y="558" type="curve" smooth="yes"/>
      <point x="1284" y="598"/>
      <point x="1379" y="715"/>
      <point x="1345" y="830" type="curve" smooth="yes"/>
      <point x="1337" y="857"/>
      <point x="1323" y="883"/>
      <point x="1301" y="905" type="curve"/>
      <point x="1296" y="905" type="line"/>
      <point x="1266" y="863"/>
      <point x="1193" y="812"/>
      <point x="1128" y="790" type="curve" smooth="yes"/>
      <point x="1045" y="772"/>
      <point x="943" y="779"/>
      <point x="854" y="752" type="curve" smooth="yes"/>
      <point x="742" y="716"/>
      <point x="655" y="614"/>
      <point x="690" y="495" type="curve" smooth="yes"/>
      <point x="698" y="470"/>
      <point x="709" y="444"/>
      <point x="728" y="422" type="curve"/>
      <point x="733" y="423" type="line"/>
      <point x="763" y="468"/>
      <point x="822" y="508"/>
      <point x="894" y="533" type="curve" smooth="yes"/>
      <point x="994" y="560"/>
      <point x="1064" y="532"/>
    </contour>
  </outline>
</glyph>
<glyph name="quotesingle" format="1">
  <advance width="401"/>
  <unicode hex="0027"/>
  <outline>
    <contour>
      <point x="164" y="1065" type="line"/>
      <point x="307" y="1065" type="line"/>
      <point x="532" y="1540" type="line"/>
      <point x="317" y="1540" type="line"/>
    </contour>
  </outline>
</glyph>
<glyph name="parenleft" format="1">
  <advance width="895"/>
  <unicode hex="0028"/>
  <outline>
    <contour>
      <point x="1062" y="1563" type="line"/>
      <point x="606" y="1341"/>
      <point x="307" y="856"/>
      <point x="307" y="336" type="curve" smooth="yes"/>
      <point x="307" y="14"/>
      <point x="421" y="-279"/>
      <point x="626" y="-485" type="curve"/>
      <point x="694" y="-426" type="line"/>
      <point x="593" y="-252"/>
      <point x="540" y="-18"/>
      <point x="540" y="242" type="curve" smooth="yes"/>
      <point x="540" y="776"/>
      <point x="767" y="1290"/>
      <point x="1089" y="1481" type="curve"/>
    </contour>
  </outline>
</glyph>
<glyph name="parenright" format="1">
  <advance width="846"/>
  <unicode hex="0029"/>
  <outline>
    <contour>
      <point x="-113" y="-485" type="line"/>
      <point x="343" y="-264"/>
      <point x="642" y="221"/>
      <point x="642" y="741" type="curve" smooth="yes"/>
      <point x="642" y="1063"/>
      <point x="528" y="1356"/>
      <point x="323" y="1563" type="curve"/>
      <point x="255" y="1503" type="line"/>
      <point x="356" y="1329"/>
      <point x="409" y="1096"/>
      <point x="409" y="836" type="curve" smooth="yes"/>
      <point x="409" y="301"/>
      <point x="182" y="-213"/>
      <point x="-140" y="-403" type="curve"/>
    </contour>
  </outline>
</glyph>
<glyph name="asterisk" format="1">
  <advance width="1055"/>
  <unicode hex="002A"/>
  <outline>
    <contour>
      <point x="634" y="1550" type="line"/>
      <point x="599" y="1560"/>
      <point x="570" y="1566"/>
      <point x="546" y="1566" type="curve" smooth="yes"/>
      <point x="474" y="1566"/>
      <point x="437" y="1523"/>
      <point x="437" y="1437" type="curve" smooth="yes"/>
      <point x="437" y="1388"/>
      <point x="450" y="1327"/>
      <point x="472" y="1253" type="curve"/>
      <point x="265" y="1435" type="line"/>
      <point x="206" y="1386"/>
      <point x="189" y="1356"/>
      <point x="189" y="1310" type="curve" smooth="yes"/>
      <point x="189" y="1245"/>
      <point x="234" y="1196"/>
      <point x="437" y="1161" type="curve"/>
      <point x="177" y="1077" type="line"/>
      <point x="175" y="1069"/>
      <point x="175" y="1059"/>
      <point x="175" y="1050" type="curve" smooth="yes"/>
      <point x="175" y="983"/>
      <point x="216" y="934"/>
      <point x="277" y="934" type="curve" smooth="yes"/>
      <point x="333" y="934"/>
      <point x="392" y="968"/>
      <point x="472" y="1067" type="curve"/>
      <point x="421" y="770" type="line"/>
      <point x="456" y="760"/>
      <point x="484" y="753"/>
      <point x="507" y="753" type="curve" smooth="yes"/>
      <point x="581" y="753"/>
      <point x="617" y="796"/>
      <point x="617" y="882" type="curve" smooth="yes"/>
      <point x="617" y="932"/>
      <point x="603" y="993"/>
      <point x="583" y="1067" type="curve"/>
      <point x="789" y="884" type="line"/>
      <point x="849" y="934"/>
      <point x="863" y="964"/>
      <point x="863" y="1009" type="curve" smooth="yes"/>
      <point x="863" y="1075"/>
      <point x="818" y="1124"/>
      <point x="617" y="1161" type="curve"/>
      <point x="882" y="1247" type="line"/>
      <point x="884" y="1255"/>
      <point x="886" y="1265"/>
      <point x="886" y="1274" type="curve" smooth="yes"/>
      <point x="886" y="1341"/>
      <point x="845" y="1390"/>
      <point x="783" y="1390" type="curve" smooth="yes"/>
      <point x="726" y="1390"/>
      <point x="663" y="1351"/>
      <point x="583" y="1253" type="curve"/>
    </contour>
  </outline>
</glyph>
<glyph name="plus" format="1">
  <advance width="905"/>
  <unicode hex="002B"/>
  <outline>
    <contour>
      <point x="584" y="1063" type="line"/>
      <point x="420" y="1063" type="line"/>
      <point x="358" y="778" type="line"/>
      <point x="68" y="778" type="line"/>
      <point x="31" y="616" type="line"/>
      <point x="322" y="616" type="line"/>
      <point x="258" y="322" type="line"/>
      <point x="422" y="322" type="line"/>
      <point x="485" y="616" type="line"/>
      <point x="786" y="616" type="line"/>
      <point x="821" y="778" type="line"/>
      <point x="522" y="778" type="line"/>
    </contour>
  </outline>
</glyph>
<glyph name="comma" format="1">
  <advance width="442"/>
  <unicode hex="002C"/>
  <outline>
    <contour>
      <point x="84" y="-258" type="curve"/>
      <point x="252" y="-143"/>
      <point x="350" y="41"/>
      <point x="350" y="162" type="curve" smooth="yes"/>
      <point x="350" y="252"/>
      <point x="301" y="317"/>
      <point x="211" y="317" type="curve" smooth="yes"/>
      <point x="121" y="317"/>
      <point x="49" y="244"/>
      <point x="49" y="154" type="curve" smooth="yes"/>
      <point x="49" y="86"/>
      <point x="90" y="39"/>
      <point x="145" y="4" type="curve" smooth="yes"/>
      <point x="164" y="-8"/>
      <point x="172" y="-23"/>
      <point x="172" y="-37" type="curve" smooth="yes"/>
      <point x="172" y="-113"/>
      <point x="66" y="-150"/>
      <point x="66" y="-223" type="curve" smooth="yes"/>
      <point x="66" y="-238"/>
      <point x="72" y="-250"/>
    </contour>
  </outline>
</glyph>
<glyph name="hyphen" format="1">
  <advance width="594"/>
  <unicode hex="002D"/>
  <outline>
    <contour>
      <point x="451" y="455" type="line"/>
      <point x="485" y="616" type="line"/>
      <point x="76" y="616" type="line"/>
      <point x="39" y="455" type="line"/>
    </contour>
  </outline>
</glyph>
<glyph name="period" format="1">
  <advance width="539"/>
  <unicode hex="002E"/>
  <outline>
    <contour>
      <point x="389" y="154" type="curve" smooth="yes"/>
      <point x="389" y="244"/>
      <point x="315" y="317"/>
      <point x="225" y="317" type="curve" smooth="yes"/>
      <point x="135" y="317"/>
      <point x="63" y="244"/>
      <point x="63" y="154" type="curve" smooth="yes"/>
      <point x="63" y="63"/>
      <point x="135" y="-8"/>
      <point x="225" y="-8" type="curve" smooth="yes"/>
      <point x="315" y="-8"/>
      <point x="389" y="63"/>
    </contour>
  </outline>
</glyph>
<glyph name="slash" format="1">
  <advance width="637"/>
  <unicode hex="002F"/>
  <outline>
    <contour>
      <point x="170" y="-512" type="line"/>
      <point x="604" y="1536" type="line"/>
      <point x="457" y="1536" type="line"/>
      <point x="23" y="-512" type="line"/>
    </contour>
  </outline>
</glyph>
<glyph name="zero" format="1">
  <advance width="1118"/>
  <unicode hex="0030"/>
  <outline>
    <contour>
      <point x="456" y="-21" type="curve" smooth="yes"/>
      <point x="960" y="-21"/>
      <point x="1134" y="656"/>
      <point x="1134" y="1054" type="curve" smooth="yes"/>
      <point x="1134" y="1350"/>
      <point x="1010" y="1547"/>
      <point x="740" y="1547" type="curve" smooth="yes"/>
      <point x="324" y="1547"/>
      <point x="43" y="1057"/>
      <point x="43" y="491" type="curve" smooth="yes"/>
      <point x="43" y="206"/>
      <point x="135" y="-21"/>
    </contour>
    <contour>
      <point x="737" y="1425" type="curve" smooth="yes"/>
      <point x="819" y="1425"/>
      <point x="856" y="1286"/>
      <point x="856" y="1126" type="curve" smooth="yes"/>
      <point x="856" y="651"/>
      <point x="685" y="134"/>
      <point x="483" y="134" type="curve" smooth="yes"/>
      <point x="372" y="134"/>
      <point x="349" y="286"/>
      <point x="349" y="440" type="curve" smooth="yes"/>
      <point x="349" y="895"/>
      <point x="543" y="1425"/>
    </contour>
  </outline>
</glyph>
<glyph name="one" format="1">
  <advance width="649"/>
  <unicode hex="0031"/>
  <outline>
    <contour>
      <point x="338" y="0" type="line"/>
      <point x="664" y="1532" type="line"/>
      <point x="416" y="1384"/>
      <point x="256" y="1372"/>
      <point x="143" y="1372" type="curve"/>
      <point x="119" y="1278" type="line"/>
      <point x="313" y="1278" type="line"/>
      <point x="43" y="0" type="line"/>
    </contour>
  </outline>
</glyph>
<glyph name="two" format="1">
  <advance width="1008"/>
  <unicode hex="0032"/>
  <outline>
    <contour>
      <point x="883" y="354" type="line"/>
      <point x="813" y="275"/>
      <point x="753" y="250"/>
      <point x="683" y="250" type="curve" smooth="yes"/>
      <point x="591" y="250"/>
      <point x="476" y="296"/>
      <point x="341" y="296" type="curve" smooth="yes"/>
      <point x="300" y="296"/>
      <point x="261" y="293"/>
      <point x="216" y="281" type="curve"/>
      <point x="379" y="585"/>
      <point x="967" y="771"/>
      <point x="967" y="1163" type="curve" smooth="yes"/>
      <point x="967" y="1398"/>
      <point x="801" y="1537"/>
      <point x="569" y="1537" type="curve" smooth="yes"/>
      <point x="289" y="1537"/>
      <point x="139" y="1351"/>
      <point x="139" y="1187" type="curve" smooth="yes"/>
      <point x="139" y="1050"/>
      <point x="207" y="975"/>
      <point x="287" y="975" type="curve" smooth="yes"/>
      <point x="338" y="975"/>
      <point x="395" y="1001"/>
      <point x="442" y="1044" type="curve"/>
      <point x="442" y="1052" type="line"/>
      <point x="389" y="1084"/>
      <point x="344" y="1157"/>
      <point x="344" y="1256" type="curve" smooth="yes"/>
      <point x="344" y="1347"/>
      <point x="410" y="1422"/>
      <point x="506" y="1422" type="curve" smooth="yes"/>
      <point x="614" y="1422"/>
      <point x="659" y="1316"/>
      <point x="659" y="1169" type="curve" smooth="yes"/>
      <point x="659" y="729"/>
      <point x="-21" y="480"/>
      <point x="-25" y="94" type="curve" smooth="yes"/>
      <point x="-25" y="63"/>
      <point x="-21" y="31"/>
      <point x="-13" y="-2" type="curve"/>
      <point x="-5" y="-2" type="line"/>
      <point x="79" y="42"/>
      <point x="152" y="57"/>
      <point x="222" y="57" type="curve" smooth="yes"/>
      <point x="375" y="57"/>
      <point x="511" y="-25"/>
      <point x="641" y="-25" type="curve" smooth="yes"/>
      <point x="785" y="-25"/>
      <point x="915" y="75"/>
      <point x="915" y="223" type="curve" smooth="yes"/>
      <point x="915" y="260"/>
      <point x="906" y="303"/>
      <point x="889" y="350" type="curve"/>
    </contour>
  </outline>
</glyph>
<glyph name="three" format="1">
  <advance width="1053"/>
  <unicode hex="0033"/>
  <outline>
    <contour>
      <point x="739" y="854" type="curve"/>
      <point x="928" y="950"/>
      <point x="1020" y="1098"/>
      <point x="1020" y="1235" type="curve" smooth="yes"/>
      <point x="1020" y="1393"/>
      <point x="891" y="1534"/>
      <point x="639" y="1534" type="curve" smooth="yes"/>
      <point x="401" y="1534"/>
      <point x="215" y="1409"/>
      <point x="215" y="1223" type="curve" smooth="yes"/>
      <point x="215" y="1110"/>
      <point x="281" y="1049"/>
      <point x="362" y="1049" type="curve" smooth="yes"/>
      <point x="412" y="1049"/>
      <point x="467" y="1071"/>
      <point x="518" y="1118" type="curve"/>
      <point x="461" y="1135"/>
      <point x="440" y="1208"/>
      <point x="440" y="1264" type="curve" smooth="yes"/>
      <point x="440" y="1360"/>
      <point x="504" y="1423"/>
      <point x="602" y="1423" type="curve" smooth="yes"/>
      <point x="707" y="1423"/>
      <point x="758" y="1352"/>
      <point x="758" y="1255" type="curve" smooth="yes"/>
      <point x="758" y="1112"/>
      <point x="637" y="922"/>
      <point x="408" y="856" type="curve"/>
      <point x="598" y="791"/>
      <point x="680" y="623"/>
      <point x="680" y="469" type="curve" smooth="yes"/>
      <point x="680" y="230"/>
      <point x="538" y="119"/>
      <point x="415" y="119" type="curve" smooth="yes"/>
      <point x="322" y="119"/>
      <point x="240" y="183"/>
      <point x="240" y="305" type="curve" smooth="yes"/>
      <point x="240" y="387"/>
      <point x="262" y="516"/>
      <point x="420" y="526" type="curve"/>
      <point x="403" y="606"/>
      <point x="336" y="631"/>
      <point x="260" y="631" type="curve" smooth="yes"/>
      <point x="96" y="631"/>
      <point x="12" y="510"/>
      <point x="12" y="338" type="curve" smooth="yes"/>
      <point x="12" y="23"/>
      <point x="301" y="-10"/>
      <point x="420" y="-10" type="curve" smooth="yes"/>
      <point x="770" y="-10"/>
      <point x="997" y="268"/>
      <point x="997" y="516" type="curve" smooth="yes"/>
      <point x="997" y="664"/>
      <point x="920" y="795"/>
    </contour>
  </outline>
</glyph>
<glyph name="four" format="1">
  <advance width="975"/>
  <unicode hex="0034"/>
  <outline>
    <contour>
      <point x="215" y="660" type="line"/>
      <point x="418" y="822"/>
      <point x="725" y="1144"/>
      <point x="725" y="1342" type="curve" smooth="yes"/>
      <point x="725" y="1441"/>
      <point x="657" y="1519"/>
      <point x="530" y="1519" type="curve" smooth="yes"/>
      <point x="498" y="1519"/>
      <point x="459" y="1515"/>
      <point x="428" y="1506" type="curve"/>
      <point x="438" y="1465"/>
      <point x="444" y="1422"/>
      <point x="444" y="1379" type="curve" smooth="yes"/>
      <point x="444" y="1109"/>
      <point x="225" y="818"/>
      <point x="-4" y="543" type="curve"/>
      <point x="-4" y="533" type="line"/>
      <point x="39" y="453" type="line"/>
      <point x="47" y="453" type="line"/>
      <point x="121" y="490"/>
      <point x="199" y="496"/>
      <point x="268" y="496" type="curve" smooth="yes"/>
      <point x="422" y="496"/>
      <point x="553" y="416"/>
      <point x="690" y="416" type="curve" smooth="yes"/>
      <point x="848" y="416"/>
      <point x="977" y="517"/>
      <point x="977" y="644" type="curve" smooth="yes"/>
      <point x="977" y="680"/>
      <point x="967" y="717"/>
      <point x="944" y="756" type="curve"/>
      <point x="938" y="760" type="line"/>
      <point x="870" y="680"/>
      <point x="797" y="648"/>
      <point x="725" y="648" type="curve" smooth="yes"/>
      <point x="643" y="648"/>
      <point x="500" y="691"/>
      <point x="399" y="691" type="curve" smooth="yes"/>
      <point x="334" y="691"/>
      <point x="262" y="672"/>
      <point x="217" y="654" type="curve"/>
    </contour>
    <contour>
      <point x="383" y="0" type="line"/>
      <point x="668" y="0" type="line"/>
      <point x="909" y="1139" type="line"/>
      <point x="778" y="1139" type="line"/>
    </contour>
  </outline>
</glyph>
<glyph name="five" format="1">
  <advance width="1059"/>
  <unicode hex="0035"/>
  <outline>
    <contour>
      <point x="404" y="-10" type="curve" smooth="yes"/>
      <point x="752" y="-10"/>
      <point x="985" y="216"/>
      <point x="985" y="551" type="curve" smooth="yes"/>
      <point x="985" y="811"/>
      <point x="845" y="973"/>
      <point x="623" y="973" type="curve" smooth="yes"/>
      <point x="541" y="973"/>
      <point x="455" y="951"/>
      <point x="369" y="909" type="curve"/>
      <point x="451" y="1280" type="line"/>
      <point x="532" y="1270"/>
      <point x="684" y="1229"/>
      <point x="793" y="1229" type="curve" smooth="yes"/>
      <point x="967" y="1229"/>
      <point x="1028" y="1335"/>
      <point x="1028" y="1466" type="curve" smooth="yes"/>
      <point x="1028" y="1489"/>
      <point x="1026" y="1511"/>
      <point x="1024" y="1534" type="curve"/>
      <point x="896" y="1491"/>
      <point x="783" y="1476"/>
      <point x="667" y="1476" type="curve" smooth="yes"/>
      <point x="559" y="1476"/>
      <point x="449" y="1489"/>
      <point x="324" y="1503" type="curve"/>
      <point x="165" y="728" type="line"/>
      <point x="193" y="708" type="line"/>
      <point x="300" y="771"/>
      <point x="385" y="801"/>
      <point x="461" y="801" type="curve" smooth="yes"/>
      <point x="603" y="801"/>
      <point x="686" y="696"/>
      <point x="686" y="505" type="curve" smooth="yes"/>
      <point x="686" y="285"/>
      <point x="575" y="127"/>
      <point x="415" y="127" type="curve" smooth="yes"/>
      <point x="319" y="127"/>
      <point x="258" y="184"/>
      <point x="258" y="281" type="curve" smooth="yes"/>
      <point x="258" y="387"/>
      <point x="331" y="458"/>
      <point x="442" y="471" type="curve"/>
      <point x="428" y="541"/>
      <point x="381" y="575"/>
      <point x="296" y="575" type="curve" smooth="yes"/>
      <point x="139" y="575"/>
      <point x="31" y="460"/>
      <point x="31" y="288" type="curve" smooth="yes"/>
      <point x="31" y="98"/>
      <point x="163" y="-10"/>
    </contour>
  </outline>
</glyph>
<glyph name="six" format="1">
  <advance width="1023"/>
  <unicode hex="0036"/>
  <outline>
    <contour>
      <point x="676" y="931" type="curve" smooth="yes"/>
      <point x="525" y="931"/>
      <point x="406" y="866"/>
      <point x="357" y="739" type="curve"/>
      <point x="350" y="737" type="line"/>
      <point x="410" y="1127"/>
      <point x="583" y="1413"/>
      <point x="751" y="1413" type="curve" smooth="yes"/>
      <point x="823" y="1413"/>
      <point x="858" y="1357"/>
      <point x="858" y="1298" type="curve" smooth="yes"/>
      <point x="858" y="1251"/>
      <point x="835" y="1202"/>
      <point x="791" y="1179" type="curve"/>
      <point x="807" y="1140"/>
      <point x="850" y="1114"/>
      <point x="895" y="1114" type="curve" smooth="yes"/>
      <point x="980" y="1114"/>
      <point x="1045" y="1198"/>
      <point x="1045" y="1302" type="curve" smooth="yes"/>
      <point x="1045" y="1441"/>
      <point x="928" y="1534"/>
      <point x="748" y="1534" type="curve" smooth="yes"/>
      <point x="350" y="1534"/>
      <point x="33" y="1089"/>
      <point x="33" y="530" type="curve" smooth="yes"/>
      <point x="33" y="146"/>
      <point x="165" y="-10"/>
      <point x="451" y="-10" type="curve" smooth="yes"/>
      <point x="744" y="-10"/>
      <point x="990" y="273"/>
      <point x="990" y="577" type="curve" smooth="yes"/>
      <point x="990" y="798"/>
      <point x="863" y="931"/>
    </contour>
    <contour>
      <point x="332" y="448" type="curve" smooth="yes"/>
      <point x="332" y="653"/>
      <point x="398" y="786"/>
      <point x="565" y="786" type="curve" smooth="yes"/>
      <point x="660" y="786"/>
      <point x="729" y="728"/>
      <point x="729" y="571" type="curve" smooth="yes"/>
      <point x="729" y="331"/>
      <point x="608" y="150"/>
      <point x="494" y="150" type="curve" smooth="yes"/>
      <point x="396" y="150"/>
      <point x="332" y="232"/>
    </contour>
  </outline>
</glyph>
<glyph name="seven" format="1">
  <advance width="950"/>
  <unicode hex="0037"/>
  <outline>
    <contour>
      <point x="1064" y="1526" type="line"/>
      <point x="956" y="1497"/>
      <point x="861" y="1483"/>
      <point x="788" y="1483" type="curve" smooth="yes"/>
      <point x="629" y="1483"/>
      <point x="537" y="1549"/>
      <point x="398" y="1549" type="curve" smooth="yes"/>
      <point x="232" y="1549"/>
      <point x="116" y="1456"/>
      <point x="116" y="1311" type="curve" smooth="yes"/>
      <point x="116" y="1271"/>
      <point x="125" y="1227"/>
      <point x="143" y="1186" type="curve"/>
      <point x="149" y="1184" type="line"/>
      <point x="213" y="1259"/>
      <point x="270" y="1290"/>
      <point x="351" y="1290" type="curve" smooth="yes"/>
      <point x="449" y="1290"/>
      <point x="527" y="1245"/>
      <point x="618" y="1245" type="curve" smooth="yes"/>
      <point x="665" y="1245"/>
      <point x="705" y="1257"/>
      <point x="755" y="1272" type="curve"/>
      <point x="755" y="1119"/>
      <point x="153" y="663"/>
      <point x="153" y="240" type="curve" smooth="yes"/>
      <point x="153" y="86"/>
      <point x="233" y="-8"/>
      <point x="358" y="-8" type="curve" smooth="yes"/>
      <point x="403" y="-8"/>
      <point x="453" y="4"/>
      <point x="502" y="30" type="curve"/>
      <point x="480" y="94"/>
      <point x="465" y="170"/>
      <point x="465" y="242" type="curve" smooth="yes"/>
      <point x="465" y="700"/>
      <point x="1068" y="1336"/>
      <point x="1068" y="1518" type="curve"/>
    </contour>
  </outline>
</glyph>
<glyph name="eight" format="1">
  <advance width="1022"/>
  <unicode hex="0038"/>
  <outline>
    <contour>
      <point x="434" y="852" type="line"/>
      <point x="130" y="730"/>
      <point x="-6" y="581"/>
      <point x="-4" y="378" type="curve" smooth="yes"/>
      <point x="0" y="144"/>
      <point x="192" y="-17"/>
      <point x="461" y="-12" type="curve" smooth="yes"/>
      <point x="759" y="-7"/>
      <point x="995" y="206"/>
      <point x="991" y="463" type="curve" smooth="yes"/>
      <point x="984" y="829"/>
      <point x="495" y="962"/>
      <point x="491" y="1248" type="curve" smooth="yes"/>
      <point x="489" y="1363"/>
      <point x="566" y="1451"/>
      <point x="669" y="1452" type="curve" smooth="yes"/>
      <point x="754" y="1454"/>
      <point x="809" y="1396"/>
      <point x="809" y="1301" type="curve" smooth="yes"/>
      <point x="811" y="1177"/>
      <point x="726" y="1032"/>
      <point x="594" y="939" type="curve"/>
      <point x="660" y="862" type="line"/>
      <point x="907" y="980"/>
      <point x="1031" y="1116"/>
      <point x="1029" y="1266" type="curve" smooth="yes"/>
      <point x="1025" y="1433"/>
      <point x="862" y="1554"/>
      <point x="642" y="1550" type="curve" smooth="yes"/>
      <point x="392" y="1546"/>
      <point x="199" y="1382"/>
      <point x="201" y="1175" type="curve" smooth="yes"/>
      <point x="207" y="854"/>
      <point x="683" y="684"/>
      <point x="687" y="385" type="curve" smooth="yes"/>
      <point x="691" y="247"/>
      <point x="590" y="132"/>
      <point x="465" y="129" type="curve" smooth="yes"/>
      <point x="349" y="127"/>
      <point x="270" y="223"/>
      <point x="266" y="374" type="curve" smooth="yes"/>
      <point x="264" y="534"/>
      <point x="349" y="678"/>
      <point x="499" y="767" type="curve"/>
    </contour>
  </outline>
</glyph>
<glyph name="nine" format="1">
  <advance width="1001"/>
  <unicode hex="0039"/>
  <outline>
    <contour>
      <point x="370" y="617" type="curve" smooth="yes"/>
      <point x="520" y="617"/>
      <point x="639" y="682"/>
      <point x="688" y="809" type="curve"/>
      <point x="695" y="811" type="line"/>
      <point x="645" y="424"/>
      <point x="486" y="133"/>
      <point x="315" y="133" type="curve" smooth="yes"/>
      <point x="244" y="133"/>
      <point x="212" y="181"/>
      <point x="212" y="233" type="curve" smooth="yes"/>
      <point x="212" y="278"/>
      <point x="236" y="326"/>
      <point x="279" y="350" type="curve"/>
      <point x="266" y="389"/>
      <point x="223" y="416"/>
      <point x="174" y="416" type="curve" smooth="yes"/>
      <point x="90" y="416"/>
      <point x="27" y="330"/>
      <point x="27" y="226" type="curve" smooth="yes"/>
      <point x="27" y="86"/>
      <point x="143" y="-6"/>
      <point x="324" y="-6" type="curve" smooth="yes"/>
      <point x="709" y="-6"/>
      <point x="1008" y="438"/>
      <point x="1008" y="998" type="curve" smooth="yes"/>
      <point x="1008" y="1354"/>
      <point x="879" y="1537"/>
      <point x="627" y="1537" type="curve" smooth="yes"/>
      <point x="320" y="1537"/>
      <point x="55" y="1276"/>
      <point x="55" y="971" type="curve" smooth="yes"/>
      <point x="55" y="750"/>
      <point x="182" y="617"/>
    </contour>
    <contour>
      <point x="715" y="1143" type="curve" smooth="yes"/>
      <point x="715" y="922"/>
      <point x="646" y="766"/>
      <point x="459" y="766" type="curve" smooth="yes"/>
      <point x="375" y="766"/>
      <point x="315" y="828"/>
      <point x="315" y="977" type="curve" smooth="yes"/>
      <point x="315" y="1183"/>
      <point x="423" y="1402"/>
      <point x="565" y="1402" type="curve" smooth="yes"/>
      <point x="701" y="1402"/>
      <point x="715" y="1238"/>
    </contour>
  </outline>
</glyph>
<glyph name="colon" format="1">
  <advance width="547"/>
  <unicode hex="003A"/>
  <outline>
    <contour>
      <point x="410" y="276" type="curve" smooth="yes"/>
      <point x="410" y="367"/>
      <point x="336" y="440"/>
      <point x="246" y="440" type="curve" smooth="yes"/>
      <point x="156" y="440"/>
      <point x="84" y="367"/>
      <point x="84" y="276" type="curve" smooth="yes"/>
      <point x="84" y="186"/>
      <point x="156" y="115"/>
      <point x="246" y="115" type="curve" smooth="yes"/>
      <point x="336" y="115"/>
      <point x="410" y="186"/>
    </contour>
    <contour>
      <point x="512" y="768" type="curve" smooth="yes"/>
      <point x="512" y="858"/>
      <point x="438" y="932"/>
      <point x="348" y="932" type="curve" smooth="yes"/>
      <point x="258" y="932"/>
      <point x="186" y="858"/>
      <point x="186" y="768" type="curve" smooth="yes"/>
      <point x="186" y="678"/>
      <point x="258" y="606"/>
      <point x="348" y="606" type="curve" smooth="yes"/>
      <point x="438" y="606"/>
      <point x="512" y="678"/>
    </contour>
  </outline>
</glyph>
<glyph name="semicolon" format="1">
  <advance width="565"/>
  <unicode hex="003B"/>
  <outline>
    <contour>
      <point x="518" y="678" type="curve" smooth="yes"/>
      <point x="518" y="768"/>
      <point x="444" y="842"/>
      <point x="354" y="842" type="curve" smooth="yes"/>
      <point x="264" y="842"/>
      <point x="193" y="768"/>
      <point x="193" y="678" type="curve" smooth="yes"/>
      <point x="193" y="588"/>
      <point x="264" y="516"/>
      <point x="354" y="516" type="curve" smooth="yes"/>
      <point x="444" y="516"/>
      <point x="518" y="588"/>
    </contour>
    <contour>
      <point x="129" y="-225" type="curve"/>
      <point x="297" y="-111"/>
      <point x="395" y="74"/>
      <point x="395" y="195" type="curve" smooth="yes"/>
      <point x="395" y="285"/>
      <point x="346" y="350"/>
      <point x="256" y="350" type="curve" smooth="yes"/>
      <point x="166" y="350"/>
      <point x="94" y="276"/>
      <point x="94" y="186" type="curve" smooth="yes"/>
      <point x="94" y="119"/>
      <point x="135" y="72"/>
      <point x="190" y="37" type="curve" smooth="yes"/>
      <point x="209" y="25"/>
      <point x="217" y="10"/>
      <point x="217" y="-4" type="curve" smooth="yes"/>
      <point x="217" y="-80"/>
      <point x="111" y="-117"/>
      <point x="111" y="-190" type="curve" smooth="yes"/>
      <point x="111" y="-205"/>
      <point x="117" y="-217"/>
    </contour>
  </outline>
</glyph>
<glyph name="less" format="1">
  <advance width="733"/>
  <unicode hex="003C"/>
  <outline>
    <contour>
      <point x="723" y="920" type="line"/>
      <point x="33" y="571" type="line"/>
      <point x="14" y="487" type="line"/>
      <point x="582" y="166" type="line"/>
      <point x="627" y="324" type="line"/>
      <point x="254" y="518" type="line"/>
      <point x="709" y="756" type="line"/>
    </contour>
  </outline>
</glyph>
<glyph name="equal" format="1">
  <advance width="1055"/>
  <unicode hex="003D"/>
  <outline>
    <contour>
      <point x="911" y="647" type="line"/>
      <point x="958" y="877" type="line"/>
      <point x="205" y="877" type="line"/>
      <point x="156" y="647" type="line"/>
    </contour>
    <contour>
      <point x="821" y="207" type="line"/>
      <point x="868" y="436" type="line"/>
      <point x="115" y="436" type="line"/>
      <point x="66" y="207" type="line"/>
    </contour>
  </outline>
</glyph>
<glyph name="greater" format="1">
  <advance width="741"/>
  <unicode hex="003E"/>
  <outline>
    <contour>
      <point x="14" y="166" type="line"/>
      <point x="705" y="514" type="line"/>
      <point x="723" y="598" type="line"/>
      <point x="156" y="920" type="line"/>
      <point x="111" y="762" type="line"/>
      <point x="483" y="567" type="line"/>
      <point x="29" y="330" type="line"/>
    </contour>
  </outline>
</glyph>
<glyph name="question" format="1">
  <advance width="903"/>
  <unicode hex="003F"/>
  <outline>
    <contour>
      <point x="603" y="1270" type="curve" smooth="yes"/>
      <point x="603" y="948"/>
      <point x="216" y="879"/>
      <point x="216" y="475" type="curve"/>
      <point x="351" y="475" type="line"/>
      <point x="351" y="856"/>
      <point x="884" y="928"/>
      <point x="884" y="1280" type="curve" smooth="yes"/>
      <point x="884" y="1456"/>
      <point x="748" y="1563"/>
      <point x="527" y="1563" type="curve" smooth="yes"/>
      <point x="286" y="1563"/>
      <point x="103" y="1415"/>
      <point x="103" y="1221" type="curve" smooth="yes"/>
      <point x="103" y="1118"/>
      <point x="163" y="1049"/>
      <point x="251" y="1049" type="curve" smooth="yes"/>
      <point x="300" y="1049"/>
      <point x="357" y="1073"/>
      <point x="406" y="1118" type="curve"/>
      <point x="406" y="1126" type="line"/>
      <point x="347" y="1153"/>
      <point x="308" y="1219"/>
      <point x="308" y="1288" type="curve" smooth="yes"/>
      <point x="308" y="1384"/>
      <point x="376" y="1456"/>
      <point x="466" y="1456" type="curve" smooth="yes"/>
      <point x="552" y="1456"/>
      <point x="603" y="1389"/>
    </contour>
    <contour>
      <point x="421" y="164" type="curve" smooth="yes"/>
      <point x="421" y="254"/>
      <point x="349" y="326"/>
      <point x="259" y="326" type="curve" smooth="yes"/>
      <point x="169" y="326"/>
      <point x="95" y="254"/>
      <point x="95" y="164" type="curve" smooth="yes"/>
      <point x="95" y="74"/>
      <point x="169" y="0"/>
      <point x="259" y="0" type="curve" smooth="yes"/>
      <point x="349" y="0"/>
      <point x="421" y="74"/>
    </contour>
  </outline>
</glyph>
<glyph name="at" format="1">
  <advance width="1410"/>
  <unicode hex="0040"/>
  <outline>
    <contour>
      <point x="962" y="33" type="curve" smooth="yes"/>
      <point x="962" y="91"/>
      <point x="937" y="125"/>
      <point x="907" y="140" type="curve"/>
      <point x="820" y="26"/>
      <point x="666" y="-43"/>
      <point x="500" y="-43" type="curve" smooth="yes"/>
      <point x="281" y="-43"/>
      <point x="167" y="66"/>
      <point x="167" y="324" type="curve" smooth="yes"/>
      <point x="167" y="723"/>
      <point x="489" y="1105"/>
      <point x="847" y="1105" type="curve" smooth="yes"/>
      <point x="1042" y="1105"/>
      <point x="1150" y="991"/>
      <point x="1150" y="779" type="curve" smooth="yes"/>
      <point x="1150" y="530"/>
      <point x="1001" y="311"/>
      <point x="921" y="311" type="curve" smooth="yes"/>
      <point x="889" y="311"/>
      <point x="881" y="346"/>
      <point x="881" y="375" type="curve" smooth="yes"/>
      <point x="881" y="411"/>
      <point x="894" y="460"/>
      <point x="909" y="516" type="curve" smooth="yes"/>
      <point x="1004" y="877" type="line"/>
      <point x="849" y="892" type="line"/>
      <point x="816" y="841" type="line"/>
      <point x="778" y="882"/>
      <point x="750" y="897"/>
      <point x="708" y="897" type="curve" smooth="yes"/>
      <point x="525" y="897"/>
      <point x="335" y="625"/>
      <point x="335" y="383" type="curve" smooth="yes"/>
      <point x="335" y="245"/>
      <point x="397" y="173"/>
      <point x="500" y="173" type="curve" smooth="yes"/>
      <point x="587" y="173"/>
      <point x="663" y="225"/>
      <point x="736" y="321" type="curve"/>
      <point x="741" y="237"/>
      <point x="801" y="193"/>
      <point x="891" y="193" type="curve" smooth="yes"/>
      <point x="1119" y="193"/>
      <point x="1331" y="473"/>
      <point x="1331" y="784" type="curve" smooth="yes"/>
      <point x="1331" y="1095"/>
      <point x="1119" y="1254"/>
      <point x="832" y="1254" type="curve" smooth="yes"/>
      <point x="357" y="1254"/>
      <point x="-19" y="820"/>
      <point x="-19" y="312" type="curve" smooth="yes"/>
      <point x="-19" y="-86"/>
      <point x="211" y="-208"/>
      <point x="488" y="-208" type="curve" smooth="yes"/>
      <point x="670" y="-208"/>
      <point x="962" y="-139"/>
    </contour>
    <contour>
      <point x="696" y="377" type="line"/>
      <point x="676" y="340"/>
      <point x="627" y="313"/>
      <point x="588" y="313" type="curve" smooth="yes"/>
      <point x="550" y="313"/>
      <point x="533" y="339"/>
      <point x="533" y="399" type="curve" smooth="yes"/>
      <point x="533" y="561"/>
      <point x="655" y="784"/>
      <point x="755" y="784" type="curve" smooth="yes"/>
      <point x="770" y="784"/>
      <point x="783" y="779"/>
      <point x="799" y="764" type="curve"/>
    </contour>
  </outline>
</glyph>
<glyph name="B" format="1">
  <advance width="1313"/>
  <unicode hex="0042"/>
  <outline>
    <contour>
      <point x="500" y="0" type="line"/>
      <point x="668" y="784" type="line"/>
      <point x="707" y="791"/>
      <point x="745" y="791"/>
      <point x="762" y="791" type="curve" smooth="yes"/>
      <point x="911" y="791"/>
      <point x="956" y="672"/>
      <point x="956" y="530" type="curve" smooth="yes"/>
      <point x="956" y="375"/>
      <point x="903" y="162"/>
      <point x="754" y="162" type="curve" smooth="yes"/>
      <point x="707" y="162"/>
      <point x="668" y="180"/>
      <point x="616" y="236" type="curve"/>
      <point x="598" y="190"/>
      <point x="590" y="152"/>
      <point x="590" y="117" type="curve" smooth="yes"/>
      <point x="590" y="-8"/>
      <point x="705" y="-35"/>
      <point x="793" y="-35" type="curve" smooth="yes"/>
      <point x="1137" y="-35"/>
      <point x="1241" y="358"/>
      <point x="1241" y="555" type="curve" smooth="yes"/>
      <point x="1241" y="709"/>
      <point x="1174" y="852"/>
      <point x="999" y="885" type="curve"/>
      <point x="1133" y="961"/>
      <point x="1204" y="1087"/>
      <point x="1204" y="1210" type="curve" smooth="yes"/>
      <point x="1204" y="1378"/>
      <point x="1069" y="1536"/>
      <point x="768" y="1536" type="curve" smooth="yes"/>
      <point x="381" y="1536"/>
      <point x="25" y="1276"/>
      <point x="25" y="993" type="curve" smooth="yes"/>
      <point x="25" y="854"/>
      <point x="106" y="805"/>
      <point x="244" y="805" type="curve"/>
      <point x="244" y="821"/>
      <point x="215" y="840"/>
      <point x="215" y="944" type="curve" smooth="yes"/>
      <point x="215" y="1280"/>
      <point x="487" y="1442"/>
      <point x="727" y="1442" type="curve" smooth="yes"/>
      <point x="922" y="1442"/>
      <point x="997" y="1335"/>
      <point x="997" y="1221" type="curve" smooth="yes"/>
      <point x="997" y="1067"/>
      <point x="864" y="889"/>
      <point x="702" y="889" type="curve" smooth="yes"/>
      <point x="690" y="889" type="line"/>
      <point x="786" y="1343" type="line"/>
      <point x="483" y="1303" type="line"/>
      <point x="205" y="0" type="line"/>
    </contour>
  </outline>
</glyph>
<glyph name="C" format="1">
  <advance width="1018"/>
  <unicode hex="0043"/>
  <outline>
    <contour>
      <point x="1024" y="369" type="line"/>
      <point x="928" y="240"/>
      <point x="786" y="164"/>
      <point x="625" y="164" type="curve" smooth="yes"/>
      <point x="426" y="164"/>
      <point x="379" y="295"/>
      <point x="379" y="483" type="curve" smooth="yes"/>
      <point x="379" y="901"/>
      <point x="578" y="1440"/>
      <point x="805" y="1440" type="curve" smooth="yes"/>
      <point x="897" y="1440"/>
      <point x="930" y="1380"/>
      <point x="930" y="1315" type="curve" smooth="yes"/>
      <point x="930" y="1235"/>
      <point x="885" y="1151"/>
      <point x="836" y="1126" type="curve"/>
      <point x="874" y="1079"/>
      <point x="920" y="1073"/>
      <point x="952" y="1073" type="curve" smooth="yes"/>
      <point x="1057" y="1073"/>
      <point x="1096" y="1153"/>
      <point x="1096" y="1262" type="curve" smooth="yes"/>
      <point x="1096" y="1458"/>
      <point x="944" y="1536"/>
      <point x="754" y="1536" type="curve" smooth="yes"/>
      <point x="217" y="1536"/>
      <point x="39" y="842"/>
      <point x="39" y="471" type="curve" smooth="yes"/>
      <point x="39" y="102"/>
      <point x="184" y="-33"/>
      <point x="487" y="-33" type="curve" smooth="yes"/>
      <point x="676" y="-33"/>
      <point x="961" y="74"/>
      <point x="1071" y="348" type="curve"/>
    </contour>
  </outline>
</glyph>
<glyph name="F" format="1">
  <advance width="940"/>
  <unicode hex="0046"/>
  <outline>
    <contour>
      <point x="475" y="0" type="line"/>
      <point x="641" y="770" type="line"/>
      <point x="940" y="770" type="line"/>
      <point x="973" y="922" type="line"/>
      <point x="674" y="922" type="line"/>
      <point x="760" y="1329" type="line"/>
      <point x="856" y="1307"/>
      <point x="950" y="1290"/>
      <point x="1047" y="1290" type="curve"/>
      <point x="1204" y="1323"/>
      <point x="1214" y="1452"/>
      <point x="1241" y="1536" type="curve"/>
      <point x="1184" y="1518"/>
      <point x="1120" y="1511"/>
      <point x="1057" y="1511" type="curve" smooth="yes"/>
      <point x="926" y="1511"/>
      <point x="799" y="1536"/>
      <point x="717" y="1536" type="curve" smooth="yes"/>
      <point x="211" y="1536"/>
      <point x="18" y="1276"/>
      <point x="18" y="1004" type="curve" smooth="yes"/>
      <point x="18" y="856"/>
      <point x="96" y="805"/>
      <point x="238" y="805" type="curve"/>
      <point x="238" y="821"/>
      <point x="209" y="840"/>
      <point x="209" y="944" type="curve" smooth="yes"/>
      <point x="209" y="1272"/>
      <point x="317" y="1362"/>
      <point x="475" y="1368" type="curve"/>
      <point x="180" y="0" type="line"/>
    </contour>
  </outline>
</glyph>
<glyph name="H" format="1">
  <advance width="1362"/>
  <unicode hex="0048"/>
  <outline>
    <contour>
      <point x="1096" y="0" type="line"/>
      <point x="1421" y="1532" type="line"/>
      <point x="1126" y="1532" type="line"/>
      <point x="995" y="922" type="line"/>
      <point x="694" y="922" type="line"/>
      <point x="825" y="1532" type="line"/>
      <point x="799" y="1534"/>
      <point x="774" y="1536"/>
      <point x="743" y="1536" type="curve" smooth="yes"/>
      <point x="401" y="1536"/>
      <point x="25" y="1276"/>
      <point x="25" y="1004" type="curve" smooth="yes"/>
      <point x="25" y="856"/>
      <point x="102" y="805"/>
      <point x="244" y="805" type="curve"/>
      <point x="244" y="821"/>
      <point x="215" y="840"/>
      <point x="215" y="944" type="curve" smooth="yes"/>
      <point x="215" y="1163"/>
      <point x="322" y="1317"/>
      <point x="502" y="1393" type="curve"/>
      <point x="205" y="0" type="line"/>
      <point x="500" y="0" type="line"/>
      <point x="664" y="770" type="line"/>
      <point x="965" y="770" type="line"/>
      <point x="801" y="0" type="line"/>
    </contour>
  </outline>
</glyph>
<glyph name="K" format="1">
  <advance width="1231"/>
  <unicode hex="004B"/>
  <outline>
    <contour>
      <point x="487" y="0" type="line"/>
      <point x="651" y="772" type="line"/>
      <point x="676" y="778"/>
      <point x="700" y="780"/>
      <point x="719" y="780" type="curve" smooth="yes"/>
      <point x="811" y="780"/>
      <point x="842" y="723"/>
      <point x="842" y="641" type="curve" smooth="yes"/>
      <point x="842" y="485"/>
      <point x="733" y="240"/>
      <point x="733" y="102" type="curve" smooth="yes"/>
      <point x="733" y="37"/>
      <point x="760" y="-35"/>
      <point x="893" y="-35" type="curve" smooth="yes"/>
      <point x="942" y="-35"/>
      <point x="1008" y="-25"/>
      <point x="1096" y="0" type="curve"/>
      <point x="1047" y="18"/>
      <point x="1016" y="72"/>
      <point x="1016" y="135" type="curve" smooth="yes"/>
      <point x="1016" y="266"/>
      <point x="1116" y="483"/>
      <point x="1116" y="653" type="curve" smooth="yes"/>
      <point x="1116" y="778"/>
      <point x="1061" y="872"/>
      <point x="862" y="872" type="curve" smooth="yes"/>
      <point x="840" y="872"/>
      <point x="817" y="870"/>
      <point x="791" y="870" type="curve"/>
      <point x="1360" y="1526" type="line"/>
      <point x="1145" y="1526" type="line"/>
      <point x="1143" y="1528"/>
      <point x="811" y="1079"/>
      <point x="680" y="905" type="curve"/>
      <point x="813" y="1532" type="line"/>
      <point x="786" y="1534"/>
      <point x="762" y="1536"/>
      <point x="731" y="1536" type="curve" smooth="yes"/>
      <point x="389" y="1536"/>
      <point x="12" y="1276"/>
      <point x="12" y="1004" type="curve" smooth="yes"/>
      <point x="12" y="856"/>
      <point x="90" y="805"/>
      <point x="231" y="805" type="curve"/>
      <point x="231" y="821"/>
      <point x="203" y="840"/>
      <point x="203" y="944" type="curve" smooth="yes"/>
      <point x="203" y="1163"/>
      <point x="309" y="1317"/>
      <point x="489" y="1393" type="curve"/>
      <point x="193" y="0" type="line"/>
    </contour>
  </outline>
</glyph>
<glyph name="Q" format="1">
  <advance width="1362"/>
  <unicode hex="0051"/>
  <outline>
    <contour>
      <point x="1253" y="-55" type="curve"/>
      <point x="1237" y="-57"/>
      <point x="1223" y="-59"/>
      <point x="1208" y="-59" type="curve" smooth="yes"/>
      <point x="1079" y="-59"/>
      <point x="1012" y="18"/>
      <point x="952" y="106" type="curve"/>
      <point x="1225" y="309"/>
      <point x="1343" y="725"/>
      <point x="1343" y="1012" type="curve" smooth="yes"/>
      <point x="1343" y="1317"/>
      <point x="1217" y="1536"/>
      <point x="858" y="1536" type="curve" smooth="yes"/>
      <point x="426" y="1536"/>
      <point x="33" y="1264"/>
      <point x="33" y="977" type="curve" smooth="yes"/>
      <point x="33" y="852"/>
      <point x="109" y="805"/>
      <point x="240" y="805" type="curve"/>
      <point x="240" y="821"/>
      <point x="219" y="836"/>
      <point x="219" y="915" type="curve" smooth="yes"/>
      <point x="219" y="1241"/>
      <point x="496" y="1442"/>
      <point x="809" y="1442" type="curve" smooth="yes"/>
      <point x="1024" y="1442"/>
      <point x="1071" y="1321"/>
      <point x="1071" y="1083" type="curve" smooth="yes"/>
      <point x="1071" y="788"/>
      <point x="956" y="442"/>
      <point x="819" y="266" type="curve"/>
      <point x="776" y="299"/>
      <point x="727" y="322"/>
      <point x="655" y="322" type="curve" smooth="yes"/>
      <point x="621" y="322"/>
      <point x="578" y="315"/>
      <point x="528" y="303" type="curve"/>
      <point x="522" y="330"/>
      <point x="524" y="358"/>
      <point x="524" y="391" type="curve" smooth="yes"/>
      <point x="524" y="707"/>
      <point x="696" y="1231"/>
      <point x="883" y="1343" type="curve"/>
      <point x="844" y="1358"/>
      <point x="811" y="1360"/>
      <point x="776" y="1360" type="curve" smooth="yes"/>
      <point x="408" y="1360"/>
      <point x="221" y="731"/>
      <point x="221" y="399" type="curve" smooth="yes"/>
      <point x="221" y="100"/>
      <point x="373" y="-12"/>
      <point x="588" y="-12" type="curve" smooth="yes"/>
      <point x="655" y="-12"/>
      <point x="719" y="-2"/>
      <point x="778" y="16" type="curve"/>
      <point x="817" y="-104"/>
      <point x="860" y="-231"/>
      <point x="1042" y="-231" type="curve" smooth="yes"/>
      <point x="1130" y="-231"/>
      <point x="1198" y="-197"/>
    </contour>
    <contour>
      <point x="721" y="176" type="curve"/>
      <point x="696" y="160"/>
      <point x="668" y="154"/>
      <point x="643" y="154" type="curve" smooth="yes"/>
      <point x="596" y="154"/>
      <point x="563" y="182"/>
      <point x="545" y="238" type="curve"/>
      <point x="565" y="244"/>
      <point x="586" y="246"/>
      <point x="604" y="246" type="curve" smooth="yes"/>
      <point x="662" y="246"/>
      <point x="696" y="217"/>
    </contour>
  </outline>
</glyph>
<glyph name="U" format="1">
  <advance width="1466"/>
  <unicode hex="0055"/>
  <outline>
    <contour>
      <point x="1272" y="1540" type="line"/>
      <point x="1068" y="594" type="line" smooth="yes"/>
      <point x="1007" y="311"/>
      <point x="901" y="172"/>
      <point x="750" y="172" type="curve" smooth="yes"/>
      <point x="644" y="172"/>
      <point x="590" y="238"/>
      <point x="590" y="367" type="curve" smooth="yes"/>
      <point x="590" y="426"/>
      <point x="603" y="504"/>
      <point x="625" y="588" type="curve" smooth="yes"/>
      <point x="875" y="1534" type="line"/>
      <point x="838" y="1542"/>
      <point x="806" y="1544"/>
      <point x="760" y="1544" type="curve" smooth="yes"/>
      <point x="355" y="1544"/>
      <point x="-10" y="1292"/>
      <point x="-10" y="1019" type="curve" smooth="yes"/>
      <point x="-10" y="879"/>
      <point x="81" y="800"/>
      <point x="236" y="800" type="curve"/>
      <point x="200" y="862"/>
      <point x="183" y="930"/>
      <point x="183" y="996" type="curve" smooth="yes"/>
      <point x="183" y="1180"/>
      <point x="314" y="1360"/>
      <point x="556" y="1425" type="curve"/>
      <point x="347" y="594" type="line" smooth="yes"/>
      <point x="328" y="518"/>
      <point x="318" y="446"/>
      <point x="318" y="379" type="curve" smooth="yes"/>
      <point x="318" y="121"/>
      <point x="457" y="-14"/>
      <point x="728" y="-14" type="curve" smooth="yes"/>
      <point x="1059" y="-14"/>
      <point x="1274" y="193"/>
      <point x="1361" y="594" type="curve"/>
      <point x="1561" y="1540" type="line"/>
    </contour>
  </outline>
</glyph>
<glyph name="X" format="1">
  <advance width="1270"/>
  <unicode hex="0058"/>
  <outline>
    <contour>
      <point x="1130" y="0" type="line"/>
      <point x="938" y="930" type="line"/>
      <point x="1282" y="1526" type="line"/>
      <point x="1139" y="1526" type="line"/>
      <point x="901" y="1106" type="line"/>
      <point x="813" y="1532" type="line"/>
      <point x="786" y="1534"/>
      <point x="762" y="1536"/>
      <point x="731" y="1536" type="curve" smooth="yes"/>
      <point x="389" y="1536"/>
      <point x="12" y="1276"/>
      <point x="12" y="1004" type="curve" smooth="yes"/>
      <point x="12" y="856"/>
      <point x="90" y="805"/>
      <point x="231" y="805" type="curve"/>
      <point x="231" y="821"/>
      <point x="203" y="840"/>
      <point x="203" y="944" type="curve" smooth="yes"/>
      <point x="203" y="1171"/>
      <point x="317" y="1327"/>
      <point x="508" y="1399" type="curve"/>
      <point x="659" y="680" type="line"/>
      <point x="274" y="0" type="line"/>
      <point x="399" y="0" type="line"/>
      <point x="696" y="512" type="line"/>
      <point x="805" y="0" type="line"/>
    </contour>
  </outline>
</glyph>
<glyph name="bracketleft" format="1">
  <advance width="819"/>
  <unicode hex="005B"/>
  <outline>
    <contour>
      <point x="446" y="-375" type="line"/>
      <point x="219" y="-375" type="line"/>
      <point x="602" y="1423" type="line"/>
      <point x="829" y="1423" type="line"/>
      <point x="852" y="1540" type="line"/>
      <point x="415" y="1540" type="line"/>
      <point x="-15" y="-492" type="line"/>
      <point x="422" y="-492" type="line"/>
    </contour>
  </outline>
</glyph>
<glyph name="backslash" format="1">
  <advance width="741"/>
  <unicode hex="005C"/>
  <outline>
    <contour>
      <point x="668" y="-512" type="line"/>
      <point x="233" y="1536" type="line"/>
      <point x="86" y="1536" type="line"/>
      <point x="520" y="-512" type="line"/>
    </contour>
  </outline>
</glyph>
<glyph name="bracketright" format="1">
  <advance width="819"/>
  <unicode hex="005D"/>
  <outline>
    <contour>
      <point x="284" y="1423" type="line"/>
      <point x="511" y="1423" type="line"/>
      <point x="128" y="-375" type="line"/>
      <point x="-99" y="-375" type="line"/>
      <point x="-122" y="-492" type="line"/>
      <point x="315" y="-492" type="line"/>
      <point x="745" y="1540" type="line"/>
      <point x="308" y="1540" type="line"/>
    </contour>
  </outline>
</glyph>
<glyph name="asciicircum" format="1">
  <advance width="862"/>
  <unicode hex="005E"/>
  <outline>
    <contour>
      <point x="702" y="1149" type="line"/>
      <point x="580" y="1536" type="line"/>
      <point x="537" y="1536" type="line"/>
      <point x="102" y="1149" type="line"/>
      <point x="193" y="1149" type="line"/>
      <point x="514" y="1313" type="line"/>
      <point x="637" y="1149" type="line"/>
    </contour>
  </outline>
</glyph>
<glyph name="underscore" format="1">
  <advance width="909"/>
  <unicode hex="005F"/>
  <outline>
    <contour>
      <point x="793" y="0" type="line"/>
      <point x="827" y="162" type="line"/>
      <point x="111" y="162" type="line"/>
      <point x="74" y="0" type="line"/>
    </contour>
  </outline>
</glyph>
<glyph name="b" format="1">
  <advance width="909"/>
  <unicode hex="0062"/>
  <outline>
    <contour>
      <point x="0" y="367" type="line"/>
      <point x="-10" y="328"/>
      <point x="-14" y="289"/>
      <point x="-14" y="250" type="curve" smooth="yes"/>
      <point x="-14" y="86"/>
      <point x="84" y="-12"/>
      <point x="272" y="-12" type="curve" smooth="yes"/>
      <point x="707" y="-12"/>
      <point x="834" y="440"/>
      <point x="834" y="680" type="curve" smooth="yes"/>
      <point x="834" y="940"/>
      <point x="735" y="1030"/>
      <point x="592" y="1030" type="curve" smooth="yes"/>
      <point x="551" y="1030"/>
      <point x="508" y="1024"/>
      <point x="424" y="973" type="curve"/>
      <point x="522" y="1434" type="line"/>
      <point x="219" y="1393" type="line"/>
    </contour>
    <contour>
      <point x="397" y="848" type="line"/>
      <point x="420" y="877"/>
      <point x="489" y="885"/>
      <point x="518" y="885" type="curve" smooth="yes"/>
      <point x="592" y="885"/>
      <point x="627" y="788"/>
      <point x="627" y="688" type="curve" smooth="yes"/>
      <point x="627" y="473"/>
      <point x="520" y="186"/>
      <point x="387" y="186" type="curve" smooth="yes"/>
      <point x="315" y="186"/>
      <point x="279" y="217"/>
      <point x="279" y="281" type="curve" smooth="yes"/>
      <point x="279" y="295"/>
      <point x="281" y="311"/>
      <point x="285" y="328" type="curve" smooth="yes"/>
    </contour>
  </outline>
</glyph>
<glyph name="d" format="1">
  <advance width="1075"/>
  <unicode hex="0064"/>
  <outline>
    <contour>
      <point x="1075" y="367" type="line"/>
      <point x="1044" y="262"/>
      <point x="989" y="186"/>
      <point x="909" y="186" type="curve" smooth="yes"/>
      <point x="852" y="186"/>
      <point x="825" y="205"/>
      <point x="825" y="262" type="curve" smooth="yes"/>
      <point x="825" y="283"/>
      <point x="827" y="305"/>
      <point x="834" y="328" type="curve"/>
      <point x="1069" y="1434" type="line"/>
      <point x="766" y="1393" type="line"/>
      <point x="666" y="922" type="line"/>
      <point x="666" y="930" type="line" smooth="yes"/>
      <point x="666" y="989"/>
      <point x="616" y="1034"/>
      <point x="500" y="1034" type="curve" smooth="yes"/>
      <point x="143" y="1034"/>
      <point x="-27" y="596"/>
      <point x="-27" y="317" type="curve" smooth="yes"/>
      <point x="-27" y="74"/>
      <point x="106" y="-12"/>
      <point x="246" y="-12" type="curve" smooth="yes"/>
      <point x="391" y="-12"/>
      <point x="489" y="84"/>
      <point x="549" y="176" type="curve"/>
      <point x="565" y="61"/>
      <point x="637" y="0"/>
      <point x="750" y="0" type="curve" smooth="yes"/>
      <point x="858" y="0"/>
      <point x="1047" y="33"/>
      <point x="1161" y="367" type="curve"/>
    </contour>
    <contour>
      <point x="547" y="356" type="line"/>
      <point x="520" y="242"/>
      <point x="436" y="186"/>
      <point x="379" y="186" type="curve" smooth="yes"/>
      <point x="342" y="186"/>
      <point x="276" y="190"/>
      <point x="276" y="346" type="curve" smooth="yes"/>
      <point x="276" y="539"/>
      <point x="389" y="907"/>
      <point x="563" y="907" type="curve" smooth="yes"/>
      <point x="627" y="907"/>
      <point x="641" y="860"/>
      <point x="647" y="836" type="curve"/>
      <point x="547" y="367" type="line"/>
    </contour>
  </outline>
</glyph>
<glyph name="f" format="1">
  <advance width="547"/>
  <unicode hex="0066"/>
  <outline>
    <contour>
      <point x="-74" y="16" type="line"/>
      <point x="-268" y="-43"/>
      <point x="-426" y="-102"/>
      <point x="-426" y="-291" type="curve" smooth="yes"/>
      <point x="-426" y="-424"/>
      <point x="-307" y="-512"/>
      <point x="-184" y="-512" type="curve" smooth="yes"/>
      <point x="-51" y="-512"/>
      <point x="123" y="-457"/>
      <point x="182" y="-164" type="curve"/>
      <point x="418" y="942" type="line"/>
      <point x="569" y="942" type="line"/>
      <point x="584" y="1024" type="line"/>
      <point x="434" y="1024" type="line"/>
      <point x="469" y="1186" type="line"/>
      <point x="496" y="1323"/>
      <point x="569" y="1354"/>
      <point x="612" y="1354" type="curve" smooth="yes"/>
      <point x="653" y="1354"/>
      <point x="690" y="1331"/>
      <point x="690" y="1284" type="curve" smooth="yes"/>
      <point x="690" y="1266"/>
      <point x="688" y="1251"/>
      <point x="686" y="1229" type="curve"/>
      <point x="782" y="1229" type="line"/>
      <point x="786" y="1253"/>
      <point x="788" y="1282"/>
      <point x="788" y="1313" type="curve" smooth="yes"/>
      <point x="788" y="1446"/>
      <point x="670" y="1534"/>
      <point x="547" y="1534" type="curve" smooth="yes"/>
      <point x="414" y="1534"/>
      <point x="233" y="1479"/>
      <point x="174" y="1186" type="curve"/>
    </contour>
    <contour>
      <point x="-115" y="-170" type="line" smooth="yes"/>
      <point x="-141" y="-293"/>
      <point x="-188" y="-330"/>
      <point x="-231" y="-330" type="curve" smooth="yes"/>
      <point x="-279" y="-330"/>
      <point x="-313" y="-293"/>
      <point x="-313" y="-262" type="curve" smooth="yes"/>
      <point x="-313" y="-152"/>
      <point x="-217" y="-94"/>
      <point x="-88" y="-51" type="curve"/>
    </contour>
  </outline>
</glyph>
<glyph name="k" format="1">
  <advance width="1061"/>
  <unicode hex="006B"/>
  <outline>
    <contour>
      <point x="1061" y="367" type="line"/>
      <point x="1018" y="260"/>
      <point x="977" y="186"/>
      <point x="889" y="186" type="curve" smooth="yes"/>
      <point x="825" y="186"/>
      <point x="809" y="221"/>
      <point x="809" y="262" type="curve" smooth="yes"/>
      <point x="809" y="285"/>
      <point x="813" y="305"/>
      <point x="819" y="328" type="curve" smooth="yes"/>
      <point x="842" y="430" type="line" smooth="yes"/>
      <point x="848" y="457"/>
      <point x="850" y="483"/>
      <point x="850" y="508" type="curve" smooth="yes"/>
      <point x="850" y="639"/>
      <point x="778" y="748"/>
      <point x="625" y="748" type="curve" smooth="yes"/>
      <point x="602" y="748"/>
      <point x="580" y="745"/>
      <point x="557" y="739" type="curve"/>
      <point x="967" y="1024" type="line"/>
      <point x="764" y="1024" type="line"/>
      <point x="369" y="713" type="line"/>
      <point x="522" y="1434" type="line"/>
      <point x="219" y="1393" type="line"/>
      <point x="-78" y="0" type="line"/>
      <point x="217" y="0" type="line"/>
      <point x="324" y="506" type="line"/>
      <point x="381" y="553"/>
      <point x="428" y="582"/>
      <point x="475" y="582" type="curve" smooth="yes"/>
      <point x="530" y="582"/>
      <point x="549" y="543"/>
      <point x="549" y="483" type="curve" smooth="yes"/>
      <point x="549" y="461"/>
      <point x="547" y="434"/>
      <point x="541" y="408" type="curve" smooth="yes"/>
      <point x="524" y="328" type="line" smooth="yes"/>
      <point x="516" y="289"/>
      <point x="512" y="252"/>
      <point x="512" y="221" type="curve" smooth="yes"/>
      <point x="512" y="72"/>
      <point x="600" y="-12"/>
      <point x="770" y="-12" type="curve" smooth="yes"/>
      <point x="862" y="-12"/>
      <point x="1032" y="23"/>
      <point x="1147" y="367" type="curve"/>
    </contour>
  </outline>
</glyph>
<glyph name="o" format="1">
  <advance width="899"/>
  <unicode hex="006F"/>
  <outline>
    <contour>
      <point x="1133" y="834" type="line"/>
      <point x="1044" y="772"/>
      <point x="913" y="711"/>
      <point x="817" y="711" type="curve" smooth="yes"/>
      <point x="807" y="711"/>
      <point x="801" y="711"/>
      <point x="795" y="713" type="curve"/>
      <point x="795" y="715" type="line"/>
      <point x="795" y="934"/>
      <point x="707" y="1042"/>
      <point x="532" y="1042" type="curve" smooth="yes"/>
      <point x="113" y="1042"/>
      <point x="-29" y="553"/>
      <point x="-29" y="315" type="curve" smooth="yes"/>
      <point x="-29" y="80"/>
      <point x="109" y="-8"/>
      <point x="299" y="-8" type="curve" smooth="yes"/>
      <point x="551" y="-8"/>
      <point x="756" y="229"/>
      <point x="788" y="608" type="curve"/>
      <point x="938" y="633"/>
      <point x="1071" y="694"/>
      <point x="1151" y="778" type="curve"/>
    </contour>
    <contour>
      <point x="618" y="602" type="curve"/>
      <point x="586" y="362"/>
      <point x="481" y="176"/>
      <point x="381" y="176" type="curve" smooth="yes"/>
      <point x="303" y="176"/>
      <point x="276" y="207"/>
      <point x="276" y="342" type="curve" smooth="yes"/>
      <point x="276" y="545"/>
      <point x="403" y="918"/>
      <point x="549" y="918" type="curve" smooth="yes"/>
      <point x="604" y="918"/>
      <point x="621" y="887"/>
      <point x="627" y="799" type="curve"/>
      <point x="588" y="782"/>
      <point x="563" y="745"/>
      <point x="563" y="688" type="curve" smooth="yes"/>
      <point x="563" y="647"/>
      <point x="575" y="612"/>
    </contour>
  </outline>
</glyph>
<glyph name="q" format="1">
  <advance width="995"/>
  <unicode hex="0071"/>
  <outline>
    <contour>
      <point x="670" y="-438" type="line"/>
      <point x="981" y="1024" type="line"/>
      <point x="686" y="1024" type="line"/>
      <point x="666" y="926" type="line"/>
      <point x="666" y="930" type="line" smooth="yes"/>
      <point x="666" y="989"/>
      <point x="616" y="1034"/>
      <point x="500" y="1034" type="curve" smooth="yes"/>
      <point x="143" y="1034"/>
      <point x="-27" y="596"/>
      <point x="-27" y="317" type="curve" smooth="yes"/>
      <point x="-27" y="74"/>
      <point x="106" y="-12"/>
      <point x="246" y="-12" type="curve" smooth="yes"/>
      <point x="350" y="-12"/>
      <point x="430" y="37"/>
      <point x="489" y="100" type="curve"/>
      <point x="360" y="-512" type="line"/>
    </contour>
    <contour>
      <point x="539" y="332" type="line"/>
      <point x="506" y="236"/>
      <point x="434" y="186"/>
      <point x="379" y="186" type="curve" smooth="yes"/>
      <point x="342" y="186"/>
      <point x="276" y="190"/>
      <point x="276" y="346" type="curve" smooth="yes"/>
      <point x="276" y="539"/>
      <point x="389" y="907"/>
      <point x="563" y="907" type="curve" smooth="yes"/>
      <point x="623" y="907"/>
      <point x="641" y="862"/>
      <point x="647" y="838" type="curve"/>
    </contour>
  </outline>
</glyph>
<glyph name="v" format="1">
  <advance width="848"/>
  <unicode hex="0076"/>
  <outline>
    <contour>
      <point x="-8" y="328" type="line" smooth="yes"/>
      <point x="-16" y="289"/>
      <point x="-18" y="252"/>
      <point x="-18" y="229" type="curve" smooth="yes"/>
      <point x="-18" y="66"/>
      <point x="78" y="-12"/>
      <point x="233" y="-12" type="curve" smooth="yes"/>
      <point x="651" y="-12"/>
      <point x="817" y="559"/>
      <point x="817" y="887" type="curve" smooth="yes"/>
      <point x="817" y="977"/>
      <point x="786" y="1065"/>
      <point x="688" y="1065" type="curve" smooth="yes"/>
      <point x="600" y="1065"/>
      <point x="561" y="1018"/>
      <point x="561" y="954" type="curve" smooth="yes"/>
      <point x="561" y="907"/>
      <point x="586" y="850"/>
      <point x="635" y="850" type="curve" smooth="yes"/>
      <point x="651" y="850"/>
      <point x="694" y="856"/>
      <point x="700" y="870" type="curve"/>
      <point x="700" y="645"/>
      <point x="547" y="186"/>
      <point x="346" y="186" type="curve" smooth="yes"/>
      <point x="297" y="186"/>
      <point x="276" y="213"/>
      <point x="276" y="254" type="curve" smooth="yes"/>
      <point x="276" y="272"/>
      <point x="281" y="297"/>
      <point x="287" y="328" type="curve" smooth="yes"/>
      <point x="434" y="1024" type="line"/>
      <point x="139" y="1024" type="line"/>
    </contour>
  </outline>
</glyph>
<glyph name="x" format="1">
  <advance width="1069"/>
  <unicode hex="0078"/>
  <outline>
    <contour>
      <point x="1069" y="367" type="line"/>
      <point x="1038" y="262"/>
      <point x="965" y="186"/>
      <point x="885" y="186" type="curve" smooth="yes"/>
      <point x="813" y="186"/>
      <point x="774" y="231"/>
      <point x="758" y="365" type="curve" smooth="yes"/>
      <point x="739" y="508" type="line"/>
      <point x="930" y="715"/>
      <point x="1024" y="825"/>
      <point x="1024" y="954" type="curve" smooth="yes"/>
      <point x="1024" y="1044"/>
      <point x="985" y="1141"/>
      <point x="909" y="1141" type="curve" smooth="yes"/>
      <point x="836" y="1141"/>
      <point x="770" y="1112"/>
      <point x="770" y="1040" type="curve" smooth="yes"/>
      <point x="770" y="977"/>
      <point x="795" y="926"/>
      <point x="866" y="926" type="curve" smooth="yes"/>
      <point x="877" y="926"/>
      <point x="887" y="928"/>
      <point x="901" y="930" type="curve"/>
      <point x="895" y="854"/>
      <point x="838" y="764"/>
      <point x="723" y="635" type="curve"/>
      <point x="705" y="791" type="line"/>
      <point x="694" y="895"/>
      <point x="647" y="1034"/>
      <point x="483" y="1034" type="curve" smooth="yes"/>
      <point x="207" y="1034"/>
      <point x="66" y="670"/>
      <point x="0" y="367" type="curve"/>
      <point x="86" y="367" type="line"/>
      <point x="158" y="705"/>
      <point x="281" y="866"/>
      <point x="360" y="866" type="curve" smooth="yes"/>
      <point x="395" y="866"/>
      <point x="416" y="834"/>
      <point x="438" y="696" type="curve"/>
      <point x="471" y="467" type="line"/>
      <point x="57" y="0" type="line"/>
      <point x="205" y="0" type="line"/>
      <point x="487" y="344" type="line"/>
      <point x="528" y="92"/>
      <point x="614" y="-12"/>
      <point x="737" y="-12" type="curve" smooth="yes"/>
      <point x="856" y="-12"/>
      <point x="1047" y="49"/>
      <point x="1155" y="367" type="curve"/>
    </contour>
  </outline>
</glyph>
<glyph name="braceleft" format="1">
  <advance width="721"/>
  <unicode hex="007B"/>
  <outline>
    <contour>
      <point x="820" y="1540" type="line"/>
      <point x="732" y="1540" type="line" smooth="yes"/>
      <point x="435" y="1540"/>
      <point x="343" y="1372"/>
      <point x="320" y="823" type="curve"/>
      <point x="314" y="641"/>
      <point x="275" y="575"/>
      <point x="179" y="575" type="curve" smooth="yes"/>
      <point x="114" y="575" type="line"/>
      <point x="93" y="471" type="line"/>
      <point x="157" y="471" type="line" smooth="yes"/>
      <point x="220" y="471"/>
      <point x="241" y="453"/>
      <point x="241" y="397" type="curve" smooth="yes"/>
      <point x="241" y="225"/>
      <point x="95" y="-92"/>
      <point x="95" y="-268" type="curve" smooth="yes"/>
      <point x="95" y="-418"/>
      <point x="208" y="-512"/>
      <point x="388" y="-512" type="curve" smooth="yes"/>
      <point x="447" y="-512" type="line"/>
      <point x="466" y="-420" type="line"/>
      <point x="382" y="-410"/>
      <point x="335" y="-338"/>
      <point x="335" y="-219" type="curve" smooth="yes"/>
      <point x="335" y="-37"/>
      <point x="443" y="217"/>
      <point x="443" y="365" type="curve" smooth="yes"/>
      <point x="443" y="442"/>
      <point x="413" y="485"/>
      <point x="329" y="524" type="curve"/>
      <point x="476" y="586"/>
      <point x="521" y="641"/>
      <point x="533" y="780" type="curve"/>
      <point x="581" y="1372"/>
      <point x="607" y="1438"/>
      <point x="802" y="1438" type="curve"/>
    </contour>
  </outline>
</glyph>
<glyph name="braceright" format="1">
  <advance width="721"/>
  <unicode hex="007D"/>
  <outline>
    <contour>
      <point x="-134" y="-512" type="line"/>
      <point x="-46" y="-512" type="line" smooth="yes"/>
      <point x="251" y="-512"/>
      <point x="343" y="-344"/>
      <point x="366" y="205" type="curve"/>
      <point x="372" y="387"/>
      <point x="411" y="453"/>
      <point x="507" y="453" type="curve" smooth="yes"/>
      <point x="573" y="453" type="line"/>
      <point x="593" y="557" type="line"/>
      <point x="530" y="557" type="line" smooth="yes"/>
      <point x="466" y="557"/>
      <point x="446" y="575"/>
      <point x="446" y="631" type="curve" smooth="yes"/>
      <point x="446" y="803"/>
      <point x="591" y="1120"/>
      <point x="591" y="1296" type="curve" smooth="yes"/>
      <point x="591" y="1446"/>
      <point x="479" y="1540"/>
      <point x="298" y="1540" type="curve" smooth="yes"/>
      <point x="239" y="1540" type="line"/>
      <point x="220" y="1448" type="line"/>
      <point x="304" y="1438"/>
      <point x="352" y="1366"/>
      <point x="352" y="1247" type="curve" smooth="yes"/>
      <point x="352" y="1065"/>
      <point x="243" y="811"/>
      <point x="243" y="664" type="curve" smooth="yes"/>
      <point x="243" y="586"/>
      <point x="274" y="543"/>
      <point x="358" y="504" type="curve"/>
      <point x="210" y="442"/>
      <point x="165" y="387"/>
      <point x="153" y="248" type="curve"/>
      <point x="106" y="-344"/>
      <point x="79" y="-410"/>
      <point x="-115" y="-410" type="curve"/>
    </contour>
  </outline>
</glyph>
<glyph name="asciitilde" format="1">
  <advance width="883"/>
  <unicode hex="007E"/>
  <outline>
    <contour>
      <point x="909" y="1372" type="line"/>
      <point x="879" y="1341"/>
      <point x="831" y="1325"/>
      <point x="780" y="1325" type="curve" smooth="yes"/>
      <point x="662" y="1325"/>
      <point x="590" y="1393"/>
      <point x="442" y="1393" type="curve" smooth="yes"/>
      <point x="287" y="1393"/>
      <point x="166" y="1323"/>
      <point x="100" y="1192" type="curve"/>
      <point x="113" y="1188" type="line"/>
      <point x="152" y="1223"/>
      <point x="197" y="1241"/>
      <point x="248" y="1241" type="curve" smooth="yes"/>
      <point x="362" y="1241"/>
      <point x="455" y="1165"/>
      <point x="592" y="1165" type="curve" smooth="yes"/>
      <point x="748" y="1165"/>
      <point x="901" y="1274"/>
      <point x="922" y="1370" type="curve"/>
    </contour>
  </outline>
</glyph>
<glyph name="exclamdown" format="1">
  <advance width="449"/>
  <unicode hex="00A1"/>
  <outline>
    <contour>
      <point x="168" y="565" type="line"/>
      <point x="-129" y="-502" type="line"/>
      <point x="186" y="-459" type="line"/>
      <point x="342" y="565" type="line"/>
    </contour>
    <contour>
      <point x="151" y="886" type="curve"/>
      <point x="151" y="796"/>
      <point x="223" y="725"/>
      <point x="313" y="725" type="curve" smooth="yes"/>
      <point x="403" y="725"/>
      <point x="477" y="796"/>
      <point x="477" y="886" type="curve" smooth="yes"/>
      <point x="477" y="977"/>
      <point x="403" y="1050"/>
      <point x="313" y="1050" type="curve" smooth="yes"/>
      <point x="223" y="1050"/>
      <point x="151" y="977"/>
    </contour>
  </outline>
</glyph>
<glyph name="cent" format="1">
  <advance width="786"/>
  <unicode hex="00A2"/>
  <outline>
    <contour>
      <point x="322" y="-55" type="line"/>
      <point x="672" y="1470" type="line"/>
      <point x="567" y="1470" type="line"/>
      <point x="219" y="-55" type="line"/>
    </contour>
    <contour>
      <point x="637" y="928" type="curve"/>
      <point x="657" y="901"/>
      <point x="692" y="883"/>
      <point x="729" y="883" type="curve" smooth="yes"/>
      <point x="803" y="883"/>
      <point x="858" y="956"/>
      <point x="858" y="1051" type="curve" smooth="yes"/>
      <point x="858" y="1171"/>
      <point x="764" y="1245"/>
      <point x="606" y="1245" type="curve" smooth="yes"/>
      <point x="289" y="1245"/>
      <point x="16" y="948"/>
      <point x="16" y="600" type="curve" smooth="yes"/>
      <point x="16" y="344"/>
      <point x="162" y="193"/>
      <point x="408" y="193" type="curve" smooth="yes"/>
      <point x="584" y="193"/>
      <point x="698" y="270"/>
      <point x="698" y="391" type="curve" smooth="yes"/>
      <point x="698" y="416"/>
      <point x="694" y="440"/>
      <point x="682" y="471" type="curve"/>
      <point x="618" y="401"/>
      <point x="555" y="371"/>
      <point x="469" y="371" type="curve" smooth="yes"/>
      <point x="326" y="371"/>
      <point x="260" y="449"/>
      <point x="260" y="625" type="curve" smooth="yes"/>
      <point x="260" y="897"/>
      <point x="416" y="1137"/>
      <point x="594" y="1137" type="curve" smooth="yes"/>
      <point x="647" y="1137"/>
      <point x="672" y="1114"/>
      <point x="672" y="1061" type="curve" smooth="yes"/>
      <point x="672" y="1018"/>
      <point x="657" y="961"/>
    </contour>
  </outline>
</glyph>
<glyph name="sterling" format="1">
  <advance width="932"/>
  <unicode hex="00A3"/>
  <outline>
    <contour>
      <point x="338" y="268" type="line"/>
      <point x="418" y="311"/>
      <point x="459" y="371"/>
      <point x="477" y="459" type="curve" smooth="yes"/>
      <point x="633" y="1180" type="line" smooth="yes"/>
      <point x="674" y="1366"/>
      <point x="727" y="1454"/>
      <point x="797" y="1454" type="curve" smooth="yes"/>
      <point x="831" y="1454"/>
      <point x="854" y="1425"/>
      <point x="854" y="1368" type="curve" smooth="yes"/>
      <point x="854" y="1323"/>
      <point x="834" y="1264"/>
      <point x="813" y="1233" type="curve"/>
      <point x="827" y="1204"/>
      <point x="862" y="1178"/>
      <point x="907" y="1178" type="curve" smooth="yes"/>
      <point x="1001" y="1178"/>
      <point x="1055" y="1260"/>
      <point x="1055" y="1356" type="curve" smooth="yes"/>
      <point x="1055" y="1491"/>
      <point x="950" y="1563"/>
      <point x="805" y="1563" type="curve" smooth="yes"/>
      <point x="588" y="1563"/>
      <point x="410" y="1419"/>
      <point x="358" y="1180" type="curve" smooth="yes"/>
      <point x="184" y="373" type="line" smooth="yes"/>
      <point x="156" y="240"/>
      <point x="90" y="131"/>
      <point x="27" y="94" type="curve"/>
      <point x="45" y="10" type="line"/>
      <point x="145" y="39"/>
      <point x="231" y="53"/>
      <point x="305" y="53" type="curve" smooth="yes"/>
      <point x="465" y="53"/>
      <point x="584" y="-12"/>
      <point x="719" y="-12" type="curve" smooth="yes"/>
      <point x="895" y="-12"/>
      <point x="1008" y="74"/>
      <point x="1008" y="209" type="curve" smooth="yes"/>
      <point x="1008" y="252"/>
      <point x="999" y="295"/>
      <point x="981" y="336" type="curve"/>
      <point x="975" y="338" type="line"/>
      <point x="911" y="262"/>
      <point x="854" y="231"/>
      <point x="772" y="231" type="curve" smooth="yes"/>
      <point x="659" y="231"/>
      <point x="575" y="276"/>
      <point x="463" y="276" type="curve" smooth="yes"/>
      <point x="420" y="276"/>
      <point x="387" y="276"/>
      <point x="344" y="260" type="curve"/>
    </contour>
    <contour>
      <point x="70" y="756" type="line"/>
      <point x="825" y="756" type="line"/>
      <point x="854" y="858" type="line"/>
      <point x="98" y="858" type="line"/>
    </contour>
  </outline>
</glyph>
<glyph name="currency" format="1">
  <advance width="1024"/>
  <unicode hex="00A4"/>
  <outline>
    <contour>
      <point x="815" y="336" type="line"/>
      <point x="889" y="410" type="line"/>
      <point x="776" y="522" type="line"/>
      <point x="817" y="578"/>
      <point x="838" y="641"/>
      <point x="838" y="709" type="curve" smooth="yes"/>
      <point x="838" y="778"/>
      <point x="817" y="842"/>
      <point x="776" y="897" type="curve"/>
      <point x="889" y="1010" type="line"/>
      <point x="815" y="1083" type="line"/>
      <point x="700" y="969" type="line"/>
      <point x="649" y="1008"/>
      <point x="586" y="1028"/>
      <point x="518" y="1028" type="curve" smooth="yes"/>
      <point x="451" y="1028"/>
      <point x="387" y="1008"/>
      <point x="332" y="967" type="curve"/>
      <point x="217" y="1081" type="line"/>
      <point x="139" y="1008" type="line"/>
      <point x="256" y="891" type="line"/>
      <point x="217" y="840"/>
      <point x="197" y="778"/>
      <point x="197" y="707" type="curve" smooth="yes"/>
      <point x="197" y="639"/>
      <point x="217" y="575"/>
      <point x="256" y="524" type="curve"/>
      <point x="141" y="410" type="line"/>
      <point x="215" y="336" type="line"/>
      <point x="330" y="451" type="line"/>
      <point x="385" y="410"/>
      <point x="449" y="389"/>
      <point x="518" y="389" type="curve" smooth="yes"/>
      <point x="590" y="389"/>
      <point x="651" y="410"/>
      <point x="702" y="449" type="curve"/>
    </contour>
    <contour>
      <point x="723" y="709" type="curve" smooth="yes"/>
      <point x="723" y="594"/>
      <point x="633" y="504"/>
      <point x="518" y="504" type="curve" smooth="yes"/>
      <point x="403" y="504"/>
      <point x="313" y="594"/>
      <point x="313" y="709" type="curve" smooth="yes"/>
      <point x="313" y="823"/>
      <point x="403" y="913"/>
      <point x="518" y="913" type="curve" smooth="yes"/>
      <point x="633" y="913"/>
      <point x="723" y="823"/>
    </contour>
  </outline>
</glyph>
<glyph name="yen" format="1">
  <advance width="1143"/>
  <unicode hex="00A5"/>
  <outline>
    <contour>
      <point x="776" y="629" type="line"/>
      <point x="1178" y="1536" type="line"/>
      <point x="1042" y="1536" type="line"/>
      <point x="735" y="797" type="line"/>
      <point x="555" y="1536" type="line"/>
      <point x="219" y="1536" type="line"/>
      <point x="449" y="629" type="line"/>
      <point x="252" y="629" type="line"/>
      <point x="223" y="526" type="line"/>
      <point x="426" y="526" type="line"/>
      <point x="397" y="393" type="line"/>
      <point x="201" y="393" type="line"/>
      <point x="172" y="291" type="line"/>
      <point x="375" y="291" type="line"/>
      <point x="313" y="0" type="line"/>
      <point x="641" y="0" type="line"/>
      <point x="702" y="291" type="line"/>
      <point x="965" y="291" type="line"/>
      <point x="993" y="393" type="line"/>
      <point x="725" y="393" type="line"/>
      <point x="754" y="526" type="line"/>
      <point x="1016" y="526" type="line"/>
      <point x="1044" y="629" type="line"/>
    </contour>
  </outline>
</glyph>
<glyph name="section" format="1">
  <advance width="1110"/>
  <unicode hex="00A7"/>
  <outline>
    <contour>
      <point x="799" y="279" type="line"/>
      <point x="952" y="311"/>
      <point x="1036" y="463"/>
      <point x="1036" y="621" type="curve" smooth="yes"/>
      <point x="1036" y="958"/>
      <point x="631" y="987"/>
      <point x="631" y="1241" type="curve" smooth="yes"/>
      <point x="631" y="1356"/>
      <point x="713" y="1460"/>
      <point x="823" y="1460" type="curve" smooth="yes"/>
      <point x="903" y="1460"/>
      <point x="938" y="1407"/>
      <point x="938" y="1350" type="curve" smooth="yes"/>
      <point x="938" y="1294"/>
      <point x="911" y="1235"/>
      <point x="864" y="1208" type="curve"/>
      <point x="889" y="1182"/>
      <point x="915" y="1176"/>
      <point x="940" y="1176" type="curve" smooth="yes"/>
      <point x="1024" y="1176"/>
      <point x="1075" y="1245"/>
      <point x="1075" y="1341" type="curve" smooth="yes"/>
      <point x="1075" y="1522"/>
      <point x="885" y="1536"/>
      <point x="809" y="1536" type="curve" smooth="yes"/>
      <point x="602" y="1536"/>
      <point x="375" y="1425"/>
      <point x="375" y="1182" type="curve" smooth="yes"/>
      <point x="375" y="1155"/>
      <point x="379" y="1126"/>
      <point x="385" y="1096" type="curve"/>
      <point x="262" y="1049"/>
      <point x="172" y="946"/>
      <point x="172" y="815" type="curve" smooth="yes"/>
      <point x="172" y="551"/>
      <point x="541" y="524"/>
      <point x="541" y="190" type="curve" smooth="yes"/>
      <point x="541" y="51"/>
      <point x="477" y="-8"/>
      <point x="377" y="-8" type="curve" smooth="yes"/>
      <point x="254" y="-8"/>
      <point x="209" y="45"/>
      <point x="209" y="152" type="curve" smooth="yes"/>
      <point x="209" y="256"/>
      <point x="252" y="297"/>
      <point x="375" y="307" type="curve"/>
      <point x="340" y="354"/>
      <point x="295" y="410"/>
      <point x="213" y="410" type="curve" smooth="yes"/>
      <point x="100" y="410"/>
      <point x="16" y="307"/>
      <point x="16" y="158" type="curve" smooth="yes"/>
      <point x="16" y="-82"/>
      <point x="233" y="-111"/>
      <point x="354" y="-111" type="curve" smooth="yes"/>
      <point x="635" y="-111"/>
      <point x="799" y="37"/>
      <point x="799" y="272" type="curve" smooth="yes"/>
    </contour>
    <contour>
      <point x="786" y="375" type="curve"/>
      <point x="721" y="662"/>
      <point x="389" y="754"/>
      <point x="389" y="924" type="curve" smooth="yes"/>
      <point x="389" y="963"/>
      <point x="406" y="981"/>
      <point x="428" y="995" type="curve"/>
      <point x="549" y="809"/>
      <point x="825" y="741"/>
      <point x="825" y="504" type="curve" smooth="yes"/>
      <point x="825" y="451"/>
      <point x="813" y="408"/>
    </contour>
  </outline>
</glyph>
<glyph name="copyright" format="1">
  <advance width="1202"/>
  <unicode hex="00A9"/>
  <outline>
    <contour>
      <point x="772" y="571" type="line"/>
      <point x="741" y="514"/>
      <point x="682" y="479"/>
      <point x="618" y="479" type="curve" smooth="yes"/>
      <point x="510" y="479"/>
      <point x="424" y="575"/>
      <point x="424" y="698" type="curve" smooth="yes"/>
      <point x="424" y="823"/>
      <point x="514" y="885"/>
      <point x="618" y="885" type="curve" smooth="yes"/>
      <point x="735" y="885"/>
      <point x="756" y="809"/>
      <point x="772" y="760" type="curve"/>
      <point x="868" y="797" type="line"/>
      <point x="842" y="905"/>
      <point x="743" y="985"/>
      <point x="614" y="991" type="curve"/>
      <point x="449" y="991"/>
      <point x="311" y="862"/>
      <point x="311" y="688" type="curve" smooth="yes"/>
      <point x="311" y="518"/>
      <point x="444" y="373"/>
      <point x="610" y="373" type="curve" smooth="yes"/>
      <point x="711" y="373"/>
      <point x="805" y="424"/>
      <point x="862" y="512" type="curve"/>
    </contour>
    <contour>
      <point x="600" y="156" type="curve" smooth="yes"/>
      <point x="868" y="156"/>
      <point x="1096" y="387"/>
      <point x="1096" y="680" type="curve" smooth="yes"/>
      <point x="1096" y="975"/>
      <point x="868" y="1202"/>
      <point x="600" y="1202" type="curve" smooth="yes"/>
      <point x="328" y="1202"/>
      <point x="104" y="971"/>
      <point x="104" y="678" type="curve" smooth="yes"/>
      <point x="104" y="389"/>
      <point x="328" y="156"/>
    </contour>
    <contour>
      <point x="604" y="242" type="curve" smooth="yes"/>
      <point x="381" y="242"/>
      <point x="199" y="432"/>
      <point x="199" y="678" type="curve" smooth="yes"/>
      <point x="199" y="924"/>
      <point x="381" y="1114"/>
      <point x="604" y="1114" type="curve" smooth="yes"/>
      <point x="825" y="1114"/>
      <point x="1008" y="924"/>
      <point x="1008" y="678" type="curve" smooth="yes"/>
      <point x="1008" y="432"/>
      <point x="825" y="242"/>
    </contour>
  </outline>
</glyph>
<glyph name="ordfeminine" format="1">
  <advance width="707"/>
  <unicode hex="00AA"/>
  <outline>
    <contour>
      <point x="655" y="1516" type="line"/>
      <point x="485" y="1516" type="line"/>
      <point x="479" y="1485" type="line"/>
      <point x="457" y="1501"/>
      <point x="426" y="1513"/>
      <point x="399" y="1513" type="curve" smooth="yes"/>
      <point x="162" y="1513"/>
      <point x="88" y="1284"/>
      <point x="88" y="1096" type="curve" smooth="yes"/>
      <point x="88" y="1030"/>
      <point x="121" y="956"/>
      <point x="233" y="956" type="curve" smooth="yes"/>
      <point x="305" y="956"/>
      <point x="356" y="997"/>
      <point x="395" y="1044" type="curve"/>
      <point x="410" y="995"/>
      <point x="442" y="963"/>
      <point x="514" y="963" type="curve" smooth="yes"/>
      <point x="555" y="963"/>
      <point x="604" y="969"/>
      <point x="637" y="1065" type="curve"/>
      <point x="627" y="1059"/>
      <point x="614" y="1061"/>
      <point x="606" y="1061" type="curve" smooth="yes"/>
      <point x="573" y="1061"/>
      <point x="563" y="1079"/>
      <point x="563" y="1102" type="curve" smooth="yes"/>
      <point x="563" y="1116"/>
      <point x="567" y="1124"/>
      <point x="569" y="1139" type="curve" smooth="yes"/>
    </contour>
    <contour>
      <point x="391" y="1102" type="line"/>
      <point x="369" y="1071"/>
      <point x="344" y="1049"/>
      <point x="317" y="1049" type="curve" smooth="yes"/>
      <point x="287" y="1049"/>
      <point x="248" y="1061"/>
      <point x="248" y="1126" type="curve" smooth="yes"/>
      <point x="248" y="1276"/>
      <point x="317" y="1452"/>
      <point x="408" y="1452" type="curve" smooth="yes"/>
      <point x="426" y="1452"/>
      <point x="449" y="1448"/>
      <point x="467" y="1432" type="curve"/>
      <point x="399" y="1139" type="line"/>
    </contour>
  </outline>
</glyph>
<glyph name="guillemotleft" format="1">
  <advance width="1206"/>
  <unicode hex="00AB"/>
  <outline>
    <contour>
      <point x="547" y="207" type="line"/>
      <point x="571" y="324" type="line"/>
      <point x="174" y="520" type="line"/>
      <point x="668" y="766" type="line"/>
      <point x="688" y="879" type="line"/>
      <point x="59" y="571" type="line"/>
      <point x="41" y="487" type="line"/>
    </contour>
    <contour>
      <point x="977" y="207" type="line"/>
      <point x="1001" y="324" type="line"/>
      <point x="604" y="520" type="line"/>
      <point x="1098" y="766" type="line"/>
      <point x="1118" y="879" type="line"/>
      <point x="489" y="571" type="line"/>
      <point x="471" y="487" type="line"/>
    </contour>
  </outline>
</glyph>
<glyph name="logicalnot" format="1">
  <advance width="909"/>
  <unicode hex="00AC"/>
  <outline>
    <contour>
      <point x="713" y="104" type="line"/>
      <point x="817" y="616" type="line"/>
      <point x="76" y="616" type="line"/>
      <point x="39" y="455" type="line"/>
      <point x="553" y="455" type="line"/>
      <point x="481" y="104" type="line"/>
    </contour>
  </outline>
</glyph>
<glyph name="registered" format="1">
  <advance width="1133"/>
  <unicode hex="00AE"/>
  <outline>
    <contour>
      <point x="565" y="162" type="curve" smooth="yes"/>
      <point x="834" y="162"/>
      <point x="1061" y="393"/>
      <point x="1061" y="686" type="curve" smooth="yes"/>
      <point x="1061" y="981"/>
      <point x="834" y="1208"/>
      <point x="565" y="1208" type="curve" smooth="yes"/>
      <point x="293" y="1208"/>
      <point x="70" y="977"/>
      <point x="70" y="684" type="curve" smooth="yes"/>
      <point x="70" y="395"/>
      <point x="293" y="162"/>
    </contour>
    <contour>
      <point x="569" y="248" type="curve" smooth="yes"/>
      <point x="346" y="248"/>
      <point x="164" y="438"/>
      <point x="164" y="684" type="curve" smooth="yes"/>
      <point x="164" y="930"/>
      <point x="346" y="1120"/>
      <point x="569" y="1120" type="curve" smooth="yes"/>
      <point x="791" y="1120"/>
      <point x="973" y="930"/>
      <point x="973" y="684" type="curve" smooth="yes"/>
      <point x="973" y="438"/>
      <point x="791" y="248"/>
    </contour>
    <contour>
      <point x="813" y="403" type="line"/>
      <point x="680" y="659" type="line"/>
      <point x="752" y="682"/>
      <point x="801" y="741"/>
      <point x="801" y="817" type="curve" smooth="yes"/>
      <point x="801" y="930"/>
      <point x="700" y="989"/>
      <point x="555" y="989" type="curve" smooth="yes"/>
      <point x="362" y="989" type="line"/>
      <point x="360" y="393" type="line"/>
      <point x="455" y="393" type="line"/>
      <point x="455" y="645" type="line"/>
      <point x="590" y="645" type="line"/>
      <point x="717" y="389" type="line"/>
    </contour>
    <contour>
      <point x="455" y="723" type="line"/>
      <point x="455" y="905" type="line"/>
      <point x="557" y="905" type="line" smooth="yes"/>
      <point x="623" y="905"/>
      <point x="707" y="885"/>
      <point x="707" y="813" type="curve" smooth="yes"/>
      <point x="707" y="737"/>
      <point x="621" y="723"/>
      <point x="561" y="723" type="curve" smooth="yes"/>
    </contour>
  </outline>
</glyph>
<glyph name="degree" format="1">
  <advance width="643"/>
  <unicode hex="00B0"/>
  <outline>
    <contour>
      <point x="272" y="766" type="curve" smooth="yes"/>
      <point x="469" y="766"/>
      <point x="575" y="1032"/>
      <point x="575" y="1206" type="curve" smooth="yes"/>
      <point x="575" y="1356"/>
      <point x="528" y="1438"/>
      <point x="408" y="1438" type="curve" smooth="yes"/>
      <point x="201" y="1438"/>
      <point x="76" y="1239"/>
      <point x="76" y="999" type="curve" smooth="yes"/>
      <point x="76" y="852"/>
      <point x="113" y="766"/>
    </contour>
    <contour>
      <point x="279" y="842" type="curve" smooth="yes"/>
      <point x="231" y="842"/>
      <point x="223" y="909"/>
      <point x="223" y="975" type="curve" smooth="yes"/>
      <point x="223" y="1008"/>
      <point x="225" y="1038"/>
      <point x="227" y="1063" type="curve" smooth="yes"/>
      <point x="244" y="1262"/>
      <point x="344" y="1366"/>
      <point x="401" y="1366" type="curve" smooth="yes"/>
      <point x="444" y="1366"/>
      <point x="453" y="1309"/>
      <point x="453" y="1237" type="curve" smooth="yes"/>
      <point x="453" y="1030"/>
      <point x="385" y="842"/>
    </contour>
  </outline>
</glyph>
<glyph name="plusminus" format="1">
  <advance width="981"/>
  <unicode hex="00B1"/>
  <outline>
    <contour>
      <point x="674" y="1237" type="line"/>
      <point x="510" y="1237" type="line"/>
      <point x="449" y="952" type="line"/>
      <point x="158" y="952" type="line"/>
      <point x="121" y="791" type="line"/>
      <point x="412" y="791" type="line"/>
      <point x="348" y="496" type="line"/>
      <point x="512" y="496" type="line"/>
      <point x="575" y="791" type="line"/>
      <point x="877" y="791" type="line"/>
      <point x="911" y="952" type="line"/>
      <point x="612" y="952" type="line"/>
    </contour>
    <contour>
      <point x="799" y="391" type="line"/>
      <point x="82" y="391" type="line"/>
      <point x="45" y="229" type="line"/>
      <point x="764" y="229" type="line"/>
    </contour>
  </outline>
</glyph>
<glyph name="threesuperior" format="1">
  <advance width="688"/>
  <unicode hex="00B3"/>
  <outline>
    <contour>
      <point x="326" y="1004" type="curve"/>
      <point x="305" y="1055"/>
      <point x="281" y="1073"/>
      <point x="242" y="1073" type="curve" smooth="yes"/>
      <point x="160" y="1073"/>
      <point x="102" y="1006"/>
      <point x="102" y="911" type="curve" smooth="yes"/>
      <point x="102" y="784"/>
      <point x="199" y="696"/>
      <point x="336" y="696" type="curve" smooth="yes"/>
      <point x="506" y="696"/>
      <point x="653" y="825"/>
      <point x="653" y="973" type="curve" smooth="yes"/>
      <point x="653" y="1073"/>
      <point x="586" y="1149"/>
      <point x="479" y="1171" type="curve"/>
      <point x="479" y="1180" type="line"/>
      <point x="594" y="1212"/>
      <point x="668" y="1288"/>
      <point x="668" y="1380" type="curve" smooth="yes"/>
      <point x="668" y="1485"/>
      <point x="575" y="1563"/>
      <point x="446" y="1563" type="curve" smooth="yes"/>
      <point x="313" y="1563"/>
      <point x="203" y="1479"/>
      <point x="203" y="1378" type="curve" smooth="yes"/>
      <point x="203" y="1317"/>
      <point x="244" y="1276"/>
      <point x="303" y="1276" type="curve" smooth="yes"/>
      <point x="332" y="1276"/>
      <point x="360" y="1290"/>
      <point x="391" y="1315" type="curve"/>
      <point x="389" y="1321" type="line"/>
      <point x="358" y="1335"/>
      <point x="342" y="1366"/>
      <point x="342" y="1409" type="curve" smooth="yes"/>
      <point x="342" y="1462"/>
      <point x="375" y="1503"/>
      <point x="422" y="1503" type="curve" smooth="yes"/>
      <point x="471" y="1503"/>
      <point x="502" y="1460"/>
      <point x="502" y="1393" type="curve" smooth="yes"/>
      <point x="502" y="1294"/>
      <point x="430" y="1212"/>
      <point x="319" y="1178" type="curve"/>
      <point x="319" y="1169" type="line"/>
      <point x="408" y="1157"/>
      <point x="459" y="1083"/>
      <point x="459" y="969" type="curve" smooth="yes"/>
      <point x="459" y="854"/>
      <point x="403" y="774"/>
      <point x="326" y="774" type="curve" smooth="yes"/>
      <point x="274" y="774"/>
      <point x="238" y="819"/>
      <point x="238" y="883" type="curve" smooth="yes"/>
      <point x="238" y="944"/>
      <point x="270" y="989"/>
    </contour>
  </outline>
</glyph>
<glyph name="acute" format="1">
  <advance width="647"/>
  <unicode hex="00B4"/>
  <outline>
    <contour>
      <point x="246" y="1149" type="line"/>
      <point x="358" y="1149" type="line"/>
      <point x="647" y="1536" type="line"/>
      <point x="432" y="1536" type="line"/>
    </contour>
  </outline>
</glyph>
<glyph name="mu" format="1">
  <advance width="1034"/>
  <unicode hex="00B5"/>
  <outline>
    <contour>
      <point x="1034" y="367" type="line"/>
      <point x="1004" y="262"/>
      <point x="948" y="186"/>
      <point x="868" y="186" type="curve" smooth="yes"/>
      <point x="811" y="186"/>
      <point x="784" y="205"/>
      <point x="784" y="262" type="curve" smooth="yes"/>
      <point x="784" y="283"/>
      <point x="786" y="305"/>
      <point x="793" y="328" type="curve"/>
      <point x="940" y="1024" type="line"/>
      <point x="645" y="1024" type="line"/>
      <point x="506" y="367" type="line"/>
      <point x="475" y="262"/>
      <point x="422" y="186"/>
      <point x="342" y="186" type="curve" smooth="yes"/>
      <point x="295" y="186"/>
      <point x="281" y="229"/>
      <point x="281" y="276" type="curve" smooth="yes"/>
      <point x="281" y="295"/>
      <point x="283" y="311"/>
      <point x="287" y="328" type="curve" smooth="yes"/>
      <point x="434" y="1024" type="line"/>
      <point x="139" y="1024" type="line"/>
      <point x="0" y="367" type="line"/>
      <point x="-6" y="336" type="line"/>
      <point x="-150" y="-340" type="line"/>
      <point x="160" y="-266" type="line"/>
      <point x="215" y="0" type="line"/>
      <point x="295" y="0"/>
      <point x="412" y="29"/>
      <point x="508" y="184" type="curve"/>
      <point x="522" y="61"/>
      <point x="594" y="0"/>
      <point x="709" y="0" type="curve" smooth="yes"/>
      <point x="817" y="0"/>
      <point x="1006" y="33"/>
      <point x="1120" y="367" type="curve"/>
    </contour>
  </outline>
</glyph>
<glyph name="paragraph" format="1">
  <advance width="1110"/>
  <unicode hex="00B6"/>
  <outline>
    <contour>
      <point x="762" y="-166" type="line"/>
      <point x="1022" y="1049" type="line"/>
      <point x="1032" y="1104"/>
      <point x="1038" y="1149"/>
      <point x="1038" y="1196" type="curve" smooth="yes"/>
      <point x="1038" y="1442"/>
      <point x="864" y="1534"/>
      <point x="659" y="1534" type="curve" smooth="yes"/>
      <point x="324" y="1534"/>
      <point x="147" y="1260"/>
      <point x="147" y="1006" type="curve" smooth="yes"/>
      <point x="147" y="815"/>
      <point x="248" y="629"/>
      <point x="455" y="590" type="curve"/>
      <point x="297" y="-166" type="line"/>
      <point x="489" y="-166" type="line"/>
      <point x="647" y="590" type="line"/>
      <point x="678" y="596"/>
      <point x="705" y="602"/>
      <point x="735" y="612" type="curve"/>
      <point x="569" y="-166" type="line"/>
    </contour>
    <contour>
      <point x="754" y="702" type="line"/>
      <point x="733" y="696"/>
      <point x="709" y="694"/>
      <point x="682" y="694" type="curve" smooth="yes"/>
      <point x="670" y="694" type="line"/>
      <point x="817" y="1397" type="line"/>
      <point x="848" y="1370"/>
      <point x="864" y="1331"/>
      <point x="864" y="1268" type="curve" smooth="yes"/>
      <point x="864" y="1239"/>
      <point x="860" y="1206"/>
      <point x="852" y="1167" type="curve" smooth="yes"/>
    </contour>
  </outline>
</glyph>
<glyph name="periodcentered" format="1">
  <advance width="889"/>
  <unicode hex="00B7"/>
  <outline>
    <contour>
      <point x="641" y="547" type="curve" smooth="yes"/>
      <point x="641" y="655"/>
      <point x="551" y="745"/>
      <point x="442" y="745" type="curve" smooth="yes"/>
      <point x="334" y="745"/>
      <point x="246" y="655"/>
      <point x="246" y="547" type="curve" smooth="yes"/>
      <point x="246" y="438"/>
      <point x="334" y="350"/>
      <point x="442" y="350" type="curve" smooth="yes"/>
      <point x="551" y="350"/>
      <point x="641" y="438"/>
    </contour>
  </outline>
</glyph>
<glyph name="onesuperior" format="1">
  <advance width="469"/>
  <unicode hex="00B9"/>
  <outline>
    <contour>
      <point x="449" y="1559" type="line"/>
      <point x="442" y="1563" type="line"/>
      <point x="332" y="1507"/>
      <point x="215" y="1475"/>
      <point x="106" y="1475" type="curve"/>
      <point x="102" y="1462"/>
      <point x="100" y="1452"/>
      <point x="100" y="1442" type="curve" smooth="yes"/>
      <point x="100" y="1403"/>
      <point x="125" y="1378"/>
      <point x="174" y="1378" type="curve" smooth="yes"/>
      <point x="190" y="1378"/>
      <point x="213" y="1382"/>
      <point x="236" y="1389" type="curve"/>
      <point x="92" y="705" type="line"/>
      <point x="266" y="705" type="line"/>
    </contour>
  </outline>
</glyph>
<glyph name="ordmasculine" format="1">
  <advance width="674"/>
  <unicode hex="00BA"/>
  <outline>
    <contour>
      <point x="604" y="1440" type="line"/>
      <point x="578" y="1409"/>
      <point x="567" y="1393"/>
      <point x="537" y="1374" type="curve"/>
      <point x="537" y="1405"/>
      <point x="528" y="1413"/>
      <point x="498" y="1413" type="curve" smooth="yes"/>
      <point x="459" y="1413"/>
      <point x="418" y="1368"/>
      <point x="418" y="1329" type="curve" smooth="yes"/>
      <point x="418" y="1305"/>
      <point x="428" y="1290"/>
      <point x="449" y="1284" type="curve"/>
      <point x="438" y="1184"/>
      <point x="401" y="1063"/>
      <point x="328" y="1063" type="curve" smooth="yes"/>
      <point x="279" y="1063"/>
      <point x="244" y="1081"/>
      <point x="244" y="1147" type="curve" smooth="yes"/>
      <point x="244" y="1235"/>
      <point x="287" y="1462"/>
      <point x="403" y="1462" type="curve" smooth="yes"/>
      <point x="428" y="1462"/>
      <point x="446" y="1450"/>
      <point x="457" y="1423" type="curve"/>
      <point x="481" y="1432"/>
      <point x="510" y="1444"/>
      <point x="510" y="1477" type="curve" smooth="yes"/>
      <point x="510" y="1507"/>
      <point x="455" y="1526"/>
      <point x="397" y="1526" type="curve" smooth="yes"/>
      <point x="233" y="1526"/>
      <point x="86" y="1407"/>
      <point x="86" y="1137" type="curve" smooth="yes"/>
      <point x="86" y="1006"/>
      <point x="143" y="954"/>
      <point x="272" y="954" type="curve" smooth="yes"/>
      <point x="381" y="954"/>
      <point x="526" y="1071"/>
      <point x="537" y="1300" type="curve"/>
      <point x="584" y="1327"/>
      <point x="602" y="1378"/>
      <point x="616" y="1417" type="curve"/>
    </contour>
  </outline>
</glyph>
<glyph name="guillemotright" format="1">
  <advance width="1200"/>
  <unicode hex="00BB"/>
  <outline>
    <contour>
      <point x="653" y="461" type="line"/>
      <point x="676" y="571" type="line"/>
      <point x="172" y="879" type="line"/>
      <point x="154" y="766" type="line"/>
      <point x="551" y="520" type="line"/>
      <point x="59" y="324" type="line"/>
      <point x="31" y="207" type="line"/>
    </contour>
    <contour>
      <point x="1108" y="461" type="line"/>
      <point x="1130" y="571" type="line"/>
      <point x="627" y="879" type="line"/>
      <point x="608" y="766" type="line"/>
      <point x="1006" y="520" type="line"/>
      <point x="514" y="324" type="line"/>
      <point x="485" y="207" type="line"/>
    </contour>
  </outline>
</glyph>
<glyph name="questiondown" format="1">
  <advance width="899"/>
  <unicode hex="00BF"/>
  <outline>
    <contour>
      <point x="254" y="-219" type="curve" smooth="yes"/>
      <point x="254" y="104"/>
      <point x="641" y="172"/>
      <point x="641" y="565" type="curve"/>
      <point x="516" y="565" type="line"/>
      <point x="516" y="186"/>
      <point x="-26" y="133"/>
      <point x="-26" y="-225" type="curve" smooth="yes"/>
      <point x="-26" y="-401"/>
      <point x="107" y="-512"/>
      <point x="322" y="-512" type="curve" smooth="yes"/>
      <point x="568" y="-512"/>
      <point x="754" y="-367"/>
      <point x="754" y="-174" type="curve" smooth="yes"/>
      <point x="754" y="-68"/>
      <point x="697" y="2"/>
      <point x="609" y="2" type="curve" smooth="yes"/>
      <point x="557" y="2"/>
      <point x="500" y="-23"/>
      <point x="451" y="-68" type="curve"/>
      <point x="451" y="-76" type="line"/>
      <point x="510" y="-102"/>
      <point x="549" y="-168"/>
      <point x="549" y="-240" type="curve" smooth="yes"/>
      <point x="549" y="-334"/>
      <point x="482" y="-406"/>
      <point x="391" y="-406" type="curve" smooth="yes"/>
      <point x="305" y="-406"/>
      <point x="254" y="-338"/>
    </contour>
    <contour>
      <point x="437" y="877" type="curve" smooth="yes"/>
      <point x="437" y="786"/>
      <point x="508" y="715"/>
      <point x="598" y="715" type="curve" smooth="yes"/>
      <point x="688" y="715"/>
      <point x="762" y="786"/>
      <point x="762" y="877" type="curve" smooth="yes"/>
      <point x="762" y="967"/>
      <point x="688" y="1040"/>
      <point x="598" y="1040" type="curve" smooth="yes"/>
      <point x="508" y="1040"/>
      <point x="437" y="967"/>
    </contour>
  </outline>
</glyph>
<glyph name="Atilde" format="1">
  <advance width="1368"/>
  <unicode hex="00C3"/>
  <outline>
    <contour>
      <point x="1096" y="0" type="line"/>
      <point x="1417" y="1507" type="line"/>
      <point x="1368" y="1530"/>
      <point x="1303" y="1536"/>
      <point x="1255" y="1536" type="curve" smooth="yes"/>
      <point x="1016" y="1536"/>
      <point x="750" y="1260"/>
      <point x="543" y="932" type="curve"/>
      <point x="500" y="936"/>
      <point x="463" y="938"/>
      <point x="436" y="938" type="curve" smooth="yes"/>
      <point x="197" y="938"/>
      <point x="18" y="825"/>
      <point x="18" y="686" type="curve" smooth="yes"/>
      <point x="18" y="606"/>
      <point x="74" y="567"/>
      <point x="145" y="567" type="curve" smooth="yes"/>
      <point x="209" y="567"/>
      <point x="260" y="598"/>
      <point x="260" y="647" type="curve" smooth="yes"/>
      <point x="260" y="678"/>
      <point x="244" y="711"/>
      <point x="233" y="711" type="curve"/>
      <point x="260" y="782"/>
      <point x="344" y="809"/>
      <point x="473" y="817" type="curve"/>
      <point x="293" y="504"/>
      <point x="172" y="166"/>
      <point x="172" y="-16" type="curve" smooth="yes"/>
      <point x="172" y="-229"/>
      <point x="338" y="-233"/>
      <point x="446" y="-233" type="curve"/>
      <point x="432" y="-215"/>
      <point x="418" y="-184"/>
      <point x="418" y="-119" type="curve" smooth="yes"/>
      <point x="418" y="94"/>
      <point x="530" y="483"/>
      <point x="684" y="817" type="curve"/>
      <point x="774" y="809"/>
      <point x="854" y="791"/>
      <point x="958" y="743" type="curve"/>
      <point x="801" y="0" type="line"/>
    </contour>
    <contour>
      <point x="977" y="834" type="line"/>
      <point x="897" y="866"/>
      <point x="809" y="889"/>
      <point x="727" y="905" type="curve"/>
      <point x="842" y="1135"/>
      <point x="973" y="1325"/>
      <point x="1096" y="1391" type="curve"/>
    </contour>
    <contour>
      <point x="1647" y="1884" type="line"/>
      <point x="1616" y="1853"/>
      <point x="1569" y="1837"/>
      <point x="1518" y="1837" type="curve" smooth="yes"/>
      <point x="1399" y="1837"/>
      <point x="1327" y="1905"/>
      <point x="1180" y="1905" type="curve" smooth="yes"/>
      <point x="1024" y="1905"/>
      <point x="903" y="1835"/>
      <point x="838" y="1704" type="curve"/>
      <point x="850" y="1700" type="line"/>
      <point x="889" y="1735"/>
      <point x="934" y="1753"/>
      <point x="985" y="1753" type="curve" smooth="yes"/>
      <point x="1100" y="1753"/>
      <point x="1192" y="1677"/>
      <point x="1329" y="1677" type="curve" smooth="yes"/>
      <point x="1485" y="1677"/>
      <point x="1638" y="1786"/>
      <point x="1659" y="1882" type="curve"/>
    </contour>
  </outline>
</glyph>
<glyph name="Aring" format="1">
  <advance width="1368"/>
  <unicode hex="00C5"/>
  <outline>
    <contour>
      <point x="1096" y="0" type="line"/>
      <point x="1417" y="1507" type="line"/>
      <point x="1368" y="1530"/>
      <point x="1303" y="1536"/>
      <point x="1255" y="1536" type="curve" smooth="yes"/>
      <point x="1016" y="1536"/>
      <point x="750" y="1260"/>
      <point x="543" y="932" type="curve"/>
      <point x="500" y="936"/>
      <point x="463" y="938"/>
      <point x="436" y="938" type="curve" smooth="yes"/>
      <point x="197" y="938"/>
      <point x="18" y="825"/>
      <point x="18" y="686" type="curve" smooth="yes"/>
      <point x="18" y="606"/>
      <point x="74" y="567"/>
      <point x="145" y="567" type="curve" smooth="yes"/>
      <point x="209" y="567"/>
      <point x="260" y="598"/>
      <point x="260" y="647" type="curve" smooth="yes"/>
      <point x="260" y="678"/>
      <point x="244" y="711"/>
      <point x="233" y="711" type="curve"/>
      <point x="260" y="782"/>
      <point x="344" y="809"/>
      <point x="473" y="817" type="curve"/>
      <point x="293" y="504"/>
      <point x="172" y="166"/>
      <point x="172" y="-16" type="curve" smooth="yes"/>
      <point x="172" y="-229"/>
      <point x="338" y="-233"/>
      <point x="446" y="-233" type="curve"/>
      <point x="432" y="-215"/>
      <point x="418" y="-184"/>
      <point x="418" y="-119" type="curve" smooth="yes"/>
      <point x="418" y="94"/>
      <point x="530" y="483"/>
      <point x="684" y="817" type="curve"/>
      <point x="774" y="809"/>
      <point x="854" y="791"/>
      <point x="958" y="743" type="curve"/>
      <point x="801" y="0" type="line"/>
    </contour>
    <contour>
      <point x="977" y="834" type="line"/>
      <point x="897" y="866"/>
      <point x="809" y="889"/>
      <point x="727" y="905" type="curve"/>
      <point x="842" y="1135"/>
      <point x="973" y="1325"/>
      <point x="1096" y="1391" type="curve"/>
    </contour>
    <contour>
      <point x="1405" y="1815" type="curve" smooth="yes"/>
      <point x="1405" y="1903"/>
      <point x="1358" y="1972"/>
      <point x="1257" y="1972" type="curve" smooth="yes"/>
      <point x="1134" y="1972"/>
      <point x="1083" y="1860"/>
      <point x="1083" y="1786" type="curve" smooth="yes"/>
      <point x="1083" y="1706"/>
      <point x="1139" y="1642"/>
      <point x="1227" y="1642" type="curve" smooth="yes"/>
      <point x="1356" y="1642"/>
      <point x="1405" y="1724"/>
    </contour>
    <contour>
      <point x="1329" y="1808" type="curve" smooth="yes"/>
      <point x="1329" y="1751"/>
      <point x="1298" y="1714"/>
      <point x="1235" y="1714" type="curve" smooth="yes"/>
      <point x="1186" y="1714"/>
      <point x="1165" y="1743"/>
      <point x="1165" y="1790" type="curve" smooth="yes"/>
      <point x="1165" y="1841"/>
      <point x="1190" y="1905"/>
      <point x="1261" y="1905" type="curve" smooth="yes"/>
      <point x="1327" y="1905"/>
      <point x="1329" y="1849"/>
    </contour>
  </outline>
</glyph>
<glyph name="AE" format="1">
  <advance width="1565"/>
  <unicode hex="00C6"/>
  <outline>
    <contour>
      <point x="1556" y="0" type="line"/>
      <point x="1599" y="217" type="line"/>
      <point x="1141" y="217" type="line"/>
      <point x="1245" y="707" type="line"/>
      <point x="1554" y="707" type="line"/>
      <point x="1595" y="858" type="line"/>
      <point x="1278" y="858" type="line"/>
      <point x="1389" y="1376" type="line"/>
      <point x="1468" y="1346"/>
      <point x="1538" y="1311"/>
      <point x="1642" y="1311" type="curve" smooth="yes"/>
      <point x="1810" y="1311"/>
      <point x="1833" y="1446"/>
      <point x="1862" y="1536" type="curve"/>
      <point x="1772" y="1505"/>
      <point x="1694" y="1497"/>
      <point x="1622" y="1497" type="curve" smooth="yes"/>
      <point x="1479" y="1497"/>
      <point x="1366" y="1538"/>
      <point x="1253" y="1538" type="curve" smooth="yes"/>
      <point x="1012" y="1538"/>
      <point x="745" y="1257"/>
      <point x="539" y="926" type="curve"/>
      <point x="494" y="930"/>
      <point x="453" y="932"/>
      <point x="418" y="932" type="curve" smooth="yes"/>
      <point x="207" y="932"/>
      <point x="18" y="821"/>
      <point x="18" y="696" type="curve" smooth="yes"/>
      <point x="18" y="604"/>
      <point x="76" y="567"/>
      <point x="135" y="567" type="curve" smooth="yes"/>
      <point x="223" y="567"/>
      <point x="260" y="604"/>
      <point x="260" y="647" type="curve" smooth="yes"/>
      <point x="260" y="678"/>
      <point x="244" y="711"/>
      <point x="233" y="711" type="curve"/>
      <point x="264" y="784"/>
      <point x="350" y="809"/>
      <point x="473" y="817" type="curve"/>
      <point x="293" y="506"/>
      <point x="172" y="172"/>
      <point x="172" y="-2" type="curve" smooth="yes"/>
      <point x="172" y="-219"/>
      <point x="305" y="-225"/>
      <point x="446" y="-231" type="curve"/>
      <point x="446" y="-215"/>
      <point x="418" y="-221"/>
      <point x="418" y="-117" type="curve" smooth="yes"/>
      <point x="418" y="98"/>
      <point x="530" y="485"/>
      <point x="682" y="817" type="curve"/>
      <point x="770" y="811"/>
      <point x="854" y="791"/>
      <point x="958" y="743" type="curve"/>
      <point x="801" y="0" type="line"/>
    </contour>
    <contour>
      <point x="977" y="834" type="line"/>
      <point x="897" y="864"/>
      <point x="811" y="887"/>
      <point x="723" y="903" type="curve"/>
      <point x="838" y="1135"/>
      <point x="971" y="1323"/>
      <point x="1096" y="1391" type="curve"/>
    </contour>
  </outline>
</glyph>
<glyph name="Ccedilla" format="1">
  <advance width="1018"/>
  <unicode hex="00C7"/>
  <outline>
    <contour>
      <point x="1024" y="369" type="line"/>
      <point x="928" y="240"/>
      <point x="786" y="164"/>
      <point x="625" y="164" type="curve" smooth="yes"/>
      <point x="426" y="164"/>
      <point x="379" y="295"/>
      <point x="379" y="483" type="curve" smooth="yes"/>
      <point x="379" y="901"/>
      <point x="578" y="1440"/>
      <point x="805" y="1440" type="curve" smooth="yes"/>
      <point x="897" y="1440"/>
      <point x="930" y="1380"/>
      <point x="930" y="1315" type="curve" smooth="yes"/>
      <point x="930" y="1235"/>
      <point x="885" y="1151"/>
      <point x="836" y="1126" type="curve"/>
      <point x="874" y="1079"/>
      <point x="920" y="1073"/>
      <point x="952" y="1073" type="curve" smooth="yes"/>
      <point x="1057" y="1073"/>
      <point x="1096" y="1153"/>
      <point x="1096" y="1262" type="curve" smooth="yes"/>
      <point x="1096" y="1458"/>
      <point x="944" y="1536"/>
      <point x="754" y="1536" type="curve" smooth="yes"/>
      <point x="217" y="1536"/>
      <point x="39" y="842"/>
      <point x="39" y="471" type="curve" smooth="yes"/>
      <point x="39" y="113"/>
      <point x="174" y="-25"/>
      <point x="461" y="-33" type="curve"/>
      <point x="385" y="-244" type="line"/>
      <point x="408" y="-233"/>
      <point x="436" y="-219"/>
      <point x="492" y="-219" type="curve" smooth="yes"/>
      <point x="549" y="-219"/>
      <point x="571" y="-254"/>
      <point x="571" y="-293" type="curve" smooth="yes"/>
      <point x="571" y="-336"/>
      <point x="545" y="-379"/>
      <point x="510" y="-379" type="curve" smooth="yes"/>
      <point x="451" y="-379"/>
      <point x="440" y="-324"/>
      <point x="358" y="-324" type="curve" smooth="yes"/>
      <point x="319" y="-324"/>
      <point x="295" y="-356"/>
      <point x="276" y="-389" type="curve"/>
      <point x="336" y="-420"/>
      <point x="391" y="-446"/>
      <point x="496" y="-446" type="curve" smooth="yes"/>
      <point x="616" y="-446"/>
      <point x="741" y="-369"/>
      <point x="741" y="-221" type="curve" smooth="yes"/>
      <point x="741" y="-158"/>
      <point x="702" y="-119"/>
      <point x="614" y="-119" type="curve" smooth="yes"/>
      <point x="586" y="-119"/>
      <point x="549" y="-125"/>
      <point x="506" y="-135" type="curve"/>
      <point x="549" y="-29" type="line"/>
      <point x="733" y="-8"/>
      <point x="973" y="102"/>
      <point x="1071" y="348" type="curve"/>
    </contour>
  </outline>
</glyph>
<glyph name="Icircumflex" format="1">
  <advance width="768"/>
  <unicode hex="00CE"/>
  <outline>
    <contour>
      <point x="487" y="0" type="line"/>
      <point x="813" y="1532" type="line"/>
      <point x="786" y="1534"/>
      <point x="762" y="1536"/>
      <point x="731" y="1536" type="curve" smooth="yes"/>
      <point x="389" y="1536"/>
      <point x="12" y="1276"/>
      <point x="12" y="1004" type="curve" smooth="yes"/>
      <point x="12" y="856"/>
      <point x="90" y="805"/>
      <point x="231" y="805" type="curve"/>
      <point x="231" y="821"/>
      <point x="203" y="840"/>
      <point x="203" y="944" type="curve" smooth="yes"/>
      <point x="203" y="1165"/>
      <point x="309" y="1317"/>
      <point x="489" y="1391" type="curve"/>
      <point x="193" y="0" type="line"/>
    </contour>
    <contour>
      <point x="949" y="1661" type="line"/>
      <point x="826" y="2048" type="line"/>
      <point x="783" y="2048" type="line"/>
      <point x="349" y="1661" type="line"/>
      <point x="439" y="1661" type="line"/>
      <point x="761" y="1825" type="line"/>
      <point x="884" y="1661" type="line"/>
    </contour>
  </outline>
</glyph>
<glyph name="Idieresis" format="1">
  <advance width="768"/>
  <unicode hex="00CF"/>
  <outline>
    <contour>
      <point x="487" y="0" type="line"/>
      <point x="813" y="1532" type="line"/>
      <point x="786" y="1534"/>
      <point x="762" y="1536"/>
      <point x="731" y="1536" type="curve" smooth="yes"/>
      <point x="389" y="1536"/>
      <point x="12" y="1276"/>
      <point x="12" y="1004" type="curve" smooth="yes"/>
      <point x="12" y="856"/>
      <point x="90" y="805"/>
      <point x="231" y="805" type="curve"/>
      <point x="231" y="821"/>
      <point x="203" y="840"/>
      <point x="203" y="944" type="curve" smooth="yes"/>
      <point x="203" y="1165"/>
      <point x="309" y="1317"/>
      <point x="489" y="1391" type="curve"/>
      <point x="193" y="0" type="line"/>
    </contour>
    <contour>
      <point x="632" y="1810" type="curve" smooth="yes"/>
      <point x="632" y="1878"/>
      <point x="575" y="1935"/>
      <point x="507" y="1935" type="curve" smooth="yes"/>
      <point x="435" y="1935"/>
      <point x="382" y="1878"/>
      <point x="382" y="1810" type="curve" smooth="yes"/>
      <point x="382" y="1739"/>
      <point x="435" y="1686"/>
      <point x="507" y="1686" type="curve" smooth="yes"/>
      <point x="575" y="1686"/>
      <point x="632" y="1739"/>
    </contour>
    <contour>
      <point x="1001" y="1810" type="curve" smooth="yes"/>
      <point x="1001" y="1878"/>
      <point x="943" y="1935"/>
      <point x="876" y="1935" type="curve" smooth="yes"/>
      <point x="804" y="1935"/>
      <point x="751" y="1878"/>
      <point x="751" y="1810" type="curve" smooth="yes"/>
      <point x="751" y="1739"/>
      <point x="804" y="1686"/>
      <point x="876" y="1686" type="curve" smooth="yes"/>
      <point x="943" y="1686"/>
      <point x="1001" y="1739"/>
    </contour>
  </outline>
</glyph>
<glyph name="Eth" format="1">
  <advance width="1358"/>
  <unicode hex="00D0"/>
  <outline>
    <contour>
      <point x="487" y="0" type="line"/>
      <point x="504" y="82" type="line"/>
      <point x="592" y="6"/>
      <point x="674" y="-27"/>
      <point x="754" y="-27" type="curve" smooth="yes"/>
      <point x="1057" y="-27"/>
      <point x="1321" y="453"/>
      <point x="1321" y="983" type="curve" smooth="yes"/>
      <point x="1321" y="1270"/>
      <point x="1204" y="1536"/>
      <point x="731" y="1536" type="curve" smooth="yes"/>
      <point x="389" y="1536"/>
      <point x="12" y="1276"/>
      <point x="12" y="1004" type="curve" smooth="yes"/>
      <point x="12" y="856"/>
      <point x="90" y="805"/>
      <point x="231" y="805" type="curve"/>
      <point x="231" y="821"/>
      <point x="203" y="840"/>
      <point x="203" y="944" type="curve" smooth="yes"/>
      <point x="203" y="1255"/>
      <point x="424" y="1442"/>
      <point x="756" y="1442" type="curve" smooth="yes"/>
      <point x="991" y="1442"/>
      <point x="1038" y="1296"/>
      <point x="1038" y="1040" type="curve" smooth="yes"/>
      <point x="1038" y="647"/>
      <point x="889" y="154"/>
      <point x="645" y="154" type="curve" smooth="yes"/>
      <point x="604" y="154"/>
      <point x="565" y="168"/>
      <point x="528" y="195" type="curve"/>
      <point x="637" y="707" type="line"/>
      <point x="791" y="707" type="line"/>
      <point x="831" y="858" type="line"/>
      <point x="670" y="858" type="line"/>
      <point x="774" y="1343" type="line"/>
      <point x="471" y="1303" type="line"/>
      <point x="377" y="858" type="line"/>
      <point x="305" y="858" type="line"/>
      <point x="264" y="707" type="line"/>
      <point x="344" y="707" type="line"/>
      <point x="193" y="0" type="line"/>
    </contour>
  </outline>
</glyph>
<glyph name="Ntilde" format="1">
  <advance width="1405"/>
  <unicode hex="00D1"/>
  <outline>
    <contour>
      <point x="1440" y="1884" type="line"/>
      <point x="1409" y="1853"/>
      <point x="1362" y="1837"/>
      <point x="1311" y="1837" type="curve" smooth="yes"/>
      <point x="1192" y="1837"/>
      <point x="1120" y="1905"/>
      <point x="973" y="1905" type="curve" smooth="yes"/>
      <point x="817" y="1905"/>
      <point x="696" y="1835"/>
      <point x="631" y="1704" type="curve"/>
      <point x="643" y="1700" type="line"/>
      <point x="682" y="1735"/>
      <point x="727" y="1753"/>
      <point x="778" y="1753" type="curve" smooth="yes"/>
      <point x="893" y="1753"/>
      <point x="985" y="1677"/>
      <point x="1122" y="1677" type="curve" smooth="yes"/>
      <point x="1278" y="1677"/>
      <point x="1432" y="1786"/>
      <point x="1452" y="1882" type="curve"/>
    </contour>
    <contour>
      <point x="1272" y="1532" type="line"/>
      <point x="1043" y="420" type="line"/>
      <point x="796" y="1516" type="line"/>
      <point x="739" y="1536"/>
      <point x="698" y="1544"/>
      <point x="634" y="1544" type="curve" smooth="yes"/>
      <point x="292" y="1544"/>
      <point x="12" y="1298"/>
      <point x="12" y="1006" type="curve" smooth="yes"/>
      <point x="12" y="854"/>
      <point x="94" y="784"/>
      <point x="268" y="784" type="curve"/>
      <point x="234" y="829"/>
      <point x="213" y="905"/>
      <point x="213" y="993" type="curve" smooth="yes"/>
      <point x="213" y="1192"/>
      <point x="309" y="1337"/>
      <point x="497" y="1403" type="curve"/>
      <point x="189" y="0" type="line"/>
      <point x="383" y="0" type="line"/>
      <point x="617" y="1016" type="line"/>
      <point x="854" y="0" type="line"/>
      <point x="1137" y="0" type="line"/>
      <point x="1471" y="1532" type="line"/>
    </contour>
  </outline>
</glyph>
<glyph name="Otilde" format="1">
  <advance width="1362"/>
  <unicode hex="00D5"/>
  <outline>
    <contour>
      <point x="883" y="1343" type="curve"/>
      <point x="844" y="1358"/>
      <point x="811" y="1360"/>
      <point x="776" y="1360" type="curve" smooth="yes"/>
      <point x="408" y="1360"/>
      <point x="221" y="731"/>
      <point x="221" y="399" type="curve" smooth="yes"/>
      <point x="221" y="100"/>
      <point x="373" y="-12"/>
      <point x="588" y="-12" type="curve" smooth="yes"/>
      <point x="1124" y="-12"/>
      <point x="1343" y="616"/>
      <point x="1343" y="1012" type="curve" smooth="yes"/>
      <point x="1343" y="1317"/>
      <point x="1217" y="1536"/>
      <point x="858" y="1536" type="curve" smooth="yes"/>
      <point x="426" y="1536"/>
      <point x="33" y="1264"/>
      <point x="33" y="977" type="curve" smooth="yes"/>
      <point x="33" y="852"/>
      <point x="109" y="805"/>
      <point x="240" y="805" type="curve"/>
      <point x="240" y="821"/>
      <point x="219" y="836"/>
      <point x="219" y="915" type="curve" smooth="yes"/>
      <point x="219" y="1241"/>
      <point x="496" y="1442"/>
      <point x="809" y="1442" type="curve" smooth="yes"/>
      <point x="1024" y="1442"/>
      <point x="1071" y="1321"/>
      <point x="1071" y="1083" type="curve" smooth="yes"/>
      <point x="1071" y="670"/>
      <point x="850" y="154"/>
      <point x="643" y="154" type="curve" smooth="yes"/>
      <point x="559" y="154"/>
      <point x="524" y="252"/>
      <point x="524" y="391" type="curve" smooth="yes"/>
      <point x="524" y="707"/>
      <point x="696" y="1231"/>
    </contour>
    <contour>
      <point x="1370" y="1884" type="line"/>
      <point x="1339" y="1853"/>
      <point x="1292" y="1837"/>
      <point x="1241" y="1837" type="curve" smooth="yes"/>
      <point x="1122" y="1837"/>
      <point x="1051" y="1905"/>
      <point x="903" y="1905" type="curve" smooth="yes"/>
      <point x="748" y="1905"/>
      <point x="627" y="1835"/>
      <point x="561" y="1704" type="curve"/>
      <point x="573" y="1700" type="line"/>
      <point x="612" y="1735"/>
      <point x="657" y="1753"/>
      <point x="709" y="1753" type="curve" smooth="yes"/>
      <point x="823" y="1753"/>
      <point x="915" y="1677"/>
      <point x="1053" y="1677" type="curve" smooth="yes"/>
      <point x="1208" y="1677"/>
      <point x="1362" y="1786"/>
      <point x="1382" y="1882" type="curve"/>
    </contour>
  </outline>
</glyph>
<glyph name="multiply" format="1">
  <advance width="848"/>
  <unicode hex="00D7"/>
  <outline>
    <contour>
      <point x="86" y="905" type="line"/>
      <point x="297" y="694" type="line"/>
      <point x="88" y="485" type="line"/>
      <point x="205" y="371" type="line"/>
      <point x="412" y="578" type="line"/>
      <point x="623" y="371" type="line"/>
      <point x="739" y="489" type="line"/>
      <point x="530" y="696" type="line"/>
      <point x="741" y="907" type="line"/>
      <point x="627" y="1024" type="line"/>
      <point x="414" y="811" type="line"/>
      <point x="205" y="1022" type="line"/>
    </contour>
  </outline>
</glyph>
<glyph name="Oslash" format="1">
  <advance width="1348"/>
  <unicode hex="00D8"/>
  <outline>
    <contour>
      <point x="649" y="-145" type="line"/>
      <point x="680" y="-2" type="line"/>
      <point x="1114" y="76"/>
      <point x="1294" y="606"/>
      <point x="1294" y="946" type="curve" smooth="yes"/>
      <point x="1294" y="1186"/>
      <point x="1210" y="1366"/>
      <point x="981" y="1421" type="curve"/>
      <point x="1006" y="1536" type="line"/>
      <point x="899" y="1536" type="line"/>
      <point x="877" y="1436" type="line"/>
      <point x="860" y="1438"/>
      <point x="844" y="1438"/>
      <point x="827" y="1438" type="curve" smooth="yes"/>
      <point x="410" y="1438"/>
      <point x="31" y="1184"/>
      <point x="31" y="913" type="curve" smooth="yes"/>
      <point x="31" y="797"/>
      <point x="106" y="754"/>
      <point x="231" y="754" type="curve"/>
      <point x="231" y="768"/>
      <point x="211" y="782"/>
      <point x="211" y="856" type="curve" smooth="yes"/>
      <point x="211" y="1161"/>
      <point x="477" y="1350"/>
      <point x="780" y="1350" type="curve" smooth="yes"/>
      <point x="809" y="1350"/>
      <point x="836" y="1348"/>
      <point x="858" y="1343" type="curve"/>
      <point x="840" y="1260" type="line"/>
      <point x="811" y="1270"/>
      <point x="780" y="1274"/>
      <point x="748" y="1274" type="curve" smooth="yes"/>
      <point x="393" y="1274"/>
      <point x="213" y="684"/>
      <point x="213" y="375" type="curve" smooth="yes"/>
      <point x="213" y="96"/>
      <point x="358" y="-12"/>
      <point x="567" y="-12" type="curve" smooth="yes"/>
      <point x="571" y="-12" type="line"/>
      <point x="543" y="-145" type="line"/>
    </contour>
    <contour>
      <point x="604" y="143" type="line"/>
      <point x="532" y="158"/>
      <point x="506" y="244"/>
      <point x="506" y="367" type="curve" smooth="yes"/>
      <point x="506" y="653"/>
      <point x="664" y="1135"/>
      <point x="838" y="1249" type="curve"/>
    </contour>
    <contour>
      <point x="954" y="1298" type="line"/>
      <point x="1018" y="1243"/>
      <point x="1032" y="1151"/>
      <point x="1032" y="1014" type="curve" smooth="yes"/>
      <point x="1032" y="690"/>
      <point x="883" y="301"/>
      <point x="719" y="180" type="curve"/>
    </contour>
  </outline>
</glyph>
<glyph name="Ucircumflex" format="1">
  <advance width="1466"/>
  <unicode hex="00DB"/>
  <outline>
    <contour>
      <point x="1123" y="899" type="line" smooth="yes"/>
      <point x="975" y="229"/>
      <point x="903" y="186"/>
      <point x="727" y="186" type="curve" smooth="yes"/>
      <point x="623" y="186"/>
      <point x="586" y="254"/>
      <point x="586" y="371" type="curve" smooth="yes"/>
      <point x="586" y="543"/>
      <point x="672" y="821"/>
      <point x="862" y="1526" type="curve"/>
      <point x="819" y="1534"/>
      <point x="799" y="1536"/>
      <point x="764" y="1536" type="curve" smooth="yes"/>
      <point x="367" y="1536"/>
      <point x="-10" y="1282"/>
      <point x="-10" y="993" type="curve" smooth="yes"/>
      <point x="-10" y="854"/>
      <point x="72" y="805"/>
      <point x="209" y="805" type="curve"/>
      <point x="209" y="823"/>
      <point x="180" y="838"/>
      <point x="180" y="946" type="curve" smooth="yes"/>
      <point x="180" y="1194"/>
      <point x="320" y="1358"/>
      <point x="543" y="1417" type="curve"/>
      <point x="475" y="1147" type="line" smooth="yes"/>
      <point x="387" y="797"/>
      <point x="307" y="516"/>
      <point x="307" y="311" type="curve" smooth="yes"/>
      <point x="307" y="104"/>
      <point x="408" y="-14"/>
      <point x="703" y="-14" type="curve" smooth="yes"/>
      <point x="1164" y="-14"/>
      <point x="1282" y="270"/>
      <point x="1413" y="893" type="curve" smooth="yes"/>
      <point x="1549" y="1532" type="line"/>
      <point x="1260" y="1532" type="line"/>
    </contour>
    <contour>
      <point x="1333" y="1661" type="line"/>
      <point x="1211" y="2048" type="line"/>
      <point x="1168" y="2048" type="line"/>
      <point x="733" y="1661" type="line"/>
      <point x="824" y="1661" type="line"/>
      <point x="1145" y="1825" type="line"/>
      <point x="1268" y="1661" type="line"/>
    </contour>
  </outline>
</glyph>
<glyph name="Thorn" format="1">
  <advance width="1194"/>
  <unicode hex="00DE"/>
  <outline>
    <contour>
      <point x="487" y="0" type="line"/>
      <point x="563" y="358" type="line"/>
      <point x="623" y="358" type="line" smooth="yes"/>
      <point x="991" y="358"/>
      <point x="1214" y="647"/>
      <point x="1214" y="907" type="curve" smooth="yes"/>
      <point x="1214" y="1112"/>
      <point x="1077" y="1294"/>
      <point x="766" y="1311" type="curve"/>
      <point x="815" y="1536" type="line"/>
      <point x="512" y="1495" type="line"/>
      <point x="461" y="1262" type="line"/>
      <point x="217" y="1176"/>
      <point x="12" y="979"/>
      <point x="12" y="778" type="curve" smooth="yes"/>
      <point x="12" y="631"/>
      <point x="90" y="580"/>
      <point x="231" y="580" type="curve"/>
      <point x="231" y="596"/>
      <point x="203" y="614"/>
      <point x="203" y="719" type="curve" smooth="yes"/>
      <point x="203" y="924"/>
      <point x="285" y="1071"/>
      <point x="438" y="1151" type="curve"/>
      <point x="193" y="0" type="line"/>
    </contour>
    <contour>
      <point x="580" y="434" type="line"/>
      <point x="748" y="1217" type="line"/>
      <point x="918" y="1210"/>
      <point x="987" y="1083"/>
      <point x="987" y="938" type="curve" smooth="yes"/>
      <point x="987" y="715"/>
      <point x="825" y="434"/>
      <point x="608" y="434" type="curve" smooth="yes"/>
    </contour>
  </outline>
</glyph>
<glyph name="germandbls" format="1">
  <advance width="984"/>
  <unicode hex="00DF"/>
  <outline>
    <contour>
      <point x="366" y="176" type="curve"/>
      <point x="341" y="156"/>
      <point x="327" y="123"/>
      <point x="327" y="92" type="curve" smooth="yes"/>
      <point x="327" y="27"/>
      <point x="386" y="-12"/>
      <point x="491" y="-12" type="curve" smooth="yes"/>
      <point x="759" y="-12"/>
      <point x="894" y="156"/>
      <point x="894" y="351" type="curve" smooth="yes"/>
      <point x="894" y="498"/>
      <point x="817" y="661"/>
      <point x="662" y="778" type="curve"/>
      <point x="718" y="850"/>
      <point x="859" y="1053"/>
      <point x="859" y="1235" type="curve" smooth="yes"/>
      <point x="859" y="1358"/>
      <point x="759" y="1434"/>
      <point x="597" y="1434" type="curve" smooth="yes"/>
      <point x="353" y="1434"/>
      <point x="197" y="1241"/>
      <point x="114" y="844" type="curve"/>
      <point x="-174" y="-512" type="line"/>
      <point x="135" y="-438" type="line"/>
      <point x="419" y="889" type="line" smooth="yes"/>
      <point x="487" y="1208"/>
      <point x="529" y="1307"/>
      <point x="603" y="1307" type="curve" smooth="yes"/>
      <point x="660" y="1307"/>
      <point x="682" y="1263"/>
      <point x="682" y="1200" type="curve" smooth="yes"/>
      <point x="682" y="1049"/>
      <point x="561" y="786"/>
      <point x="499" y="719" type="curve"/>
      <point x="599" y="664"/>
      <point x="650" y="524"/>
      <point x="650" y="395" type="curve" smooth="yes"/>
      <point x="650" y="256"/>
      <point x="592" y="129"/>
      <point x="479" y="129" type="curve" smooth="yes"/>
      <point x="431" y="129"/>
      <point x="388" y="147"/>
    </contour>
  </outline>
</glyph>
<glyph name="atilde" format="1">
  <advance width="1077"/>
  <unicode hex="00E3"/>
  <outline>
    <contour>
      <point x="1077" y="367" type="line"/>
      <point x="1047" y="262"/>
      <point x="991" y="174"/>
      <point x="911" y="174" type="curve" smooth="yes"/>
      <point x="856" y="174"/>
      <point x="827" y="203"/>
      <point x="827" y="262" type="curve" smooth="yes"/>
      <point x="827" y="283"/>
      <point x="829" y="305"/>
      <point x="836" y="328" type="curve"/>
      <point x="983" y="1024" type="line"/>
      <point x="688" y="1024" type="line"/>
      <point x="666" y="915" type="line"/>
      <point x="666" y="930" type="line" smooth="yes"/>
      <point x="666" y="989"/>
      <point x="616" y="1034"/>
      <point x="500" y="1034" type="curve" smooth="yes"/>
      <point x="143" y="1034"/>
      <point x="-27" y="596"/>
      <point x="-27" y="317" type="curve" smooth="yes"/>
      <point x="-27" y="74"/>
      <point x="106" y="-12"/>
      <point x="246" y="-12" type="curve" smooth="yes"/>
      <point x="393" y="-12"/>
      <point x="485" y="84"/>
      <point x="551" y="176" type="curve"/>
      <point x="565" y="53"/>
      <point x="637" y="-12"/>
      <point x="752" y="-12" type="curve" smooth="yes"/>
      <point x="860" y="-12"/>
      <point x="1049" y="33"/>
      <point x="1163" y="367" type="curve"/>
    </contour>
    <contour>
      <point x="549" y="367" type="line" smooth="yes"/>
      <point x="522" y="246"/>
      <point x="440" y="186"/>
      <point x="379" y="186" type="curve" smooth="yes"/>
      <point x="342" y="186"/>
      <point x="276" y="190"/>
      <point x="276" y="346" type="curve" smooth="yes"/>
      <point x="276" y="539"/>
      <point x="389" y="907"/>
      <point x="563" y="907" type="curve" smooth="yes"/>
      <point x="629" y="907"/>
      <point x="647" y="854"/>
      <point x="647" y="829" type="curve"/>
    </contour>
    <contour>
      <point x="1058" y="1372" type="line"/>
      <point x="1027" y="1341"/>
      <point x="980" y="1325"/>
      <point x="929" y="1325" type="curve" smooth="yes"/>
      <point x="810" y="1325"/>
      <point x="738" y="1393"/>
      <point x="591" y="1393" type="curve" smooth="yes"/>
      <point x="435" y="1393"/>
      <point x="314" y="1323"/>
      <point x="249" y="1192" type="curve"/>
      <point x="261" y="1188" type="line"/>
      <point x="300" y="1223"/>
      <point x="345" y="1241"/>
      <point x="396" y="1241" type="curve" smooth="yes"/>
      <point x="511" y="1241"/>
      <point x="603" y="1165"/>
      <point x="740" y="1165" type="curve" smooth="yes"/>
      <point x="896" y="1165"/>
      <point x="1050" y="1274"/>
      <point x="1070" y="1370" type="curve"/>
    </contour>
  </outline>
</glyph>
<glyph name="aring" format="1">
  <advance width="1077"/>
  <unicode hex="00E5"/>
  <outline>
    <contour>
      <point x="1077" y="367" type="line"/>
      <point x="1047" y="262"/>
      <point x="991" y="174"/>
      <point x="911" y="174" type="curve" smooth="yes"/>
      <point x="856" y="174"/>
      <point x="827" y="203"/>
      <point x="827" y="262" type="curve" smooth="yes"/>
      <point x="827" y="283"/>
      <point x="829" y="305"/>
      <point x="836" y="328" type="curve"/>
      <point x="983" y="1024" type="line"/>
      <point x="688" y="1024" type="line"/>
      <point x="666" y="915" type="line"/>
      <point x="666" y="930" type="line" smooth="yes"/>
      <point x="666" y="989"/>
      <point x="616" y="1034"/>
      <point x="500" y="1034" type="curve" smooth="yes"/>
      <point x="143" y="1034"/>
      <point x="-27" y="596"/>
      <point x="-27" y="317" type="curve" smooth="yes"/>
      <point x="-27" y="74"/>
      <point x="106" y="-12"/>
      <point x="246" y="-12" type="curve" smooth="yes"/>
      <point x="393" y="-12"/>
      <point x="485" y="84"/>
      <point x="551" y="176" type="curve"/>
      <point x="565" y="53"/>
      <point x="637" y="-12"/>
      <point x="752" y="-12" type="curve" smooth="yes"/>
      <point x="860" y="-12"/>
      <point x="1049" y="33"/>
      <point x="1163" y="367" type="curve"/>
    </contour>
    <contour>
      <point x="549" y="367" type="line" smooth="yes"/>
      <point x="522" y="246"/>
      <point x="440" y="186"/>
      <point x="379" y="186" type="curve" smooth="yes"/>
      <point x="342" y="186"/>
      <point x="276" y="190"/>
      <point x="276" y="346" type="curve" smooth="yes"/>
      <point x="276" y="539"/>
      <point x="389" y="907"/>
      <point x="563" y="907" type="curve" smooth="yes"/>
      <point x="629" y="907"/>
      <point x="647" y="854"/>
      <point x="647" y="829" type="curve"/>
    </contour>
    <contour>
      <point x="801" y="1303" type="curve" smooth="yes"/>
      <point x="801" y="1391"/>
      <point x="754" y="1460"/>
      <point x="653" y="1460" type="curve" smooth="yes"/>
      <point x="530" y="1460"/>
      <point x="479" y="1348"/>
      <point x="479" y="1274" type="curve" smooth="yes"/>
      <point x="479" y="1194"/>
      <point x="535" y="1130"/>
      <point x="623" y="1130" type="curve" smooth="yes"/>
      <point x="752" y="1130"/>
      <point x="801" y="1212"/>
    </contour>
    <contour>
      <point x="725" y="1296" type="curve" smooth="yes"/>
      <point x="725" y="1239"/>
      <point x="694" y="1202"/>
      <point x="631" y="1202" type="curve" smooth="yes"/>
      <point x="582" y="1202"/>
      <point x="561" y="1231"/>
      <point x="561" y="1278" type="curve" smooth="yes"/>
      <point x="561" y="1329"/>
      <point x="586" y="1393"/>
      <point x="657" y="1393" type="curve" smooth="yes"/>
      <point x="723" y="1393"/>
      <point x="725" y="1337"/>
    </contour>
  </outline>
</glyph>
<glyph name="ae" format="1">
  <advance width="1331"/>
  <unicode hex="00E6"/>
  <outline>
    <contour>
      <point x="1331" y="367" type="line"/>
      <point x="1217" y="242"/>
      <point x="1143" y="160"/>
      <point x="944" y="160" type="curve" smooth="yes"/>
      <point x="870" y="160"/>
      <point x="821" y="195"/>
      <point x="821" y="348" type="curve" smooth="yes"/>
      <point x="821" y="371"/>
      <point x="823" y="391"/>
      <point x="825" y="414" type="curve"/>
      <point x="1071" y="430"/>
      <point x="1296" y="610"/>
      <point x="1296" y="840" type="curve" smooth="yes"/>
      <point x="1296" y="948"/>
      <point x="1255" y="1042"/>
      <point x="1073" y="1042" type="curve" smooth="yes"/>
      <point x="961" y="1042"/>
      <point x="870" y="1008"/>
      <point x="797" y="952" type="curve"/>
      <point x="725" y="1010"/>
      <point x="635" y="1034"/>
      <point x="530" y="1034" type="curve" smooth="yes"/>
      <point x="416" y="1034"/>
      <point x="311" y="1028"/>
      <point x="158" y="874" type="curve"/>
      <point x="215" y="815" type="line"/>
      <point x="274" y="870"/>
      <point x="340" y="911"/>
      <point x="463" y="911" type="curve" smooth="yes"/>
      <point x="551" y="911"/>
      <point x="588" y="848"/>
      <point x="588" y="766" type="curve" smooth="yes"/>
      <point x="588" y="709"/>
      <point x="571" y="643"/>
      <point x="545" y="586" type="curve"/>
      <point x="520" y="592"/>
      <point x="487" y="594"/>
      <point x="438" y="594" type="curve" smooth="yes"/>
      <point x="182" y="594"/>
      <point x="-16" y="508"/>
      <point x="-16" y="254" type="curve" smooth="yes"/>
      <point x="-16" y="37"/>
      <point x="123" y="-12"/>
      <point x="244" y="-12" type="curve" smooth="yes"/>
      <point x="406" y="-12"/>
      <point x="479" y="80"/>
      <point x="535" y="184" type="curve"/>
      <point x="573" y="45"/>
      <point x="686" y="-8"/>
      <point x="836" y="-8" type="curve" smooth="yes"/>
      <point x="1112" y="-8"/>
      <point x="1288" y="182"/>
      <point x="1401" y="367" type="curve"/>
    </contour>
    <contour>
      <point x="840" y="512" type="curve"/>
      <point x="883" y="709"/>
      <point x="981" y="934"/>
      <point x="1090" y="934" type="curve" smooth="yes"/>
      <point x="1128" y="934"/>
      <point x="1139" y="901"/>
      <point x="1139" y="844" type="curve" smooth="yes"/>
      <point x="1139" y="682"/>
      <point x="997" y="522"/>
    </contour>
    <contour>
      <point x="530" y="467" type="curve"/>
      <point x="487" y="244"/>
      <point x="436" y="186"/>
      <point x="367" y="186" type="curve" smooth="yes"/>
      <point x="342" y="186"/>
      <point x="272" y="197"/>
      <point x="272" y="289" type="curve" smooth="yes"/>
      <point x="272" y="397"/>
      <point x="362" y="469"/>
      <point x="496" y="469" type="curve" smooth="yes"/>
      <point x="510" y="469"/>
      <point x="516" y="469"/>
    </contour>
  </outline>
</glyph>
<glyph name="ccedilla" format="1">
  <advance width="786"/>
  <unicode hex="00E7"/>
  <outline>
    <contour>
      <point x="268" y="-244" type="line"/>
      <point x="291" y="-233"/>
      <point x="319" y="-219"/>
      <point x="375" y="-219" type="curve" smooth="yes"/>
      <point x="432" y="-219"/>
      <point x="455" y="-254"/>
      <point x="455" y="-293" type="curve" smooth="yes"/>
      <point x="455" y="-336"/>
      <point x="428" y="-379"/>
      <point x="393" y="-379" type="curve" smooth="yes"/>
      <point x="334" y="-379"/>
      <point x="324" y="-324"/>
      <point x="242" y="-324" type="curve" smooth="yes"/>
      <point x="203" y="-324"/>
      <point x="178" y="-356"/>
      <point x="160" y="-389" type="curve"/>
      <point x="219" y="-420"/>
      <point x="274" y="-446"/>
      <point x="379" y="-446" type="curve" smooth="yes"/>
      <point x="500" y="-446"/>
      <point x="625" y="-369"/>
      <point x="625" y="-221" type="curve" smooth="yes"/>
      <point x="625" y="-158"/>
      <point x="586" y="-119"/>
      <point x="498" y="-119" type="curve" smooth="yes"/>
      <point x="469" y="-119"/>
      <point x="432" y="-125"/>
      <point x="389" y="-135" type="curve"/>
      <point x="449" y="10" type="line"/>
      <point x="633" y="66"/>
      <point x="764" y="215"/>
      <point x="856" y="367" type="curve"/>
      <point x="786" y="367" type="line"/>
      <point x="682" y="252"/>
      <point x="586" y="160"/>
      <point x="424" y="160" type="curve" smooth="yes"/>
      <point x="326" y="160"/>
      <point x="276" y="193"/>
      <point x="276" y="332" type="curve" smooth="yes"/>
      <point x="276" y="559"/>
      <point x="410" y="934"/>
      <point x="539" y="934" type="curve" smooth="yes"/>
      <point x="578" y="934"/>
      <point x="596" y="901"/>
      <point x="596" y="850" type="curve" smooth="yes"/>
      <point x="596" y="815"/>
      <point x="588" y="774"/>
      <point x="571" y="729" type="curve"/>
      <point x="596" y="713"/>
      <point x="621" y="705"/>
      <point x="643" y="705" type="curve" smooth="yes"/>
      <point x="702" y="705"/>
      <point x="752" y="754"/>
      <point x="752" y="854" type="curve" smooth="yes"/>
      <point x="752" y="946"/>
      <point x="705" y="1042"/>
      <point x="524" y="1042" type="curve" smooth="yes"/>
      <point x="109" y="1042"/>
      <point x="-27" y="551"/>
      <point x="-27" y="313" type="curve" smooth="yes"/>
      <point x="-27" y="82"/>
      <point x="98" y="-12"/>
      <point x="293" y="-12" type="curve" smooth="yes"/>
      <point x="313" y="-12"/>
      <point x="334" y="-10"/>
      <point x="352" y="-8" type="curve"/>
    </contour>
  </outline>
</glyph>
<glyph name="eth" format="1">
  <advance width="1102"/>
  <unicode hex="00F0"/>
  <outline>
    <contour>
      <point x="1102" y="367" type="line"/>
      <point x="1071" y="262"/>
      <point x="1016" y="186"/>
      <point x="936" y="186" type="curve" smooth="yes"/>
      <point x="879" y="186"/>
      <point x="852" y="205"/>
      <point x="852" y="262" type="curve" smooth="yes"/>
      <point x="852" y="283"/>
      <point x="854" y="305"/>
      <point x="860" y="328" type="curve"/>
      <point x="964" y="810" type="line" smooth="yes"/>
      <point x="1026" y="1095"/>
      <point x="965" y="1352"/>
      <point x="753" y="1537" type="curve"/>
      <point x="576" y="1470" type="line"/>
      <point x="730" y="1289"/>
      <point x="728" y="1130"/>
      <point x="697" y="918" type="curve"/>
      <point x="697" y="989"/>
      <point x="641" y="1034"/>
      <point x="524" y="1034" type="curve" smooth="yes"/>
      <point x="168" y="1034"/>
      <point x="-2" y="596"/>
      <point x="-2" y="317" type="curve" smooth="yes"/>
      <point x="-2" y="74"/>
      <point x="131" y="-12"/>
      <point x="270" y="-12" type="curve" smooth="yes"/>
      <point x="416" y="-12"/>
      <point x="514" y="84"/>
      <point x="575" y="178" type="curve"/>
      <point x="592" y="61"/>
      <point x="664" y="0"/>
      <point x="776" y="0" type="curve" smooth="yes"/>
      <point x="885" y="0"/>
      <point x="1073" y="33"/>
      <point x="1188" y="367" type="curve"/>
    </contour>
    <contour>
      <point x="573" y="367" type="line" smooth="yes"/>
      <point x="547" y="246"/>
      <point x="465" y="186"/>
      <point x="403" y="186" type="curve" smooth="yes"/>
      <point x="367" y="186"/>
      <point x="301" y="190"/>
      <point x="301" y="346" type="curve" smooth="yes"/>
      <point x="301" y="539"/>
      <point x="414" y="907"/>
      <point x="588" y="907" type="curve" smooth="yes"/>
      <point x="653" y="907"/>
      <point x="672" y="852"/>
      <point x="672" y="829" type="curve"/>
    </contour>
    <contour>
      <point x="1137" y="1336" type="line"/>
      <point x="1110" y="1449" type="line"/>
      <point x="431" y="1257" type="line"/>
      <point x="455" y="1152" type="line"/>
    </contour>
  </outline>
</glyph>
<glyph name="ntilde" format="1">
  <advance width="1034"/>
  <unicode hex="00F1"/>
  <outline>
    <contour>
      <point x="1034" y="367" type="line"/>
      <point x="991" y="260"/>
      <point x="950" y="186"/>
      <point x="862" y="186" type="curve" smooth="yes"/>
      <point x="799" y="186"/>
      <point x="780" y="221"/>
      <point x="780" y="272" type="curve" smooth="yes"/>
      <point x="780" y="387"/>
      <point x="879" y="635"/>
      <point x="879" y="801" type="curve" smooth="yes"/>
      <point x="879" y="965"/>
      <point x="782" y="1032"/>
      <point x="651" y="1032" type="curve" smooth="yes"/>
      <point x="588" y="1032"/>
      <point x="500" y="1016"/>
      <point x="412" y="918" type="curve"/>
      <point x="434" y="1024" type="line"/>
      <point x="139" y="1024" type="line"/>
      <point x="-78" y="0" type="line"/>
      <point x="217" y="0" type="line"/>
      <point x="356" y="657" type="line"/>
      <point x="387" y="762"/>
      <point x="442" y="846"/>
      <point x="516" y="846" type="curve" smooth="yes"/>
      <point x="565" y="846"/>
      <point x="590" y="811"/>
      <point x="590" y="741" type="curve" smooth="yes"/>
      <point x="590" y="610"/>
      <point x="498" y="358"/>
      <point x="498" y="219" type="curve" smooth="yes"/>
      <point x="498" y="102"/>
      <point x="559" y="-12"/>
      <point x="739" y="-12" type="curve" smooth="yes"/>
      <point x="848" y="-12"/>
      <point x="1006" y="31"/>
      <point x="1120" y="367" type="curve"/>
    </contour>
    <contour>
      <point x="989" y="1372" type="line"/>
      <point x="958" y="1341"/>
      <point x="911" y="1325"/>
      <point x="860" y="1325" type="curve" smooth="yes"/>
      <point x="741" y="1325"/>
      <point x="670" y="1393"/>
      <point x="522" y="1393" type="curve" smooth="yes"/>
      <point x="367" y="1393"/>
      <point x="246" y="1323"/>
      <point x="180" y="1192" type="curve"/>
      <point x="193" y="1188" type="line"/>
      <point x="231" y="1223"/>
      <point x="276" y="1241"/>
      <point x="328" y="1241" type="curve" smooth="yes"/>
      <point x="442" y="1241"/>
      <point x="535" y="1165"/>
      <point x="672" y="1165" type="curve" smooth="yes"/>
      <point x="827" y="1165"/>
      <point x="981" y="1274"/>
      <point x="1001" y="1370" type="curve"/>
    </contour>
  </outline>
</glyph>
<glyph name="ocircumflex" format="1">
  <advance width="887"/>
  <unicode hex="00F4"/>
  <outline>
    <contour>
      <point x="1120" y="834" type="line"/>
      <point x="1032" y="772"/>
      <point x="901" y="711"/>
      <point x="805" y="711" type="curve" smooth="yes"/>
      <point x="795" y="711"/>
      <point x="788" y="711"/>
      <point x="782" y="713" type="curve"/>
      <point x="782" y="715" type="line"/>
      <point x="782" y="934"/>
      <point x="694" y="1042"/>
      <point x="520" y="1042" type="curve" smooth="yes"/>
      <point x="100" y="1042"/>
      <point x="-41" y="553"/>
      <point x="-41" y="315" type="curve" smooth="yes"/>
      <point x="-41" y="80"/>
      <point x="96" y="-8"/>
      <point x="287" y="-8" type="curve" smooth="yes"/>
      <point x="539" y="-8"/>
      <point x="743" y="229"/>
      <point x="776" y="608" type="curve"/>
      <point x="926" y="633"/>
      <point x="1059" y="694"/>
      <point x="1139" y="778" type="curve"/>
    </contour>
    <contour>
      <point x="606" y="602" type="curve"/>
      <point x="573" y="362"/>
      <point x="469" y="176"/>
      <point x="369" y="176" type="curve" smooth="yes"/>
      <point x="291" y="176"/>
      <point x="264" y="207"/>
      <point x="264" y="342" type="curve" smooth="yes"/>
      <point x="264" y="545"/>
      <point x="391" y="918"/>
      <point x="537" y="918" type="curve" smooth="yes"/>
      <point x="592" y="918"/>
      <point x="608" y="887"/>
      <point x="614" y="799" type="curve"/>
      <point x="575" y="782"/>
      <point x="551" y="745"/>
      <point x="551" y="688" type="curve" smooth="yes"/>
      <point x="551" y="647"/>
      <point x="563" y="612"/>
    </contour>
    <contour>
      <point x="795" y="1149" type="line"/>
      <point x="672" y="1536" type="line"/>
      <point x="629" y="1536" type="line"/>
      <point x="195" y="1149" type="line"/>
      <point x="285" y="1149" type="line"/>
      <point x="606" y="1313" type="line"/>
      <point x="729" y="1149" type="line"/>
    </contour>
  </outline>
</glyph>
<glyph name="otilde" format="1">
  <advance width="887"/>
  <unicode hex="00F5"/>
  <outline>
    <contour>
      <point x="1120" y="834" type="line"/>
      <point x="1032" y="772"/>
      <point x="901" y="711"/>
      <point x="805" y="711" type="curve" smooth="yes"/>
      <point x="795" y="711"/>
      <point x="788" y="711"/>
      <point x="782" y="713" type="curve"/>
      <point x="782" y="715" type="line"/>
      <point x="782" y="934"/>
      <point x="694" y="1042"/>
      <point x="520" y="1042" type="curve" smooth="yes"/>
      <point x="100" y="1042"/>
      <point x="-41" y="553"/>
      <point x="-41" y="315" type="curve" smooth="yes"/>
      <point x="-41" y="80"/>
      <point x="96" y="-8"/>
      <point x="287" y="-8" type="curve" smooth="yes"/>
      <point x="539" y="-8"/>
      <point x="743" y="229"/>
      <point x="776" y="608" type="curve"/>
      <point x="926" y="633"/>
      <point x="1059" y="694"/>
      <point x="1139" y="778" type="curve"/>
    </contour>
    <contour>
      <point x="606" y="602" type="curve"/>
      <point x="573" y="362"/>
      <point x="469" y="176"/>
      <point x="369" y="176" type="curve" smooth="yes"/>
      <point x="291" y="176"/>
      <point x="264" y="207"/>
      <point x="264" y="342" type="curve" smooth="yes"/>
      <point x="264" y="545"/>
      <point x="391" y="918"/>
      <point x="537" y="918" type="curve" smooth="yes"/>
      <point x="592" y="918"/>
      <point x="608" y="887"/>
      <point x="614" y="799" type="curve"/>
      <point x="575" y="782"/>
      <point x="551" y="745"/>
      <point x="551" y="688" type="curve" smooth="yes"/>
      <point x="551" y="647"/>
      <point x="563" y="612"/>
    </contour>
    <contour>
      <point x="891" y="1372" type="line"/>
      <point x="860" y="1341"/>
      <point x="813" y="1325"/>
      <point x="762" y="1325" type="curve" smooth="yes"/>
      <point x="643" y="1325"/>
      <point x="571" y="1393"/>
      <point x="424" y="1393" type="curve" smooth="yes"/>
      <point x="268" y="1393"/>
      <point x="147" y="1323"/>
      <point x="82" y="1192" type="curve"/>
      <point x="94" y="1188" type="line"/>
      <point x="133" y="1223"/>
      <point x="178" y="1241"/>
      <point x="229" y="1241" type="curve" smooth="yes"/>
      <point x="344" y="1241"/>
      <point x="436" y="1165"/>
      <point x="573" y="1165" type="curve" smooth="yes"/>
      <point x="729" y="1165"/>
      <point x="883" y="1274"/>
      <point x="903" y="1370" type="curve"/>
    </contour>
  </outline>
</glyph>
<glyph name="odieresis" format="1">
  <advance width="887"/>
  <unicode hex="00F6"/>
  <outline>
    <contour>
      <point x="1120" y="834" type="line"/>
      <point x="1032" y="772"/>
      <point x="901" y="711"/>
      <point x="805" y="711" type="curve" smooth="yes"/>
      <point x="795" y="711"/>
      <point x="788" y="711"/>
      <point x="782" y="713" type="curve"/>
      <point x="782" y="715" type="line"/>
      <point x="782" y="934"/>
      <point x="694" y="1042"/>
      <point x="520" y="1042" type="curve" smooth="yes"/>
      <point x="100" y="1042"/>
      <point x="-41" y="553"/>
      <point x="-41" y="315" type="curve" smooth="yes"/>
      <point x="-41" y="80"/>
      <point x="96" y="-8"/>
      <point x="287" y="-8" type="curve" smooth="yes"/>
      <point x="539" y="-8"/>
      <point x="743" y="229"/>
      <point x="776" y="608" type="curve"/>
      <point x="926" y="633"/>
      <point x="1059" y="694"/>
      <point x="1139" y="778" type="curve"/>
    </contour>
    <contour>
      <point x="606" y="602" type="curve"/>
      <point x="573" y="362"/>
      <point x="469" y="176"/>
      <point x="369" y="176" type="curve" smooth="yes"/>
      <point x="291" y="176"/>
      <point x="264" y="207"/>
      <point x="264" y="342" type="curve" smooth="yes"/>
      <point x="264" y="545"/>
      <point x="391" y="918"/>
      <point x="537" y="918" type="curve" smooth="yes"/>
      <point x="592" y="918"/>
      <point x="608" y="887"/>
      <point x="614" y="799" type="curve"/>
      <point x="575" y="782"/>
      <point x="551" y="745"/>
      <point x="551" y="688" type="curve" smooth="yes"/>
      <point x="551" y="647"/>
      <point x="563" y="612"/>
    </contour>
    <contour>
      <point x="465" y="1298" type="curve" smooth="yes"/>
      <point x="465" y="1366"/>
      <point x="408" y="1423"/>
      <point x="340" y="1423" type="curve" smooth="yes"/>
      <point x="268" y="1423"/>
      <point x="215" y="1366"/>
      <point x="215" y="1298" type="curve" smooth="yes"/>
      <point x="215" y="1227"/>
      <point x="268" y="1174"/>
      <point x="340" y="1174" type="curve" smooth="yes"/>
      <point x="408" y="1174"/>
      <point x="465" y="1227"/>
    </contour>
    <contour>
      <point x="834" y="1298" type="curve" smooth="yes"/>
      <point x="834" y="1366"/>
      <point x="776" y="1423"/>
      <point x="709" y="1423" type="curve" smooth="yes"/>
      <point x="637" y="1423"/>
      <point x="584" y="1366"/>
      <point x="584" y="1298" type="curve" smooth="yes"/>
      <point x="584" y="1227"/>
      <point x="637" y="1174"/>
      <point x="709" y="1174" type="curve" smooth="yes"/>
      <point x="776" y="1174"/>
      <point x="834" y="1227"/>
    </contour>
  </outline>
</glyph>
<glyph name="divide" format="1">
  <advance width="850"/>
  <unicode hex="00F7"/>
  <outline>
    <contour>
      <point x="834" y="778" type="line"/>
      <point x="117" y="778" type="line"/>
      <point x="80" y="616" type="line"/>
      <point x="799" y="616" type="line"/>
    </contour>
    <contour>
      <point x="240" y="334" type="curve" smooth="yes"/>
      <point x="240" y="244"/>
      <point x="311" y="172"/>
      <point x="401" y="172" type="curve" smooth="yes"/>
      <point x="492" y="172"/>
      <point x="565" y="244"/>
      <point x="565" y="334" type="curve" smooth="yes"/>
      <point x="565" y="424"/>
      <point x="492" y="498"/>
      <point x="401" y="498" type="curve" smooth="yes"/>
      <point x="311" y="498"/>
      <point x="240" y="424"/>
    </contour>
    <contour>
      <point x="362" y="1061" type="curve" smooth="yes"/>
      <point x="362" y="971"/>
      <point x="434" y="899"/>
      <point x="524" y="899" type="curve" smooth="yes"/>
      <point x="614" y="899"/>
      <point x="688" y="971"/>
      <point x="688" y="1061" type="curve" smooth="yes"/>
      <point x="688" y="1151"/>
      <point x="614" y="1225"/>
      <point x="524" y="1225" type="curve" smooth="yes"/>
      <point x="434" y="1225"/>
      <point x="362" y="1151"/>
    </contour>
  </outline>
</glyph>
<glyph name="thorn" format="1">
  <advance width="969"/>
  <unicode hex="00FE"/>
  <outline>
    <contour>
      <point x="241" y="1499" type="line"/>
      <point x="-187" y="-512" type="line"/>
      <point x="123" y="-438" type="line"/>
      <point x="229" y="61" type="line"/>
      <point x="254" y="14"/>
      <point x="315" y="-12"/>
      <point x="401" y="-12" type="curve" smooth="yes"/>
      <point x="690" y="-12"/>
      <point x="907" y="289"/>
      <point x="907" y="688" type="curve" smooth="yes"/>
      <point x="907" y="926"/>
      <point x="829" y="1034"/>
      <point x="657" y="1034" type="curve" smooth="yes"/>
      <point x="565" y="1034"/>
      <point x="483" y="1004"/>
      <point x="418" y="946" type="curve"/>
      <point x="409" y="946" type="line"/>
      <point x="545" y="1540" type="line"/>
    </contour>
    <contour>
      <point x="329" y="123" type="curve" smooth="yes"/>
      <point x="291" y="123"/>
      <point x="260" y="141"/>
      <point x="252" y="170" type="curve"/>
      <point x="383" y="786" type="line"/>
      <point x="422" y="852"/>
      <point x="473" y="887"/>
      <point x="526" y="887" type="curve" smooth="yes"/>
      <point x="594" y="887"/>
      <point x="626" y="825"/>
      <point x="626" y="696" type="curve" smooth="yes"/>
      <point x="626" y="410"/>
      <point x="479" y="123"/>
    </contour>
  </outline>
</glyph>
<glyph name="Abreve" format="1">
  <advance width="1368"/>
  <unicode hex="0102"/>
  <outline>
    <contour>
      <point x="1096" y="0" type="line"/>
      <point x="1417" y="1507" type="line"/>
      <point x="1368" y="1530"/>
      <point x="1303" y="1536"/>
      <point x="1255" y="1536" type="curve" smooth="yes"/>
      <point x="1016" y="1536"/>
      <point x="750" y="1260"/>
      <point x="543" y="932" type="curve"/>
      <point x="500" y="936"/>
      <point x="463" y="938"/>
      <point x="436" y="938" type="curve" smooth="yes"/>
      <point x="197" y="938"/>
      <point x="18" y="825"/>
      <point x="18" y="686" type="curve" smooth="yes"/>
      <point x="18" y="606"/>
      <point x="74" y="567"/>
      <point x="145" y="567" type="curve" smooth="yes"/>
      <point x="209" y="567"/>
      <point x="260" y="598"/>
      <point x="260" y="647" type="curve" smooth="yes"/>
      <point x="260" y="678"/>
      <point x="244" y="711"/>
      <point x="233" y="711" type="curve"/>
      <point x="260" y="782"/>
      <point x="344" y="809"/>
      <point x="473" y="817" type="curve"/>
      <point x="293" y="504"/>
      <point x="172" y="166"/>
      <point x="172" y="-16" type="curve" smooth="yes"/>
      <point x="172" y="-229"/>
      <point x="338" y="-233"/>
      <point x="446" y="-233" type="curve"/>
      <point x="432" y="-215"/>
      <point x="418" y="-184"/>
      <point x="418" y="-119" type="curve" smooth="yes"/>
      <point x="418" y="94"/>
      <point x="530" y="483"/>
      <point x="684" y="817" type="curve"/>
      <point x="774" y="809"/>
      <point x="854" y="791"/>
      <point x="958" y="743" type="curve"/>
      <point x="801" y="0" type="line"/>
    </contour>
    <contour>
      <point x="977" y="834" type="line"/>
      <point x="897" y="866"/>
      <point x="809" y="889"/>
      <point x="727" y="905" type="curve"/>
      <point x="842" y="1135"/>
      <point x="973" y="1325"/>
      <point x="1096" y="1391" type="curve"/>
    </contour>
    <contour>
      <point x="1513" y="1953" type="line"/>
      <point x="1500" y="1859"/>
      <point x="1402" y="1783"/>
      <point x="1289" y="1783" type="curve" smooth="yes"/>
      <point x="1187" y="1783"/>
      <point x="1128" y="1844"/>
      <point x="1128" y="1953" type="curve"/>
      <point x="945" y="1953" type="line"/>
      <point x="945" y="1768"/>
      <point x="1054" y="1670"/>
      <point x="1257" y="1670" type="curve" smooth="yes"/>
      <point x="1478" y="1670"/>
      <point x="1666" y="1793"/>
      <point x="1689" y="1953" type="curve"/>
    </contour>
  </outline>
</glyph>
<glyph name="aogonek" format="1">
  <advance width="1077"/>
  <unicode hex="0105"/>
  <outline>
    <contour>
      <point x="1077" y="367" type="line"/>
      <point x="1047" y="262"/>
      <point x="991" y="174"/>
      <point x="911" y="174" type="curve" smooth="yes"/>
      <point x="856" y="174"/>
      <point x="827" y="203"/>
      <point x="827" y="262" type="curve" smooth="yes"/>
      <point x="827" y="283"/>
      <point x="829" y="305"/>
      <point x="836" y="328" type="curve"/>
      <point x="983" y="1024" type="line"/>
      <point x="688" y="1024" type="line"/>
      <point x="666" y="915" type="line"/>
      <point x="666" y="930" type="line" smooth="yes"/>
      <point x="666" y="989"/>
      <point x="616" y="1034"/>
      <point x="500" y="1034" type="curve" smooth="yes"/>
      <point x="143" y="1034"/>
      <point x="-27" y="596"/>
      <point x="-27" y="317" type="curve" smooth="yes"/>
      <point x="-27" y="74"/>
      <point x="106" y="-12"/>
      <point x="246" y="-12" type="curve" smooth="yes"/>
      <point x="393" y="-12"/>
      <point x="485" y="84"/>
      <point x="551" y="176" type="curve"/>
      <point x="561" y="61"/>
      <point x="625" y="0"/>
      <point x="723" y="-10" type="curve"/>
      <point x="635" y="-86"/>
      <point x="592" y="-164"/>
      <point x="592" y="-236" type="curve" smooth="yes"/>
      <point x="592" y="-307"/>
      <point x="641" y="-395"/>
      <point x="754" y="-395" type="curve" smooth="yes"/>
      <point x="856" y="-395"/>
      <point x="930" y="-315"/>
      <point x="977" y="-268" type="curve"/>
      <point x="977" y="-244"/>
      <point x="979" y="-229"/>
      <point x="981" y="-205" type="curve"/>
      <point x="940" y="-231"/>
      <point x="891" y="-274"/>
      <point x="842" y="-274" type="curve" smooth="yes"/>
      <point x="784" y="-274"/>
      <point x="762" y="-219"/>
      <point x="762" y="-172" type="curve" smooth="yes"/>
      <point x="762" y="-88"/>
      <point x="831" y="-12"/>
      <point x="877" y="10" type="curve"/>
      <point x="975" y="53"/>
      <point x="1081" y="141"/>
      <point x="1163" y="367" type="curve"/>
    </contour>
    <contour>
      <point x="549" y="367" type="line" smooth="yes"/>
      <point x="522" y="246"/>
      <point x="440" y="186"/>
      <point x="379" y="186" type="curve" smooth="yes"/>
      <point x="342" y="186"/>
      <point x="276" y="190"/>
      <point x="276" y="346" type="curve" smooth="yes"/>
      <point x="276" y="539"/>
      <point x="389" y="907"/>
      <point x="563" y="907" type="curve" smooth="yes"/>
      <point x="629" y="907"/>
      <point x="647" y="854"/>
      <point x="647" y="829" type="curve"/>
    </contour>
  </outline>
</glyph>
<glyph name="Dcaron" format="1">
  <advance width="1358"/>
  <unicode hex="010E"/>
  <outline>
    <contour>
      <point x="1213" y="2048" type="line"/>
      <point x="1123" y="2048" type="line"/>
      <point x="801" y="1884" type="line"/>
      <point x="678" y="2048" type="line"/>
      <point x="613" y="2048" type="line"/>
      <point x="736" y="1661" type="line"/>
      <point x="779" y="1661" type="line"/>
    </contour>
    <contour>
      <point x="487" y="0" type="line"/>
      <point x="504" y="82" type="line"/>
      <point x="592" y="6"/>
      <point x="674" y="-27"/>
      <point x="754" y="-27" type="curve" smooth="yes"/>
      <point x="1057" y="-27"/>
      <point x="1321" y="477"/>
      <point x="1321" y="946" type="curve" smooth="yes"/>
      <point x="1321" y="1260"/>
      <point x="1171" y="1536"/>
      <point x="774" y="1536" type="curve" smooth="yes"/>
      <point x="358" y="1536"/>
      <point x="12" y="1276"/>
      <point x="12" y="995" type="curve" smooth="yes"/>
      <point x="12" y="856"/>
      <point x="94" y="805"/>
      <point x="231" y="805" type="curve"/>
      <point x="231" y="821"/>
      <point x="203" y="840"/>
      <point x="203" y="944" type="curve" smooth="yes"/>
      <point x="203" y="1255"/>
      <point x="434" y="1442"/>
      <point x="739" y="1442" type="curve" smooth="yes"/>
      <point x="918" y="1442"/>
      <point x="1038" y="1333"/>
      <point x="1038" y="1055" type="curve" smooth="yes"/>
      <point x="1038" y="641"/>
      <point x="889" y="154"/>
      <point x="645" y="154" type="curve" smooth="yes"/>
      <point x="604" y="154"/>
      <point x="565" y="168"/>
      <point x="528" y="195" type="curve"/>
      <point x="774" y="1343" type="line"/>
      <point x="471" y="1303" type="line"/>
      <point x="193" y="0" type="line"/>
    </contour>
  </outline>
</glyph>
<glyph name="Emacron" format="1">
  <advance width="940"/>
  <unicode hex="0112"/>
  <outline>
    <contour>
      <point x="944" y="369" type="line"/>
      <point x="868" y="231"/>
      <point x="690" y="160"/>
      <point x="565" y="160" type="curve" smooth="yes"/>
      <point x="426" y="160"/>
      <point x="371" y="252"/>
      <point x="371" y="367" type="curve" smooth="yes"/>
      <point x="371" y="555"/>
      <point x="518" y="807"/>
      <point x="737" y="856" type="curve"/>
      <point x="590" y="895"/>
      <point x="530" y="1010"/>
      <point x="530" y="1130" type="curve" smooth="yes"/>
      <point x="530" y="1274"/>
      <point x="616" y="1419"/>
      <point x="739" y="1419" type="curve" smooth="yes"/>
      <point x="795" y="1419"/>
      <point x="852" y="1389"/>
      <point x="852" y="1305" type="curve" smooth="yes"/>
      <point x="852" y="1233"/>
      <point x="811" y="1143"/>
      <point x="762" y="1126" type="curve"/>
      <point x="788" y="1090"/>
      <point x="821" y="1071"/>
      <point x="858" y="1071" type="curve" smooth="yes"/>
      <point x="940" y="1071"/>
      <point x="1010" y="1161"/>
      <point x="1010" y="1284" type="curve" smooth="yes"/>
      <point x="1010" y="1452"/>
      <point x="881" y="1540"/>
      <point x="717" y="1540" type="curve" smooth="yes"/>
      <point x="455" y="1540"/>
      <point x="268" y="1311"/>
      <point x="268" y="1100" type="curve" smooth="yes"/>
      <point x="268" y="1008"/>
      <point x="305" y="918"/>
      <point x="393" y="854" type="curve"/>
      <point x="156" y="793"/>
      <point x="14" y="539"/>
      <point x="14" y="324" type="curve" smooth="yes"/>
      <point x="14" y="133"/>
      <point x="127" y="-37"/>
      <point x="391" y="-37" type="curve" smooth="yes"/>
      <point x="639" y="-37"/>
      <point x="883" y="109"/>
      <point x="991" y="348" type="curve"/>
    </contour>
    <contour>
      <point x="1146" y="1890" type="line"/>
      <point x="491" y="1890" type="line"/>
      <point x="458" y="1738" type="line"/>
      <point x="1116" y="1738" type="line"/>
    </contour>
  </outline>
</glyph>
<glyph name="ebreve" format="1">
  <advance width="786"/>
  <unicode hex="0115"/>
  <outline>
    <contour>
      <point x="786" y="367" type="line"/>
      <point x="682" y="252"/>
      <point x="586" y="160"/>
      <point x="424" y="160" type="curve" smooth="yes"/>
      <point x="326" y="160"/>
      <point x="276" y="193"/>
      <point x="276" y="332" type="curve" smooth="yes"/>
      <point x="276" y="356"/>
      <point x="279" y="383"/>
      <point x="281" y="414" type="curve"/>
      <point x="526" y="430"/>
      <point x="752" y="608"/>
      <point x="752" y="846" type="curve" smooth="yes"/>
      <point x="752" y="948"/>
      <point x="709" y="1042"/>
      <point x="526" y="1042" type="curve" smooth="yes"/>
      <point x="106" y="1042"/>
      <point x="-27" y="549"/>
      <point x="-27" y="313" type="curve" smooth="yes"/>
      <point x="-27" y="82"/>
      <point x="98" y="-12"/>
      <point x="293" y="-12" type="curve" smooth="yes"/>
      <point x="563" y="-12"/>
      <point x="741" y="176"/>
      <point x="856" y="367" type="curve"/>
    </contour>
    <contour>
      <point x="297" y="512" type="curve"/>
      <point x="336" y="715"/>
      <point x="440" y="934"/>
      <point x="543" y="934" type="curve" smooth="yes"/>
      <point x="582" y="934"/>
      <point x="594" y="901"/>
      <point x="594" y="850" type="curve" smooth="yes"/>
      <point x="594" y="680"/>
      <point x="453" y="522"/>
    </contour>
    <contour>
      <point x="717" y="1490" type="line"/>
      <point x="704" y="1396"/>
      <point x="606" y="1320"/>
      <point x="493" y="1320" type="curve" smooth="yes"/>
      <point x="391" y="1320"/>
      <point x="332" y="1381"/>
      <point x="332" y="1490" type="curve"/>
      <point x="149" y="1490" type="line"/>
      <point x="149" y="1305"/>
      <point x="258" y="1207"/>
      <point x="461" y="1207" type="curve" smooth="yes"/>
      <point x="682" y="1207"/>
      <point x="870" y="1330"/>
      <point x="893" y="1490" type="curve"/>
    </contour>
  </outline>
</glyph>
<glyph name="Eogonek" format="1">
  <advance width="940"/>
  <unicode hex="0118"/>
  <outline>
    <contour>
      <point x="944" y="369" type="line"/>
      <point x="868" y="238"/>
      <point x="778" y="172"/>
      <point x="621" y="172" type="curve" smooth="yes"/>
      <point x="489" y="172"/>
      <point x="381" y="295"/>
      <point x="381" y="444" type="curve" smooth="yes"/>
      <point x="381" y="588"/>
      <point x="477" y="748"/>
      <point x="737" y="856" type="curve"/>
      <point x="543" y="944"/>
      <point x="467" y="1073"/>
      <point x="467" y="1194" type="curve" smooth="yes"/>
      <point x="467" y="1331"/>
      <point x="569" y="1446"/>
      <point x="717" y="1446" type="curve" smooth="yes"/>
      <point x="848" y="1446"/>
      <point x="852" y="1327"/>
      <point x="852" y="1294" type="curve" smooth="yes"/>
      <point x="852" y="1243"/>
      <point x="811" y="1143"/>
      <point x="762" y="1126" type="curve"/>
      <point x="801" y="1079"/>
      <point x="846" y="1073"/>
      <point x="879" y="1073" type="curve" smooth="yes"/>
      <point x="983" y="1073"/>
      <point x="1022" y="1153"/>
      <point x="1022" y="1262" type="curve" smooth="yes"/>
      <point x="1022" y="1458"/>
      <point x="836" y="1536"/>
      <point x="645" y="1536" type="curve" smooth="yes"/>
      <point x="354" y="1536"/>
      <point x="190" y="1352"/>
      <point x="190" y="1165" type="curve" smooth="yes"/>
      <point x="190" y="1049"/>
      <point x="254" y="930"/>
      <point x="393" y="854" type="curve"/>
      <point x="147" y="805"/>
      <point x="23" y="596"/>
      <point x="23" y="401" type="curve" smooth="yes"/>
      <point x="23" y="190"/>
      <point x="164" y="-12"/>
      <point x="446" y="-12" type="curve" smooth="yes"/>
      <point x="496" y="-12"/>
      <point x="549" y="-8"/>
      <point x="600" y="2" type="curve"/>
      <point x="504" y="-74"/>
      <point x="453" y="-162"/>
      <point x="453" y="-236" type="curve" smooth="yes"/>
      <point x="453" y="-307"/>
      <point x="502" y="-395"/>
      <point x="614" y="-395" type="curve" smooth="yes"/>
      <point x="717" y="-395"/>
      <point x="791" y="-315"/>
      <point x="838" y="-268" type="curve"/>
      <point x="838" y="-244"/>
      <point x="840" y="-229"/>
      <point x="842" y="-205" type="curve"/>
      <point x="801" y="-231"/>
      <point x="752" y="-274"/>
      <point x="702" y="-274" type="curve" smooth="yes"/>
      <point x="645" y="-274"/>
      <point x="623" y="-219"/>
      <point x="623" y="-172" type="curve" smooth="yes"/>
      <point x="623" y="82"/>
      <point x="895" y="57"/>
      <point x="991" y="348" type="curve"/>
    </contour>
  </outline>
</glyph>
<glyph name="eogonek" format="1">
  <advance width="786"/>
  <unicode hex="0119"/>
  <outline>
    <contour>
      <point x="786" y="367" type="line"/>
      <point x="682" y="252"/>
      <point x="586" y="160"/>
      <point x="424" y="160" type="curve" smooth="yes"/>
      <point x="326" y="160"/>
      <point x="276" y="193"/>
      <point x="276" y="332" type="curve" smooth="yes"/>
      <point x="276" y="356"/>
      <point x="279" y="383"/>
      <point x="281" y="414" type="curve"/>
      <point x="526" y="430"/>
      <point x="752" y="608"/>
      <point x="752" y="846" type="curve" smooth="yes"/>
      <point x="752" y="948"/>
      <point x="709" y="1042"/>
      <point x="526" y="1042" type="curve" smooth="yes"/>
      <point x="106" y="1042"/>
      <point x="-27" y="549"/>
      <point x="-27" y="313" type="curve" smooth="yes"/>
      <point x="-27" y="82"/>
      <point x="98" y="-12"/>
      <point x="293" y="-12" type="curve" smooth="yes"/>
      <point x="324" y="-12"/>
      <point x="352" y="-10"/>
      <point x="379" y="-6" type="curve"/>
      <point x="289" y="-82"/>
      <point x="242" y="-164"/>
      <point x="242" y="-236" type="curve" smooth="yes"/>
      <point x="242" y="-307"/>
      <point x="291" y="-395"/>
      <point x="403" y="-395" type="curve" smooth="yes"/>
      <point x="506" y="-395"/>
      <point x="580" y="-315"/>
      <point x="627" y="-268" type="curve"/>
      <point x="627" y="-244"/>
      <point x="629" y="-229"/>
      <point x="631" y="-205" type="curve"/>
      <point x="590" y="-231"/>
      <point x="541" y="-274"/>
      <point x="492" y="-274" type="curve" smooth="yes"/>
      <point x="434" y="-274"/>
      <point x="412" y="-219"/>
      <point x="412" y="-172" type="curve" smooth="yes"/>
      <point x="412" y="66"/>
      <point x="643" y="-2"/>
      <point x="856" y="367" type="curve"/>
    </contour>
    <contour>
      <point x="297" y="512" type="curve"/>
      <point x="336" y="715"/>
      <point x="440" y="934"/>
      <point x="543" y="934" type="curve" smooth="yes"/>
      <point x="582" y="934"/>
      <point x="594" y="901"/>
      <point x="594" y="850" type="curve" smooth="yes"/>
      <point x="594" y="680"/>
      <point x="453" y="522"/>
    </contour>
  </outline>
</glyph>
<glyph name="Gcommaaccent" format="1">
  <advance width="1184"/>
  <unicode hex="0122"/>
  <outline>
    <contour>
      <point x="930" y="0" type="line"/>
      <point x="1098" y="758" type="line"/>
      <point x="856" y="758" type="line"/>
      <point x="801" y="428"/>
      <point x="649" y="166"/>
      <point x="514" y="166" type="curve" smooth="yes"/>
      <point x="414" y="166"/>
      <point x="352" y="307"/>
      <point x="352" y="537" type="curve" smooth="yes"/>
      <point x="352" y="967"/>
      <point x="582" y="1454"/>
      <point x="782" y="1454" type="curve" smooth="yes"/>
      <point x="844" y="1454"/>
      <point x="883" y="1405"/>
      <point x="883" y="1327" type="curve" smooth="yes"/>
      <point x="883" y="1253"/>
      <point x="848" y="1176"/>
      <point x="799" y="1141" type="curve"/>
      <point x="829" y="1100"/>
      <point x="872" y="1077"/>
      <point x="924" y="1077" type="curve" smooth="yes"/>
      <point x="1016" y="1077"/>
      <point x="1079" y="1155"/>
      <point x="1079" y="1270" type="curve" smooth="yes"/>
      <point x="1079" y="1436"/>
      <point x="944" y="1550"/>
      <point x="751" y="1550" type="curve" smooth="yes"/>
      <point x="358" y="1550"/>
      <point x="12" y="1075"/>
      <point x="12" y="535" type="curve" smooth="yes"/>
      <point x="12" y="190"/>
      <point x="156" y="-12"/>
      <point x="403" y="-12" type="curve" smooth="yes"/>
      <point x="518" y="-12"/>
      <point x="602" y="33"/>
      <point x="686" y="139" type="curve"/>
      <point x="694" y="139" type="line"/>
      <point x="665" y="0" type="line"/>
    </contour>
    <contour>
      <point x="411" y="-227" type="curve" smooth="yes"/>
      <point x="411" y="-293"/>
      <point x="485" y="-313"/>
      <point x="485" y="-362" type="curve" smooth="yes"/>
      <point x="485" y="-387"/>
      <point x="466" y="-414"/>
      <point x="415" y="-469" type="curve"/>
      <point x="456" y="-510" type="line"/>
      <point x="561" y="-444"/>
      <point x="634" y="-334"/>
      <point x="634" y="-244" type="curve" smooth="yes"/>
      <point x="634" y="-174"/>
      <point x="591" y="-131"/>
      <point x="526" y="-131" type="curve" smooth="yes"/>
      <point x="458" y="-131"/>
      <point x="411" y="-172"/>
    </contour>
  </outline>
</glyph>
<glyph name="Itilde" format="1">
  <advance width="768"/>
  <unicode hex="0128"/>
  <outline>
    <contour>
      <point x="487" y="0" type="line"/>
      <point x="813" y="1532" type="line"/>
      <point x="786" y="1534"/>
      <point x="762" y="1536"/>
      <point x="731" y="1536" type="curve" smooth="yes"/>
      <point x="389" y="1536"/>
      <point x="12" y="1276"/>
      <point x="12" y="1004" type="curve" smooth="yes"/>
      <point x="12" y="856"/>
      <point x="90" y="805"/>
      <point x="231" y="805" type="curve"/>
      <point x="231" y="821"/>
      <point x="203" y="840"/>
      <point x="203" y="944" type="curve" smooth="yes"/>
      <point x="203" y="1165"/>
      <point x="309" y="1317"/>
      <point x="489" y="1391" type="curve"/>
      <point x="193" y="0" type="line"/>
    </contour>
    <contour>
      <point x="1080" y="1884" type="line"/>
      <point x="1049" y="1853"/>
      <point x="1002" y="1837"/>
      <point x="951" y="1837" type="curve" smooth="yes"/>
      <point x="832" y="1837"/>
      <point x="760" y="1905"/>
      <point x="613" y="1905" type="curve" smooth="yes"/>
      <point x="457" y="1905"/>
      <point x="336" y="1835"/>
      <point x="271" y="1704" type="curve"/>
      <point x="283" y="1700" type="line"/>
      <point x="322" y="1735"/>
      <point x="367" y="1753"/>
      <point x="418" y="1753" type="curve" smooth="yes"/>
      <point x="533" y="1753"/>
      <point x="625" y="1677"/>
      <point x="762" y="1677" type="curve" smooth="yes"/>
      <point x="918" y="1677"/>
      <point x="1072" y="1786"/>
      <point x="1092" y="1882" type="curve"/>
    </contour>
  </outline>
</glyph>
<glyph name="itilde" format="1">
  <advance width="547"/>
  <unicode hex="0129"/>
  <outline>
    <contour>
      <point x="547" y="367" type="line"/>
      <point x="516" y="262"/>
      <point x="442" y="186"/>
      <point x="362" y="186" type="curve" smooth="yes"/>
      <point x="305" y="186"/>
      <point x="279" y="205"/>
      <point x="279" y="262" type="curve" smooth="yes"/>
      <point x="279" y="283"/>
      <point x="281" y="305"/>
      <point x="287" y="328" type="curve"/>
      <point x="434" y="1024" type="line"/>
      <point x="139" y="1024" type="line"/>
      <point x="0" y="367" type="line" smooth="yes"/>
      <point x="-10" y="315"/>
      <point x="-16" y="270"/>
      <point x="-16" y="233" type="curve" smooth="yes"/>
      <point x="-16" y="61"/>
      <point x="80" y="-12"/>
      <point x="203" y="-12" type="curve" smooth="yes"/>
      <point x="311" y="-12"/>
      <point x="518" y="33"/>
      <point x="633" y="367" type="curve"/>
    </contour>
    <contour>
      <point x="606" y="1372" type="line"/>
      <point x="584" y="1341"/>
      <point x="549" y="1325"/>
      <point x="513" y="1325" type="curve" smooth="yes"/>
      <point x="429" y="1325"/>
      <point x="378" y="1393"/>
      <point x="271" y="1393" type="curve" smooth="yes"/>
      <point x="160" y="1393"/>
      <point x="73" y="1323"/>
      <point x="27" y="1192" type="curve"/>
      <point x="36" y="1188" type="line"/>
      <point x="62" y="1223"/>
      <point x="95" y="1241"/>
      <point x="132" y="1241" type="curve" smooth="yes"/>
      <point x="214" y="1241"/>
      <point x="280" y="1165"/>
      <point x="379" y="1165" type="curve" smooth="yes"/>
      <point x="490" y="1165"/>
      <point x="601" y="1274"/>
      <point x="614" y="1370" type="curve"/>
    </contour>
  </outline>
</glyph>
<glyph name="Ibreve" format="1">
  <advance width="768"/>
  <unicode hex="012C"/>
  <outline>
    <contour>
      <point x="487" y="0" type="line"/>
      <point x="813" y="1532" type="line"/>
      <point x="786" y="1534"/>
      <point x="762" y="1536"/>
      <point x="731" y="1536" type="curve" smooth="yes"/>
      <point x="389" y="1536"/>
      <point x="12" y="1276"/>
      <point x="12" y="1004" type="curve" smooth="yes"/>
      <point x="12" y="856"/>
      <point x="90" y="805"/>
      <point x="231" y="805" type="curve"/>
      <point x="231" y="821"/>
      <point x="203" y="840"/>
      <point x="203" y="944" type="curve" smooth="yes"/>
      <point x="203" y="1165"/>
      <point x="309" y="1317"/>
      <point x="489" y="1391" type="curve"/>
      <point x="193" y="0" type="line"/>
    </contour>
    <contour>
      <point x="923" y="1953" type="line"/>
      <point x="910" y="1859"/>
      <point x="812" y="1783"/>
      <point x="699" y="1783" type="curve" smooth="yes"/>
      <point x="597" y="1783"/>
      <point x="538" y="1844"/>
      <point x="538" y="1953" type="curve"/>
      <point x="355" y="1953" type="line"/>
      <point x="355" y="1768"/>
      <point x="464" y="1670"/>
      <point x="667" y="1670" type="curve" smooth="yes"/>
      <point x="888" y="1670"/>
      <point x="1076" y="1793"/>
      <point x="1099" y="1953" type="curve"/>
    </contour>
  </outline>
</glyph>
<glyph name="ibreve" format="1">
  <advance width="547"/>
  <unicode hex="012D"/>
  <outline>
    <contour>
      <point x="547" y="367" type="line"/>
      <point x="516" y="262"/>
      <point x="442" y="186"/>
      <point x="362" y="186" type="curve" smooth="yes"/>
      <point x="305" y="186"/>
      <point x="279" y="205"/>
      <point x="279" y="262" type="curve" smooth="yes"/>
      <point x="279" y="283"/>
      <point x="281" y="305"/>
      <point x="287" y="328" type="curve"/>
      <point x="434" y="1024" type="line"/>
      <point x="139" y="1024" type="line"/>
      <point x="0" y="367" type="line" smooth="yes"/>
      <point x="-10" y="315"/>
      <point x="-16" y="270"/>
      <point x="-16" y="233" type="curve" smooth="yes"/>
      <point x="-16" y="61"/>
      <point x="80" y="-12"/>
      <point x="203" y="-12" type="curve" smooth="yes"/>
      <point x="311" y="-12"/>
      <point x="518" y="33"/>
      <point x="633" y="367" type="curve"/>
    </contour>
    <contour>
      <point x="531" y="1490" type="line"/>
      <point x="520" y="1396"/>
      <point x="440" y="1320"/>
      <point x="347" y="1320" type="curve" smooth="yes"/>
      <point x="265" y="1320"/>
      <point x="217" y="1381"/>
      <point x="217" y="1490" type="curve"/>
      <point x="69" y="1490" type="line"/>
      <point x="69" y="1305"/>
      <point x="156" y="1207"/>
      <point x="323" y="1207" type="curve" smooth="yes"/>
      <point x="502" y="1207"/>
      <point x="655" y="1330"/>
      <point x="673" y="1490" type="curve"/>
    </contour>
  </outline>
</glyph>
<glyph name="Iogonek" format="1">
  <advance width="768"/>
  <unicode hex="012E"/>
  <outline>
    <contour>
      <point x="487" y="0" type="line"/>
      <point x="813" y="1532" type="line"/>
      <point x="786" y="1534"/>
      <point x="762" y="1536"/>
      <point x="731" y="1536" type="curve" smooth="yes"/>
      <point x="389" y="1536"/>
      <point x="12" y="1276"/>
      <point x="12" y="1004" type="curve" smooth="yes"/>
      <point x="12" y="856"/>
      <point x="90" y="805"/>
      <point x="231" y="805" type="curve"/>
      <point x="231" y="821"/>
      <point x="203" y="840"/>
      <point x="203" y="944" type="curve" smooth="yes"/>
      <point x="203" y="1165"/>
      <point x="309" y="1317"/>
      <point x="489" y="1391" type="curve"/>
      <point x="193" y="0" type="line"/>
    </contour>
    <contour>
      <point x="625" y="1661" type="line"/>
      <point x="565" y="2048" type="line"/>
      <point x="350" y="2048" type="line"/>
      <point x="471" y="1661" type="line"/>
    </contour>
    <contour>
      <point x="320" y="31" type="line"/>
      <point x="189" y="-47"/>
      <point x="121" y="-139"/>
      <point x="121" y="-248" type="curve" smooth="yes"/>
      <point x="121" y="-358"/>
      <point x="207" y="-438"/>
      <point x="324" y="-438" type="curve" smooth="yes"/>
      <point x="428" y="-438"/>
      <point x="543" y="-367"/>
      <point x="586" y="-272" type="curve"/>
      <point x="551" y="-225" type="line"/>
      <point x="506" y="-276"/>
      <point x="455" y="-305"/>
      <point x="404" y="-305" type="curve" smooth="yes"/>
      <point x="336" y="-305"/>
      <point x="291" y="-256"/>
      <point x="291" y="-180" type="curve" smooth="yes"/>
      <point x="291" y="-82"/>
      <point x="351" y="4"/>
      <point x="437" y="31" type="curve"/>
    </contour>
  </outline>
</glyph>
<glyph name="iogonek" format="1">
  <advance width="547"/>
  <unicode hex="012F"/>
  <outline>
    <contour>
      <point x="506" y="1296" type="curve" smooth="yes"/>
      <point x="506" y="1386"/>
      <point x="432" y="1460"/>
      <point x="342" y="1460" type="curve" smooth="yes"/>
      <point x="252" y="1460"/>
      <point x="180" y="1386"/>
      <point x="180" y="1296" type="curve" smooth="yes"/>
      <point x="180" y="1206"/>
      <point x="252" y="1135"/>
      <point x="342" y="1135" type="curve" smooth="yes"/>
      <point x="432" y="1135"/>
      <point x="506" y="1206"/>
    </contour>
    <contour>
      <point x="547" y="367" type="line"/>
      <point x="516" y="262"/>
      <point x="442" y="186"/>
      <point x="362" y="186" type="curve" smooth="yes"/>
      <point x="305" y="186"/>
      <point x="279" y="205"/>
      <point x="279" y="262" type="curve" smooth="yes"/>
      <point x="279" y="283"/>
      <point x="281" y="305"/>
      <point x="287" y="328" type="curve"/>
      <point x="434" y="1024" type="line"/>
      <point x="139" y="1024" type="line"/>
      <point x="0" y="367" type="line"/>
      <point x="-10" y="315"/>
      <point x="-16" y="270"/>
      <point x="-16" y="233" type="curve" smooth="yes"/>
      <point x="-16" y="61"/>
      <point x="80" y="-12"/>
      <point x="203" y="-12" type="curve" smooth="yes"/>
      <point x="311" y="-12"/>
      <point x="518" y="33"/>
      <point x="633" y="367" type="curve"/>
    </contour>
    <contour>
      <point x="110" y="31" type="line"/>
      <point x="-21" y="-47"/>
      <point x="-89" y="-139"/>
      <point x="-89" y="-248" type="curve" smooth="yes"/>
      <point x="-89" y="-358"/>
      <point x="-3" y="-438"/>
      <point x="114" y="-438" type="curve" smooth="yes"/>
      <point x="218" y="-438"/>
      <point x="333" y="-367"/>
      <point x="376" y="-272" type="curve"/>
      <point x="341" y="-225" type="line"/>
      <point x="296" y="-276"/>
      <point x="245" y="-305"/>
      <point x="194" y="-305" type="curve" smooth="yes"/>
      <point x="126" y="-305"/>
      <point x="81" y="-256"/>
      <point x="81" y="-180" type="curve" smooth="yes"/>
      <point x="81" y="-82"/>
      <point x="141" y="4"/>
      <point x="227" y="31" type="curve"/>
    </contour>
  </outline>
</glyph>
<glyph name="Idotaccent" format="1">
  <advance width="768"/>
  <unicode hex="0130"/>
  <outline>
    <contour>
      <point x="487" y="0" type="line"/>
      <point x="813" y="1532" type="line"/>
      <point x="786" y="1534"/>
      <point x="762" y="1536"/>
      <point x="731" y="1536" type="curve" smooth="yes"/>
      <point x="389" y="1536"/>
      <point x="12" y="1276"/>
      <point x="12" y="1004" type="curve" smooth="yes"/>
      <point x="12" y="856"/>
      <point x="90" y="805"/>
      <point x="231" y="805" type="curve"/>
      <point x="231" y="821"/>
      <point x="203" y="840"/>
      <point x="203" y="944" type="curve" smooth="yes"/>
      <point x="203" y="1165"/>
      <point x="309" y="1317"/>
      <point x="489" y="1391" type="curve"/>
      <point x="193" y="0" type="line"/>
    </contour>
    <contour>
      <point x="569" y="1844" type="curve" smooth="yes"/>
      <point x="569" y="1754"/>
      <point x="641" y="1683"/>
      <point x="731" y="1683" type="curve" smooth="yes"/>
      <point x="821" y="1683"/>
      <point x="895" y="1754"/>
      <point x="895" y="1844" type="curve" smooth="yes"/>
      <point x="895" y="1935"/>
      <point x="821" y="2008"/>
      <point x="731" y="2008" type="curve" smooth="yes"/>
      <point x="641" y="2008"/>
      <point x="569" y="1935"/>
    </contour>
  </outline>
</glyph>
<glyph name="IJ" format="1">
  <advance width="1358"/>
  <unicode hex="0132"/>
  <outline>
    <contour>
      <point x="735" y="-70" type="line"/>
      <point x="692" y="-274"/>
      <point x="627" y="-322"/>
      <point x="547" y="-322" type="curve" smooth="yes"/>
      <point x="457" y="-322"/>
      <point x="401" y="-262"/>
      <point x="401" y="-182" type="curve" smooth="yes"/>
      <point x="401" y="-100"/>
      <point x="461" y="-33"/>
      <point x="535" y="-33" type="curve" smooth="yes"/>
      <point x="569" y="-33"/>
      <point x="604" y="-49"/>
      <point x="635" y="-80" type="curve"/>
      <point x="645" y="-53"/>
      <point x="649" y="-31"/>
      <point x="649" y="-12" type="curve" smooth="yes"/>
      <point x="649" y="57"/>
      <point x="596" y="106"/>
      <point x="512" y="119" type="curve"/>
      <point x="813" y="1532" type="line"/>
      <point x="786" y="1534"/>
      <point x="762" y="1536"/>
      <point x="731" y="1536" type="curve" smooth="yes"/>
      <point x="389" y="1536"/>
      <point x="12" y="1276"/>
      <point x="12" y="1004" type="curve" smooth="yes"/>
      <point x="12" y="856"/>
      <point x="90" y="805"/>
      <point x="231" y="805" type="curve"/>
      <point x="231" y="821"/>
      <point x="203" y="840"/>
      <point x="203" y="944" type="curve" smooth="yes"/>
      <point x="203" y="1165"/>
      <point x="309" y="1317"/>
      <point x="489" y="1391" type="curve"/>
      <point x="193" y="0" type="line"/>
      <point x="260" y="0" type="line"/>
      <point x="240" y="-41"/>
      <point x="229" y="-88"/>
      <point x="229" y="-143" type="curve" smooth="yes"/>
      <point x="229" y="-305"/>
      <point x="330" y="-424"/>
      <point x="559" y="-424" type="curve" smooth="yes"/>
      <point x="879" y="-424"/>
      <point x="1012" y="-203"/>
      <point x="1071" y="82" type="curve"/>
      <point x="1378" y="1536" type="line"/>
      <point x="1071" y="1468" type="line"/>
    </contour>
  </outline>
</glyph>
<glyph name="ij" format="1">
  <advance width="1038"/>
  <unicode hex="0133"/>
  <outline>
    <contour>
      <point x="506" y="1296" type="curve" smooth="yes"/>
      <point x="506" y="1386"/>
      <point x="432" y="1460"/>
      <point x="342" y="1460" type="curve" smooth="yes"/>
      <point x="252" y="1460"/>
      <point x="180" y="1386"/>
      <point x="180" y="1296" type="curve" smooth="yes"/>
      <point x="180" y="1206"/>
      <point x="252" y="1135"/>
      <point x="342" y="1135" type="curve" smooth="yes"/>
      <point x="432" y="1135"/>
      <point x="506" y="1206"/>
    </contour>
    <contour>
      <point x="0" y="367" type="line" smooth="yes"/>
      <point x="-10" y="315"/>
      <point x="-16" y="270"/>
      <point x="-16" y="233" type="curve" smooth="yes"/>
      <point x="-16" y="61"/>
      <point x="80" y="-12"/>
      <point x="203" y="-12" type="curve" smooth="yes"/>
      <point x="311" y="-12"/>
      <point x="418" y="53"/>
      <point x="428" y="199" type="curve"/>
      <point x="414" y="193"/>
      <point x="401" y="186"/>
      <point x="362" y="186" type="curve" smooth="yes"/>
      <point x="305" y="186"/>
      <point x="279" y="205"/>
      <point x="279" y="262" type="curve" smooth="yes"/>
      <point x="279" y="283"/>
      <point x="281" y="305"/>
      <point x="287" y="328" type="curve"/>
      <point x="434" y="1024" type="line"/>
      <point x="139" y="1024" type="line"/>
    </contour>
    <contour>
      <point x="762" y="-16" type="line"/>
      <point x="889" y="16"/>
      <point x="1042" y="96"/>
      <point x="1124" y="367" type="curve"/>
      <point x="1038" y="367" type="line"/>
      <point x="981" y="188"/>
      <point x="905" y="117"/>
      <point x="780" y="74" type="curve"/>
      <point x="983" y="1024" type="line"/>
      <point x="688" y="1024" type="line"/>
      <point x="469" y="-8" type="line"/>
      <point x="313" y="-57"/>
      <point x="133" y="-143"/>
      <point x="133" y="-313" type="curve" smooth="yes"/>
      <point x="133" y="-446"/>
      <point x="238" y="-512"/>
      <point x="362" y="-512" type="curve" smooth="yes"/>
      <point x="498" y="-512"/>
      <point x="672" y="-457"/>
      <point x="731" y="-164" type="curve" smooth="yes"/>
    </contour>
    <contour>
      <point x="1036" y="1298" type="curve" smooth="yes"/>
      <point x="1036" y="1389"/>
      <point x="963" y="1462"/>
      <point x="872" y="1462" type="curve" smooth="yes"/>
      <point x="782" y="1462"/>
      <point x="711" y="1389"/>
      <point x="711" y="1298" type="curve" smooth="yes"/>
      <point x="711" y="1208"/>
      <point x="782" y="1137"/>
      <point x="872" y="1137" type="curve" smooth="yes"/>
      <point x="963" y="1137"/>
      <point x="1036" y="1208"/>
    </contour>
    <contour>
      <point x="434" y="-170" type="line" smooth="yes"/>
      <point x="408" y="-293"/>
      <point x="358" y="-352"/>
      <point x="315" y="-352" type="curve" smooth="yes"/>
      <point x="268" y="-352"/>
      <point x="246" y="-315"/>
      <point x="246" y="-285" type="curve" smooth="yes"/>
      <point x="246" y="-203"/>
      <point x="340" y="-150"/>
      <point x="446" y="-111" type="curve"/>
    </contour>
  </outline>
</glyph>
